<svg xmlns="http://www.w3.org/2000/svg" width="112" height="140" viewBox="0 0 112 140">
  <g id="bear" transform="translate(-895.969 -306)">
    <g id="Image_64" data-name="Image 64" transform="translate(895.969 306)" fill="#f0f4fe">
      <rect width="112" height="140" rx="8" stroke="none"/>
      <rect x="1.5" y="1.5" width="109" height="137" rx="6.5" fill="none"/>
    </g>
    <g id="Group_5969" data-name="Group 5969" transform="translate(807.824 -594.355)">
      <path id="Path_4173" data-name="Path 4173" d="M104.183,979.7a3.461,3.461,0,0,0,1,2.669l2.672,2.672a3.46,3.46,0,0,0,2.669,1l7.6-.507L104.69,972.1Z" transform="translate(0 21.345)" fill="#2b4591"/>
      <path id="Path_4174" data-name="Path 4174" d="M120.713,982.318,108.5,970.105a1.727,1.727,0,0,0-2.442,2.444l12.211,12.211a1.727,1.727,0,1,0,2.442-2.442Z" transform="translate(0.734 20.015)" fill="#2b4591"/>
      <g id="Group_5935" data-name="Group 5935" transform="translate(109.027 933.356)">
        <path id="Path_4175" data-name="Path 4175" d="M181.063,947.857s-13.562,3.389-21.386-1.825c-6.266-4.176-9.194-8.177-18.817-5.456v-.006c2.05-8.59-3.092-8.354-7.065-5.227a4.42,4.42,0,0,0-1.576,2.226,34.76,34.76,0,0,0,15.948,67.553l.053-.009a34.688,34.688,0,0,0,5.046-1.291l.1-.036a34.429,34.429,0,0,0,4.682-2l.1-.051q.539-.281,1.068-.58l.1-.057a34.758,34.758,0,0,0,17-36.534C181.62,960.689,184.351,956.621,181.063,947.857Zm-27.94-1.863c.508-.215,1.305.526,1.781,1.654s.447,2.216-.062,2.43-1.307-.526-1.781-1.654S152.614,946.207,153.123,945.993ZM132.1,939.539a8.708,8.708,0,0,0,1.7,3.708h0c-.488.221-13.658,6.488-24.6,28.092,0-.149-.011-.3-.011-.447A32.972,32.972,0,0,1,132.1,939.539Zm-13.655,54.21a199.093,199.093,0,0,1,16.021-13.32l-.042-.042a5.96,5.96,0,0,1-.9-1.147,7.873,7.873,0,0,1-.948-2.342,6.829,6.829,0,0,1-4.219-1.9,152.339,152.339,0,0,1-12.675,15.514c-.519-.7-1.006-1.421-1.471-2.159a148.2,148.2,0,0,0,12.5-15.455c-2.169-3.844-.765-8.192,1.158-10.817,1.582-2.158,3.422-3.137,4.806-2.561.833.382,1.765,1.368,1.341,4.075-.372,2.353-1.791,5.459-4.213,9.24a2.268,2.268,0,0,0,.158.167,4.407,4.407,0,0,0,2.431,1.31,11.712,11.712,0,0,1,4.029-7.777c1.8-1.435,3.668-1.613,4.874-.461l.046.048a3.717,3.717,0,0,1,.771,3.776,10.728,10.728,0,0,1-6.991,6.714,5.788,5.788,0,0,0,.576,1.32,3.687,3.687,0,0,0,.907,1c6.356-4.321,10.186-5.562,12.046-3.913a3,3,0,0,1,1.1,3.311c-.745,2.357-4.338,3.824-7.362,4.185a11.488,11.488,0,0,1-5.611-.6,189.812,189.812,0,0,0-16.5,13.6Q119.328,994.665,118.444,993.749Zm56.616-22.857a32.892,32.892,0,0,1-13.54,26.586c-2.782-4.552-8.61-15.923,1.808-24.073,4.067-3.182,8.044-5.465,11.311-7.663A32.822,32.822,0,0,1,175.06,970.893Z" transform="translate(-107.342 -933.356)" fill="#2b4591"/>
        <path id="Path_4176" data-name="Path 4176" d="M124.168,951.835a6.044,6.044,0,0,0-1.633,1.6A8.014,8.014,0,0,0,121,960.125a21.737,21.737,0,0,0,3.106-7.066A4.646,4.646,0,0,0,124.168,951.835Z" transform="translate(-99.968 -923.196)" fill="#2b4591"/>
        <path id="Path_4177" data-name="Path 4177" d="M129.829,957c.1-.348.213-.97-.109-1.292l-.006,0c-.185-.178-.855.087-1.514.611a8.892,8.892,0,0,0-3.023,5.408A8.306,8.306,0,0,0,129.829,957Z" transform="translate(-97.543 -921.116)" fill="#2b4591"/>
        <path id="Path_4178" data-name="Path 4178" d="M130.648,964.581c2.712-.326,4.9-1.524,5.174-2.395.032-.074.078-.234-.244-.556l-.035-.035c-.182-.161-1.365-.918-7.394,3.007A11.3,11.3,0,0,0,130.648,964.581Z" transform="translate(-95.894 -917.958)" fill="#2b4591"/>
      </g>
    </g>
  </g>
</svg>
