<svg xmlns="http://www.w3.org/2000/svg" width="32" height="32" viewBox="0 0 32 32">
  <g id="linkedin" transform="translate(7 42) rotate(180)">
    <rect id="Rectangle_494" data-name="Rectangle 494" width="32" height="32" transform="translate(-25 10)" fill="none"/>
    <path id="linkedin-2" data-name="linkedin" d="M15.833,0H4.167A4.167,4.167,0,0,0,0,4.167V15.833A4.167,4.167,0,0,0,4.167,20H15.833A4.167,4.167,0,0,0,20,15.833V4.167A4.167,4.167,0,0,0,15.833,0ZM6.667,15.833h-2.5V6.667h2.5ZM5.417,5.61A1.47,1.47,0,1,1,6.875,4.14,1.465,1.465,0,0,1,5.417,5.61Zm11.25,10.223h-2.5v-4.67c0-2.807-3.333-2.594-3.333,0v4.67h-2.5V6.667h2.5V8.138C12,5.983,16.667,5.823,16.667,10.2Z" transform="translate(1 36) rotate(180)" fill="#2b4591"/>
  </g>
</svg>
