<svg xmlns="http://www.w3.org/2000/svg" width="112" height="140" viewBox="0 0 112 140">
  <g id="lion" transform="translate(-1136 -306)">
    <g id="Image_66" data-name="Image 66" transform="translate(1136 306)" fill="#f0f4fe">
      <rect width="112" height="140" rx="8" stroke="none"/>
      <rect x="1.5" y="1.5" width="109" height="137" rx="6.5" fill="none"/>
    </g>
    <g id="Group_5957" data-name="Group 5957" transform="translate(639.785 -590.741)">
      <g id="Group_5954" data-name="Group 5954" transform="translate(510.214 940.264)">
        <path id="Path_4305" data-name="Path 4305" d="M525.769,958.827l8.855-7.954c3.726-3.726,9.769,2.253,13.5,5.979,3.726-3.726,9.769-9.705,13.5-5.979l8.856,7.954a3.29,3.29,0,0,0,4.653-4.653l-10.741-10.741c-3.471-3.471-9.034-4.891-12.838-2.231a35.793,35.793,0,0,0-3.426,3.426,35.9,35.9,0,0,0-3.425-3.426c-3.805-2.66-9.368-1.24-12.838,2.231l-10.742,10.741a3.291,3.291,0,0,0,4.654,4.653Z" transform="translate(-506.134 -939.821)" fill="#2b4591"/>
        <path id="Path_4306" data-name="Path 4306" d="M549.642,947.75l-.093-.093h0Z" transform="translate(-494.069 -936.604)" fill="#2b4591"/>
        <path id="Path_4307" data-name="Path 4307" d="M530.443,947.657h0l-.1.1Z" transform="translate(-501.953 -936.604)" fill="#2b4591"/>
        <path id="Path_4308" data-name="Path 4308" d="M538.689,958.394a.753.753,0,0,0-.518,1.3l1.544,1.461a1.61,1.61,0,0,0,2.216,0l1.542-1.463a.752.752,0,0,0-.518-1.3Z" transform="translate(-498.836 -932.197)" fill="#2b4591"/>
        <path id="Path_4309" data-name="Path 4309" d="M592.661,968.711l-11.876-12.485a6.059,6.059,0,0,1-8.207-.327l-4.14-4.14a9.519,9.519,0,0,1-2.745,7.708h0a9.36,9.36,0,0,1-.709.635,7.3,7.3,0,0,1,3.219,1.875l-5.639,5.639a7.328,7.328,0,0,1-10.361,0h-.008a7.328,7.328,0,0,1-10.361,0l-5.639-5.639a7.284,7.284,0,0,1,3.216-1.873c-.243-.2-.48-.409-.707-.636h0a9.524,9.524,0,0,1-2.745-7.708l-4.14,4.14a6.059,6.059,0,0,1-8.207.327l-12.42,12.42a3.251,3.251,0,0,0-.173,4.461,3.192,3.192,0,0,0,4.619.113l10.193-10.193a1.471,1.471,0,0,1,2.082,0l.006.006a1.471,1.471,0,0,1,0,2.082L515.2,977.831a3.251,3.251,0,0,0-.175,4.463,3.193,3.193,0,0,0,4.622.113l12.78-12.781a1.473,1.473,0,0,1,2.082,0l.006.007a1.471,1.471,0,0,1,0,2.082l-9.747,9.748a3.25,3.25,0,0,0-.175,4.46,3.193,3.193,0,0,0,4.621.116l9.814-9.812a1.471,1.471,0,0,1,2.082,0l.007.007a1.474,1.474,0,0,1,0,2.082l-5.533,5.532a3.251,3.251,0,0,0-.173,4.461,3.192,3.192,0,0,0,4.619.113L552.2,976.3l11.561,12.121a3.189,3.189,0,1,0,4.509-4.511l-5.086-5.6a1.471,1.471,0,0,1,.049-2.03l.025-.027a1.472,1.472,0,0,1,2.111.031l9.206,9.752a3.189,3.189,0,1,0,4.511-4.511l-9.264-9.814a1.47,1.47,0,0,1,.03-2.051l.011-.013a1.473,1.473,0,0,1,2.106.024l12.172,12.733a3.189,3.189,0,1,0,4.511-4.51l-12.219-12.781a1.471,1.471,0,0,1,.024-2.058h0a1.471,1.471,0,0,1,2.11.03l9.585,10.134a3.188,3.188,0,1,0,4.509-4.509Zm-40.463,3.74a4.236,4.236,0,0,1-3.65-2.092,8.017,8.017,0,0,0,3.65-1.735,8.016,8.016,0,0,0,3.65,1.735A4.236,4.236,0,0,1,552.2,972.452Z" transform="translate(-510.214 -934.921)" fill="#2b4591"/>
        <path id="Path_4310" data-name="Path 4310" d="M532.958,953.569c-.368.481.2,1.522,1.267,2.326s2.231,1.063,2.6.583-.2-1.523-1.267-2.326S533.326,953.088,532.958,953.569Z" transform="translate(-500.925 -934.277)" fill="#2b4591"/>
        <path id="Path_4311" data-name="Path 4311" d="M545.541,954.139c-1.107.832-1.694,1.91-1.313,2.409s1.588.228,2.694-.6,1.693-1.911,1.312-2.409S546.647,953.306,545.541,954.139Z" transform="translate(-496.301 -934.295)" fill="#2b4591"/>
      </g>
      <g id="Group_5955" data-name="Group 5955" transform="translate(522.912 938.741)">
        <path id="Path_4312" data-name="Path 4312" d="M523.333,948.96l6.1-6.1L526.583,940a4.315,4.315,0,0,0-6.1,6.1Z" transform="translate(-519.217 -938.741)" fill="#2b4591"/>
      </g>
      <g id="Group_5956" data-name="Group 5956" transform="translate(571.266 938.741)">
        <path id="Path_4313" data-name="Path 4313" d="M559.6,948.96l2.853-2.853a4.315,4.315,0,0,0-6.1-6.1l-2.853,2.852Z" transform="translate(-553.5 -938.741)" fill="#2b4591"/>
      </g>
    </g>
  </g>
</svg>
