<svg xmlns="http://www.w3.org/2000/svg" width="32" height="32" viewBox="0 0 32 32">
  <g id="mail" transform="translate(7 42) rotate(180)">
    <rect id="Rectangle_494" data-name="Rectangle 494" width="32" height="32" transform="translate(-25 10)" fill="none"/>
    <path id="mail-2" data-name="mail" d="M20,4H4A2.006,2.006,0,0,0,2,6V18a2.006,2.006,0,0,0,2,2H20a2.006,2.006,0,0,0,2-2V6A2.006,2.006,0,0,0,20,4Zm-.4,4.25-6.54,4.09a1.981,1.981,0,0,1-2.12,0L4.4,8.25a.849.849,0,1,1,.9-1.44L12,11l6.7-4.19a.849.849,0,1,1,.9,1.44Z" transform="translate(3 38) rotate(180)" fill="#2b4591"/>
  </g>
</svg>
