<svg xmlns="http://www.w3.org/2000/svg" xmlns:xlink="http://www.w3.org/1999/xlink" width="112" height="140" viewBox="0 0 112 140">
  <defs>
    <clipPath id="clip-path">
      <path id="Path_4171" data-name="Path 4171" d="M5,0h96a5,5,0,0,1,5,5V129a5,5,0,0,1-5,5H5a5,5,0,0,1-5-5V5A5,5,0,0,1,5,0Z" transform="translate(-16396.994 -12380)" fill="#fff"/>
    </clipPath>
  </defs>
  <g id="musalenko" transform="translate(16400 12383)">
    <g id="Image_48" data-name="Image 48" transform="translate(-16400 -12383)" fill="#f0f4ff">
      <rect width="112" height="140" rx="8" stroke="none"/>
      <rect x="1.5" y="1.5" width="109" height="137" rx="6.5" fill="none"/>
    </g>
    <g id="Mask_Group_7" data-name="Mask Group 7" clip-path="url(#clip-path)">
      <g id="Group_5934" data-name="Group 5934" transform="translate(-16678.152 -12409.261)">
        <path id="Path_4153" data-name="Path 4153" d="M463.549,204.116a37.253,37.253,0,0,0-9.075-17.283,10.776,10.776,0,0,0,4.586.221c2.014-.409,4.336-2.422,3.125-4.691a3.569,3.569,0,0,0-2.235-1.518c-2.077-.735-4.212-1.35-6.325-1.975a70.914,70.914,0,0,0-12.735-2.7.182.182,0,0,0-.022-.028,163.473,163.473,0,0,0-30.3-21.193c-10.169-5.452-20.83-9.923-31.26-14.837q-5.187-2.444-10.308-5.025c-.437-.221-.906-.507-1.39-.8a3.037,3.037,0,0,0,.22-1.352,5.014,5.014,0,0,0-.667-1.74,3.707,3.707,0,0,0,1.233-2.222,11.055,11.055,0,0,0-.582-3.484,13.994,13.994,0,0,1-.114-4.087c.267-2.713.882-5.388,1.226-8.093,1.3-10.251,4.785-18.558-2-31.3a33.243,33.243,0,0,0-8.813-10.667,7.916,7.916,0,0,0,1.785-.95,7.14,7.14,0,0,0,2.63-3.377,7.327,7.327,0,0,0-2.1-7.7.607.607,0,0,0-1,.265,4.24,4.24,0,0,1-4.087,3.158,7.284,7.284,0,0,0-.478-4.681,18.7,18.7,0,0,0-13.164-10.592c-2.329-.44-5-.255-6.7,1.579a.248.248,0,0,0-.05.275A.591.591,0,0,0,335.7,50c1.664-.525,3.581-.769,4.946.553a5.607,5.607,0,0,1,1.118,5.59,8.048,8.048,0,0,1-3.225,4.276c-2.679-5.98-10.2-6.555-15.969-6.077-.733.061-1.033,1.255-.189,1.39a4.866,4.866,0,0,1,1.735,8.985.607.607,0,0,0-.171.165c-1.6.406-3.176.9-4.735,1.437a43.8,43.8,0,0,0-11.287,5.608,30.092,30.092,0,0,0-7.762,7.947,25.677,25.677,0,0,0-3.86,11.5,78.985,78.985,0,0,0,.241,13.255c.145,2.218.275,4.444.275,6.667,0,2.345-.185,4.69-.259,7.033-.124,3.93-.058,7.838,1.47,11.419-.376,1.751-2.252,2.869-2.093,4.8a3.275,3.275,0,0,0,.681,1.716c-.718.129-1.435.258-2.153.382-5.762.989-11.542,1.874-17.312,2.812-10.649,1.731-21.21,3.79-31.464,7.2a189.053,189.053,0,0,0-20.366,8.232.337.337,0,0,0-.028.021,69.709,69.709,0,0,0-12.571-.94q-3.312.012-6.625.131a4.032,4.032,0,0,0-2.982.851c-1.769,1.821-.153,4.388,1.65,5.351a10.707,10.707,0,0,0,4.518,1.084,37.248,37.248,0,0,0-13.516,14.086c-.814,1.515-2.168,3.456-.725,4.965,2.1,2.191,6.364,2.914,9.163,3.38,3.25.542,6.888,1.3,10.09.2a19.079,19.079,0,0,0,6.016-3.991,128.013,128.013,0,0,0,12.733-12.937c5.38-.7,10.674-2.473,16.04-3.362a67.021,67.021,0,0,1,14.2-.988c8.731.423,17.134,3.157,25.259,6.335a196.413,196.413,0,0,0-14.365,57.637,164.82,164.82,0,0,0,.947,35.608,120.279,120.279,0,0,0,6.768,28.511c4.271,10.945,10.386,21.009,16.967,30.7-2.016,1.233-3.944,2.67-5.8,4a77.536,77.536,0,0,0-9.158,7.424.925.925,0,0,0,.894,1.535l.761-.249a.694.694,0,0,0,.217-.119,6.943,6.943,0,0,0,3.174-.33q2.393-.515,4.8-.953,4.895-.891,9.84-1.453c6.36-.727,12.7-.91,19.094-1.009a1.035,1.035,0,0,0,.316-2.008c-3.224-9.5-4.9-19.328-3.3-29.33,1.6-10.025,5.743-19.348,8.934-28.916h0a50.784,50.784,0,0,0,8.9-.113.457.457,0,0,0,.012.113c3.191,9.568,7.338,18.891,8.934,28.916,1.592,10-.081,19.833-3.305,29.33a1.035,1.035,0,0,0,.316,2.008c6.393.1,12.734.283,19.094,1.009q4.943.565,9.84,1.453,2.189.4,4.366.86a8.341,8.341,0,0,0,3.606.421.692.692,0,0,0,.22.121l.761.249a.925.925,0,0,0,.893-1.535,77.468,77.468,0,0,0-9.157-7.424c-1.86-1.33-3.785-2.766-5.8-4,5.73-8.438,11.14-17.153,15.233-26.518A111.062,111.062,0,0,0,390,269.252c3.8-22.033,4.08-45.237-.5-67.166a153.344,153.344,0,0,0-9.831-30.344,92.929,92.929,0,0,1,23.689,2.649,91.513,91.513,0,0,1,12.046,4.23c4.888,2.069,9.559,4.862,14.5,6.771a128.693,128.693,0,0,0,8.8,16.29,19.048,19.048,0,0,0,4.672,5.5c2.78,1.945,6.468,2.223,9.75,2.606,2.808.327,7.132.811,9.741-.705C464.679,208.035,463.911,205.8,463.549,204.116Z" transform="translate(-0.098)" fill="#fff"/>
        <path id="Path_4154" data-name="Path 4154" d="M367.154,118.025a23.975,23.975,0,0,0-.508,7.264,10.769,10.769,0,0,0,.415,1.838,4.47,4.47,0,0,1,.429,2.219c-.279,1.245-1.846,2.018-2.859,2.579a18.36,18.36,0,0,1-7.775,2.211c-.8.049-.813,1.289,0,1.257a19,19,0,0,0,7.077-1.664,16.142,16.142,0,0,0,3-1.648,4.437,4.437,0,0,1,.356.971c.566,2.583-2.733,3.358-4.513,3.866-.394.113-.337.8.1.745,1.769-.225,3.715-.682,4.764-2.27.029-.044.05-.093.078-.138.835.442,1.647.935,2.409,1.316q4.288,2.152,8.628,4.2c5.288,2.5,10.63,4.884,15.956,7.3a202.515,202.515,0,0,1,28.12,14.959,181.64,181.64,0,0,1,17.932,13.679.274.274,0,0,0,.2.356,98.878,98.878,0,0,1,15.649,3.781,23.29,23.29,0,0,1,3.549,1.137c3.973,2.031.542,4.67-2.061,4.722a14.948,14.948,0,0,1-6.625-1.683c-.49-.251-.9.5-.408.751a18.039,18.039,0,0,0,2.481,1.026,38.837,38.837,0,0,1,9.2,16c.332,1.206,1.194,3.41.906,4.573-.557,2.252-3.749,2.148-5.517,2.209a42.421,42.421,0,0,1-9.711-1.127c-5.439-1.092-8.021-5.8-10.582-10.27-2.32-4.048-4.246-8.3-6.465-12.392a.313.313,0,0,0-.1-.431c-.061-.04-.126-.077-.187-.117-.018-.033-.035-.067-.053-.1a.378.378,0,0,0-.443-.21c-4.333-2.738-9.387-4.761-14.075-6.758a91.977,91.977,0,0,0-13.036-4.539,95.415,95.415,0,0,0-23.834-2.538c-.845-1.889-1.713-3.769-2.627-5.628-.4-.808-1.59-.1-1.2.7a160.6,160.6,0,0,1,14.08,45.4,16.874,16.874,0,0,1-3.855,1.745c-.936.255-2.1.23-3.061.534a.729.729,0,0,0-.061-.228l-13.963-28.113c-4.644-9.35-9.132-18.848-14.136-28.011a.453.453,0,0,0-.8-.014.516.516,0,0,0-.288.27c-1.687,3.518-3.857,6.752-5.841,10.1-2.127,3.6-4.076,7.278-5.916,11.027q-5.2,10.594-9.672,21.525c-2.01-3.573-4.88-6.827-7.316-10.1-2.608-3.5-5.322-6.949-7.81-10.537a.6.6,0,0,0-.841-.193.459.459,0,0,0-.4.177,138.912,138.912,0,0,0-21.28,32.745c-2.6-.528-5.3-.6-7.917-1.048-2.744-.474-5.435-1.191-8.127-1.893q1.254-6.816,3.029-13.581A212.594,212.594,0,0,1,295.6,158.107c.386-.8-.807-1.512-1.2-.7q-2.643,5.373-4.97,10.919c-7.979-3.122-16.2-5.812-24.77-6.388a64.171,64.171,0,0,0-13.635.681c-5.671.833-11.89,1.759-17.316,3.745a.376.376,0,0,0-.537.036c-.078.078-.153.161-.231.24l-.04.014a.464.464,0,0,0-.264.3c-3.178,3.232-6.129,6.681-9.381,9.848-3.75,3.652-7.629,7.638-13.258,7.168a42.509,42.509,0,0,1-9.643-1.612c-1.627-.53-3.788-1.082-4.38-2.773-.555-1.584.795-3.3,1.628-4.69a38.792,38.792,0,0,1,13.48-13.155,18.091,18.091,0,0,0,2.668-.3.428.428,0,0,0-.183-.835,14.978,14.978,0,0,1-6.833-.221,5.935,5.935,0,0,1-1.667-.761,2.026,2.026,0,0,1-1.25-2.141q-.563-1.365,1.078-1.566c1.557-.854,3.141-.707,4.893-.749a98.91,98.91,0,0,1,16.084.71.275.275,0,0,0,.3-.285,178.877,178.877,0,0,1,33.731-11.848c10.141-2.338,20.477-3.656,30.737-5.34,2.307-.379,4.611-.78,6.912-1.189.913.943,2.091,1.728,2.6,2.935.211.5,1.075.139.879-.37a6.026,6.026,0,0,0-1.592-2.207c-.807-.767-1.931-1.619-2-2.829a4.221,4.221,0,0,1,1.173-2.454,7.023,7.023,0,0,0,.5-.817c.1.184.2.368.314.55,1.906,3.123,5.111,5.758,8.934,5.641a.46.46,0,0,0,0-.92c-3.712-.213-6.677-2.744-8.36-5.941-2.036-3.872-2.046-8.545-1.725-12.8.176-2.331.352-4.654.411-6.993.056-2.224-.073-4.452-.19-6.673A74.168,74.168,0,0,1,298.5,91.1,23.714,23.714,0,0,1,303,79.743a30.051,30.051,0,0,1,8.743-7.648,51.7,51.7,0,0,1,12.246-5.059c2.132-.611,4.243-1.3,6.4-1.824a39.8,39.8,0,0,0,6.223-1.834,15.008,15.008,0,0,0,2.195-1.152.743.743,0,0,0,.288-.19c2.683-1.8,4.749-4.527,4.534-7.936a5.935,5.935,0,0,0-2.538-4.7,5.625,5.625,0,0,0-4.156-.538c3.227-1.847,7.872.254,10.663,2.08a18.389,18.389,0,0,1,5.381,5.4c1.616,2.507,2.932,5.526,1.026,8.268a6.282,6.282,0,0,1-3.762,2.489,9.588,9.588,0,0,1-5.346-.631c-.458-.16-.728.533-.325.77a8.067,8.067,0,0,0,9.017-.7,6.533,6.533,0,0,0,1.765-2.3,5.424,5.424,0,0,0,5.284-3.034,5.41,5.41,0,0,1,.8,5.5,5.606,5.606,0,0,1-2.052,2.454,5.516,5.516,0,0,1-1.374.667,5.562,5.562,0,0,0-1.66.483.994.994,0,0,0-.391.964.881.881,0,0,0,.359.926c7.157,5.115,11.665,13.252,13.4,21.781" transform="translate(-0.66 -0.348)" fill="#1f4396"/>
        <g id="Group_5921" data-name="Group 5921" transform="translate(194.154 47.261)">
          <path id="Path_4155" data-name="Path 4155" d="M463.3,204.116a37.254,37.254,0,0,0-9.076-17.283,10.777,10.777,0,0,0,4.586.221c2.014-.409,4.336-2.422,3.126-4.691a3.572,3.572,0,0,0-2.235-1.518c-2.077-.735-4.212-1.35-6.324-1.975a70.932,70.932,0,0,0-12.735-2.7.224.224,0,0,0-.021-.028,163.476,163.476,0,0,0-30.3-21.193c-10.169-5.452-20.83-9.923-31.26-14.837q-5.187-2.444-10.308-5.025c-.436-.221-.906-.507-1.39-.8a3.046,3.046,0,0,0,.22-1.352,5.027,5.027,0,0,0-.668-1.74,3.711,3.711,0,0,0,1.234-2.222,11.072,11.072,0,0,0-.582-3.484,13.994,13.994,0,0,1-.114-4.087c.267-2.713.883-5.388,1.226-8.093,1.3-10.251,4.785-18.558-2-31.3a33.243,33.243,0,0,0-8.813-10.667,7.916,7.916,0,0,0,1.785-.95,7.139,7.139,0,0,0,2.63-3.377,7.327,7.327,0,0,0-2.1-7.7.607.607,0,0,0-1,.265,4.24,4.24,0,0,1-4.087,3.158,7.284,7.284,0,0,0-.478-4.681,18.7,18.7,0,0,0-13.164-10.592c-2.328-.44-5-.255-6.7,1.579a.247.247,0,0,0-.049.275.591.591,0,0,0,.75.682c1.664-.525,3.58-.769,4.946.553a5.605,5.605,0,0,1,1.118,5.59,8.05,8.05,0,0,1-3.225,4.276c-2.679-5.98-10.2-6.555-15.969-6.077-.732.061-1.033,1.255-.188,1.39a4.867,4.867,0,0,1,1.735,8.985.61.61,0,0,0-.171.165c-1.6.406-3.176.9-4.735,1.437a43.775,43.775,0,0,0-11.287,5.608,30.083,30.083,0,0,0-7.762,7.947,25.669,25.669,0,0,0-3.86,11.5,78.978,78.978,0,0,0,.24,13.255c.145,2.218.275,4.444.275,6.667,0,2.345-.185,4.69-.259,7.033-.123,3.93-.057,7.838,1.47,11.419-.376,1.751-2.252,2.869-2.093,4.8a3.27,3.27,0,0,0,.682,1.716c-.718.129-1.436.258-2.154.382-5.762.989-11.542,1.874-17.312,2.812-10.649,1.731-21.209,3.79-31.464,7.2a188.993,188.993,0,0,0-20.366,8.232.264.264,0,0,0-.029.021,69.709,69.709,0,0,0-12.571-.94q-3.312.012-6.625.131a4.032,4.032,0,0,0-2.982.851c-1.769,1.821-.153,4.388,1.65,5.351a10.707,10.707,0,0,0,4.518,1.084,37.241,37.241,0,0,0-13.515,14.086c-.814,1.515-2.169,3.456-.726,4.965,2.1,2.191,6.364,2.914,9.163,3.38,3.25.542,6.888,1.3,10.09.2a19.072,19.072,0,0,0,6.016-3.991,128.013,128.013,0,0,0,12.733-12.937c5.38-.7,10.674-2.473,16.04-3.362a67.021,67.021,0,0,1,14.2-.988c8.731.423,17.135,3.157,25.259,6.335a196.432,196.432,0,0,0-14.365,57.637,164.9,164.9,0,0,0,.947,35.608,120.281,120.281,0,0,0,6.768,28.511c4.271,10.945,10.386,21.009,16.966,30.7-2.015,1.233-3.944,2.67-5.8,4a77.48,77.48,0,0,0-9.157,7.424.925.925,0,0,0,.893,1.535l.761-.249a.7.7,0,0,0,.217-.119,6.945,6.945,0,0,0,3.174-.33q2.392-.515,4.8-.953,4.895-.891,9.84-1.453c6.36-.727,12.7-.91,19.094-1.009a1.035,1.035,0,0,0,.316-2.008c-3.223-9.5-4.9-19.328-3.3-29.33,1.6-10.025,5.743-19.348,8.934-28.916h0a50.778,50.778,0,0,0,8.895-.113.489.489,0,0,0,.012.113c3.191,9.568,7.339,18.891,8.934,28.916,1.592,10-.081,19.833-3.3,29.33a1.035,1.035,0,0,0,.316,2.008c6.394.1,12.734.283,19.094,1.009q4.943.565,9.84,1.453,2.189.4,4.366.86a8.342,8.342,0,0,0,3.606.421.689.689,0,0,0,.22.121l.761.249a.925.925,0,0,0,.893-1.535,77.419,77.419,0,0,0-9.157-7.424c-1.86-1.33-3.785-2.766-5.8-4,5.73-8.438,11.14-17.153,15.233-26.518a111.059,111.059,0,0,0,7.466-25.76c3.8-22.033,4.08-45.237-.5-67.166a153.38,153.38,0,0,0-9.831-30.344,92.921,92.921,0,0,1,23.688,2.649,91.518,91.518,0,0,1,12.046,4.23c4.888,2.069,9.559,4.862,14.5,6.771a128.774,128.774,0,0,0,8.8,16.29,19.047,19.047,0,0,0,4.672,5.5c2.781,1.945,6.468,2.223,9.75,2.606,2.808.327,7.132.811,9.741-.705C464.43,208.035,463.662,205.8,463.3,204.116ZM327.41,59.446a5.914,5.914,0,0,0-2.254-3.79,18.634,18.634,0,0,1,6.4.788,8.805,8.805,0,0,1,5.455,4.766,22.285,22.285,0,0,1-5.128,1.913c-1.935.494-3.905.834-5.861,1.231A6.291,6.291,0,0,0,327.41,59.446ZM275.127,245.318c18.673-11.174,40.369-14.154,61.13-19.378,3.132-.789,9-2.2,9.748-6.04.768-3.928-4.2-4.38-6.834-4.441q-8.809-.2-17.618.192-2.2.1-4.4.229c-1.355.08-3.355.446-4.535-.389-4.111-2.909,5.3-6.015,6.584-6.543a168.621,168.621,0,0,1,27.653-8.189c-2.148.75-4.277,1.548-6.387,2.366-3.832,1.486-8.3,2.95-11.592,5.5-2.189,1.7-.285,2.558,1.7,2.842,4.992.713,10.225.145,15.246.105,6.115-.049,12.726-.126,18.553,1.98a9.86,9.86,0,0,1,4.862,3.164c1.7,2.423.627,5.227-1.355,7.1-2.865,2.712-7.23,4.311-10.725,6.042-14.231,7.051-28.995,13.047-42.836,20.874a123.9,123.9,0,0,0-20.889,14.447c-5.5,4.829-10.389,10.624-12.558,17.676a115.775,115.775,0,0,1-3.858-16.663A166.368,166.368,0,0,1,275.127,245.318ZM381.6,291.732c-4.179,10.243-10.037,19.706-16.243,28.828a21.958,21.958,0,0,0-2.46-1.129.43.43,0,0,0-.416.714c2.777,2.3,6.042,4.04,8.933,6.212,2.2,1.656,4.276,3.453,6.333,5.273-1.69-.426-3.588-.561-5.023-.825q-4.734-.873-9.517-1.449a134.031,134.031,0,0,0-18.585-1.078c3.093-9.3,4.673-18.9,3.269-28.689-1.47-10.254-5.377-20.267-9.509-29.712.549-.072,1.1-.147,1.649-.241.381-.065.3-.724-.092-.681a67.67,67.67,0,0,1-16.307.016c-.366-.046-.457.6-.088.65q1.842.25,3.669.409c-4.108,9.4-7.981,19.361-9.443,29.56-1.4,9.792.176,19.388,3.269,28.689a134.025,134.025,0,0,0-18.585,1.078q-4.558.552-9.079,1.369-2.408.437-4.8.95c-.319.069-.625.126-.922.185,2.142-1.9,4.3-3.776,6.594-5.5,2.891-2.173,6.156-3.909,8.933-6.212a.43.43,0,0,0-.416-.714,21.845,21.845,0,0,0-2.46,1.129c-5.855-8.608-11.379-17.505-15.511-27.085-1.121-2.6-2.122-5.245-3.033-7.923a.805.805,0,0,0,.144-.316c1.69-7.446,6.543-13.435,12.12-18.434a118.5,118.5,0,0,1,19.047-13.564c13.351-7.868,27.674-13.873,41.563-20.691,3.4-1.671,6.792-3.382,10.116-5.207,2.5-1.371,5.156-3.047,6.154-5.878,2.063-5.853-4.744-8.672-9.233-9.679-5.781-1.3-11.835-1.238-17.726-1.146-2.847.045-5.694.143-8.542.131a20.153,20.153,0,0,1-5.941-.486c-.932-.3-.746-.333-.016-.918a13.912,13.912,0,0,1,2.159-1.3,78.666,78.666,0,0,1,7.547-3.412,172.393,172.393,0,0,1,16.3-5.73l.337-.071a.377.377,0,0,0,.173-.085c.049-.015.1-.031.148-.045a.363.363,0,0,0-.193-.7l-.186.048a.414.414,0,0,0-.158,0c-11.078,2.13-22.16,4.58-32.762,8.495q-3.561,1.314-7.034,2.854c-1.552.69-3.812,1.363-4.783,2.912a2.637,2.637,0,0,0,.195,3.139c1.236,1.545,3.295,1.49,5.081,1.4,5.872-.287,11.731-.542,17.612-.524,2.768.009,6.177-.429,8.85.386a3.161,3.161,0,0,1,2.3,1.971c.385,1.6-1.232,2.805-2.312,3.49a16.3,16.3,0,0,1-3.921,1.714c-5.207,1.618-10.706,2.513-16.033,3.655-5.186,1.112-10.365,2.254-15.505,3.564-11.182,2.851-22.2,6.539-32.185,12.4a172.312,172.312,0,0,1,2.587-32.637c2.6.478,5.224.8,7.848,1.131a48.758,48.758,0,0,0,8.607.767.357.357,0,0,0,.554-.127,169.4,169.4,0,0,1,21.118-32.136c2.8,3.5,5.41,7.167,8.1,10.748,2.43,3.234,4.7,6.872,7.6,9.708a.3.3,0,0,0,.5-.176.3.3,0,0,0,.253-.18c3.367-7.321,6.507-14.752,10.194-21.922,1.84-3.579,3.766-7.123,5.828-10.58,1.866-3.127,3.889-6.156,5.532-9.407,4.159,9.166,8.819,18.152,13.29,27.167L381.033,214a.6.6,0,0,0,.384.332.281.281,0,0,0,.082.083c1.188.693,3.227.085,4.488-.246a12.178,12.178,0,0,0,3.462-1.431,155.872,155.872,0,0,1,1.539,19.812C391.25,252.512,389.2,273.124,381.6,291.732ZM366.494,117.676a23.974,23.974,0,0,0-.508,7.264,10.769,10.769,0,0,0,.415,1.838A4.47,4.47,0,0,1,366.83,129c-.279,1.245-1.846,2.018-2.859,2.579a18.36,18.36,0,0,1-7.775,2.211c-.8.049-.813,1.289,0,1.257a19,19,0,0,0,7.077-1.664,16.143,16.143,0,0,0,3-1.648,4.437,4.437,0,0,1,.356.971c.566,2.583-2.733,3.358-4.513,3.866-.394.113-.337.8.1.745,1.769-.225,3.715-.682,4.764-2.27.029-.044.05-.093.078-.138.835.442,1.647.935,2.409,1.316q4.288,2.152,8.628,4.2c5.288,2.5,10.63,4.884,15.956,7.3a202.515,202.515,0,0,1,28.12,14.959A181.64,181.64,0,0,1,440.1,176.36a.274.274,0,0,0,.2.356,98.878,98.878,0,0,1,15.649,3.781,23.29,23.29,0,0,1,3.549,1.137c3.973,2.031.542,4.67-2.061,4.722a14.948,14.948,0,0,1-6.625-1.683c-.49-.251-.9.5-.408.751a18.039,18.039,0,0,0,2.481,1.026,38.837,38.837,0,0,1,9.2,16c.332,1.206,1.194,3.41.906,4.573-.557,2.252-3.749,2.148-5.517,2.209a42.421,42.421,0,0,1-9.711-1.127c-5.439-1.092-8.021-5.8-10.582-10.27-2.32-4.048-4.246-8.3-6.465-12.392a.313.313,0,0,0-.1-.431c-.061-.04-.126-.077-.187-.117-.018-.033-.035-.067-.053-.1a.378.378,0,0,0-.443-.21c-4.333-2.738-9.387-4.761-14.075-6.758a91.977,91.977,0,0,0-13.036-4.539,95.415,95.415,0,0,0-23.834-2.538c-.845-1.889-1.713-3.769-2.627-5.628-.4-.808-1.59-.1-1.2.7a160.6,160.6,0,0,1,14.08,45.4,16.874,16.874,0,0,1-3.855,1.745c-.936.255-2.1.23-3.061.534a.729.729,0,0,0-.061-.228L368.3,185.17c-4.644-9.35-9.132-18.848-14.136-28.011a.453.453,0,0,0-.8-.014.516.516,0,0,0-.288.27c-1.687,3.518-3.857,6.752-5.841,10.1-2.127,3.6-4.076,7.278-5.916,11.027q-5.2,10.594-9.672,21.525c-2.01-3.573-4.88-6.827-7.316-10.1-2.608-3.5-5.322-6.949-7.81-10.537a.6.6,0,0,0-.841-.193.459.459,0,0,0-.4.177A138.913,138.913,0,0,0,294,212.165c-2.6-.528-5.3-.6-7.917-1.048-2.744-.474-5.435-1.191-8.127-1.893q1.254-6.816,3.029-13.581a212.592,212.592,0,0,1,13.952-37.884c.386-.8-.807-1.512-1.2-.7q-2.643,5.373-4.97,10.919c-7.979-3.122-16.2-5.812-24.77-6.388a64.17,64.17,0,0,0-13.635.681c-5.671.833-11.89,1.759-17.316,3.745a.376.376,0,0,0-.537.036c-.078.078-.153.161-.231.24l-.04.014a.464.464,0,0,0-.264.3c-3.178,3.232-6.129,6.681-9.381,9.848-3.75,3.652-7.629,7.638-13.258,7.168A42.509,42.509,0,0,1,199.687,182c-1.627-.53-3.788-1.082-4.38-2.773-.555-1.584.795-3.3,1.628-4.69a38.793,38.793,0,0,1,13.48-13.155,18.092,18.092,0,0,0,2.668-.3.428.428,0,0,0-.183-.835,14.978,14.978,0,0,1-6.833-.221,5.935,5.935,0,0,1-1.667-.761,2.026,2.026,0,0,1-1.25-2.141q-.563-1.365,1.078-1.566c1.557-.854,3.141-.707,4.893-.749a98.91,98.91,0,0,1,16.084.71.275.275,0,0,0,.3-.285,178.877,178.877,0,0,1,33.731-11.848c10.141-2.338,20.477-3.656,30.737-5.34,2.307-.379,4.611-.78,6.912-1.189.913.943,2.091,1.728,2.6,2.935.211.5,1.075.139.879-.37a6.026,6.026,0,0,0-1.592-2.207c-.807-.767-1.931-1.619-2-2.829a4.221,4.221,0,0,1,1.173-2.454,7.027,7.027,0,0,0,.5-.817c.1.184.2.369.314.55,1.906,3.123,5.111,5.758,8.934,5.641a.46.46,0,0,0,0-.92c-3.712-.213-6.677-2.744-8.36-5.941-2.036-3.872-2.046-8.545-1.725-12.8.176-2.331.352-4.654.411-6.993.056-2.224-.073-4.453-.19-6.673a74.168,74.168,0,0,1,.007-13.234,23.714,23.714,0,0,1,4.5-11.357,30.051,30.051,0,0,1,8.743-7.648,51.7,51.7,0,0,1,12.246-5.059c2.132-.611,4.243-1.3,6.4-1.824a39.8,39.8,0,0,0,6.223-1.834,15.008,15.008,0,0,0,2.195-1.152.743.743,0,0,0,.288-.19c2.683-1.8,4.749-4.527,4.534-7.936a5.935,5.935,0,0,0-2.538-4.7,5.625,5.625,0,0,0-4.156-.538c3.227-1.847,7.872.254,10.663,2.08a18.389,18.389,0,0,1,5.381,5.4c1.616,2.507,2.932,5.526,1.026,8.268a6.282,6.282,0,0,1-3.762,2.489,9.588,9.588,0,0,1-5.346-.631c-.458-.16-.728.533-.325.77a8.067,8.067,0,0,0,9.017-.7,6.533,6.533,0,0,0,1.765-2.3,5.424,5.424,0,0,0,5.284-3.034,5.41,5.41,0,0,1,.8,5.5,5.606,5.606,0,0,1-2.052,2.454,5.516,5.516,0,0,1-1.374.667,5.562,5.562,0,0,0-1.66.483.994.994,0,0,0-.391.964.881.881,0,0,0,.359.926c7.157,5.115,11.665,13.252,13.4,21.781" transform="translate(-194.154 -47.261)" fill="#002881"/>
          <path id="Path_4156" data-name="Path 4156" d="M422.549,185.617a37.335,37.335,0,0,1-7.573.4,31.471,31.471,0,0,1-7.559-1.659c-.692-.241-.981.846-.3,1.093a31.533,31.533,0,0,0,7.7,1.742,28.145,28.145,0,0,0,7.934-.092C423.575,186.943,423.4,185.521,422.549,185.617Z" transform="translate(-277.463 -100.976)" fill="#002881"/>
          <path id="Path_4157" data-name="Path 4157" d="M431.411,123.648a.5.5,0,0,0-.088-.862,35.447,35.447,0,0,0-5.19-1.607q-2.559-.662-5.155-1.165a87.4,87.4,0,0,0-10.783-1.394,80.437,80.437,0,0,0-21.6,1.391,97.755,97.755,0,0,0-11.815,3.165.374.374,0,0,0-.23.2c-.373-.11-.826.254-.559.665,2.98,4.594,4.158,10.045,6.889,14.764a17.564,17.564,0,0,0,4.762,5.517,16.523,16.523,0,0,0,6.784,2.724,45.242,45.242,0,0,0,8.459.533c5.243.154,10.766-.306,15.511-2.726,4.711-2.4,7.9-6.848,9.935-11.613A55.475,55.475,0,0,0,431.411,123.648Zm-6.068,12.729v0h0Zm1.083-8.111a16.854,16.854,0,0,1-1.681,1.608,13.218,13.218,0,0,1-1.808,1.174,31.752,31.752,0,0,1-5.95,1.313,76.323,76.323,0,0,1-11.456.253c-.5-.015-.488.73,0,.773a63.88,63.88,0,0,0,11.784.148.473.473,0,0,0,.13.023c1.844.032,4.427.244,5.459,2-.67,1.891-1.219,3.827-1.751,5.765a.765.765,0,0,0-.026.142,16.452,16.452,0,0,1-2.506,1.758,22.517,22.517,0,0,1-7.182,2.44,81.068,81.068,0,0,1-8.744.843.579.579,0,0,0-.159.042c-4.673-.035-9.693-.128-13.742-2.733-.325-.209-.634-.432-.933-.666a6.031,6.031,0,0,0-.617-2.607q-.467-1.387-.969-2.764c-.075-.2-.154-.406-.231-.61a9.249,9.249,0,0,1,1.873-1.369,19.09,19.09,0,0,1,3.155-1.154l.038-.016c1.649-.209,3.29-.472,4.937-.7,1.844-.25,3.722-.213,5.557-.459.424-.057.621-.714.112-.824a17.056,17.056,0,0,0-5.01.02c-1.777.161-3.545.4-5.32.57-1.014.1-2.046.189-3.075.217a15.379,15.379,0,0,1-3.048-.645c-.279-.1-.555-.22-.826-.345-.113-.094-.221-.187-.321-.281-.119-.113-.234-.228-.35-.343a41.209,41.209,0,0,0-2.579-4.615,12.568,12.568,0,0,0-1.642-2.155,14.681,14.681,0,0,0-1.836-1.386,87,87,0,0,1,41.569-2.721q2.876.511,5.713,1.218c1.582.395,3.137.909,4.712,1.332a8.984,8.984,0,0,0-1.045,1.352c-.483.7-.958,1.4-1.419,2.111Q426.825,127.616,426.426,128.265Z" transform="translate(-265.383 -75.151)" fill="#002881"/>
        </g>
        <g id="Group_5927" data-name="Group 5927" transform="translate(320.411 68.675)">
          <g id="Group_5924" data-name="Group 5924" transform="translate(0.367 4.363)">
            <g id="Group_5923" data-name="Group 5923">
              <g id="Group_5922" data-name="Group 5922">
                <path id="Path_4158" data-name="Path 4158" d="M412.647,97.444c.369,3.672-1.382,6.854-3.909,7.108s-4.874-2.518-5.242-6.19,1.381-6.854,3.908-7.108S412.278,93.772,412.647,97.444Z" transform="translate(-402.799 -90.273)" fill="#fff"/>
                <path id="Path_4159" data-name="Path 4159" d="M412.32,96.813a13.475,13.475,0,0,1-.2,4.619,4.822,4.822,0,0,1-1.268,2.172,3.821,3.821,0,0,1-2.456,1.083,3.929,3.929,0,0,1-2.466-.836,6.971,6.971,0,0,1-1.6-1.782,12.9,12.9,0,0,1-1.753-4.279,8.191,8.191,0,0,1,.35-4.775,6.063,6.063,0,0,1,1.428-2.165,4.055,4.055,0,0,1,5.213-.466,5.1,5.1,0,0,1,1.656,1.927A13.31,13.31,0,0,1,412.32,96.813Zm-.181.018a6.263,6.263,0,0,0-1.9-3.813,4.156,4.156,0,0,0-3.158-1.417,2.95,2.95,0,0,0-1.449.665,4.632,4.632,0,0,0-1.132,1.456,9.81,9.81,0,0,0-.928,3.968,6.448,6.448,0,0,0,1.236,4.035,4.086,4.086,0,0,0,1.631,1.258,3.133,3.133,0,0,0,1.8.189,4.88,4.88,0,0,0,2.816-2.218A6.243,6.243,0,0,0,412.139,96.831Z" transform="translate(-402.382 -89.65)" fill="#002881"/>
              </g>
            </g>
          </g>
          <g id="Group_5925" data-name="Group 5925">
            <path id="Path_4160" data-name="Path 4160" d="M406.1,82.476l.375,2.515a5.483,5.483,0,0,0-4.692,2.628S402.229,82.813,406.1,82.476Z" transform="translate(-401.779 -82.476)" fill="#002881"/>
          </g>
          <g id="Group_5926" data-name="Group 5926" transform="translate(6.538 11.995)">
            <path id="Path_4161" data-name="Path 4161" d="M415.085,103.963c0,.972-.572,1.76-1.278,1.76s-1.278-.788-1.278-1.76.572-1.761,1.278-1.761S415.085,102.99,415.085,103.963Z" transform="translate(-412.53 -102.202)" fill="#002881"/>
            <path id="Path_4162" data-name="Path 4162" d="M414.375,103.5c0,.386-.227.7-.508.7s-.508-.314-.508-.7.227-.7.508-.7S414.375,103.109,414.375,103.5Z" transform="translate(-412.855 -102.435)" fill="#fff"/>
          </g>
        </g>
        <g id="Group_5933" data-name="Group 5933" transform="translate(335.31 68.873)">
          <g id="Group_5930" data-name="Group 5930" transform="translate(0 4.363)">
            <g id="Group_5929" data-name="Group 5929">
              <g id="Group_5928" data-name="Group 5928">
                <path id="Path_4163" data-name="Path 4163" d="M426.566,97.77c-.368,3.672,1.382,6.854,3.908,7.107s4.875-2.518,5.243-6.189-1.382-6.854-3.908-7.108S426.935,94.1,426.566,97.77Z" transform="translate(-426.373 -90.599)" fill="#fff"/>
                <path id="Path_4164" data-name="Path 4164" d="M426.564,97.157a6.243,6.243,0,0,0,1.078,4.124,4.881,4.881,0,0,0,2.815,2.218,3.14,3.14,0,0,0,1.8-.189,4.086,4.086,0,0,0,1.63-1.258,6.448,6.448,0,0,0,1.237-4.035,9.818,9.818,0,0,0-.928-3.968,4.633,4.633,0,0,0-1.132-1.456,2.939,2.939,0,0,0-1.449-.665,4.157,4.157,0,0,0-3.159,1.417A6.265,6.265,0,0,0,426.564,97.157Zm-.181-.018a13.31,13.31,0,0,1,1.093-4.5,5.109,5.109,0,0,1,1.656-1.928,4.056,4.056,0,0,1,5.213.467,6.061,6.061,0,0,1,1.428,2.164,8.188,8.188,0,0,1,.349,4.775,12.87,12.87,0,0,1-1.753,4.279,6.958,6.958,0,0,1-1.6,1.782,3.927,3.927,0,0,1-2.466.836,3.82,3.82,0,0,1-2.456-1.082,4.821,4.821,0,0,1-1.268-2.173A13.47,13.47,0,0,1,426.383,97.139Z" transform="translate(-426.28 -89.976)" fill="#002881"/>
              </g>
            </g>
          </g>
          <g id="Group_5931" data-name="Group 5931" transform="translate(5.715)">
            <path id="Path_4165" data-name="Path 4165" d="M436.054,82.8l-.376,2.516a5.484,5.484,0,0,1,4.693,2.628S439.92,83.139,436.054,82.8Z" transform="translate(-435.678 -82.801)" fill="#002881"/>
          </g>
          <g id="Group_5932" data-name="Group 5932" transform="translate(1.315 11.995)">
            <path id="Path_4166" data-name="Path 4166" d="M428.442,104.288c0,.973.572,1.761,1.278,1.761s1.278-.788,1.278-1.761-.572-1.761-1.278-1.761S428.442,103.316,428.442,104.288Z" transform="translate(-428.442 -102.527)" fill="#002881"/>
            <path id="Path_4167" data-name="Path 4167" d="M430.144,103.821c0,.387.227.7.508.7s.508-.313.508-.7-.227-.7-.508-.7S430.144,103.434,430.144,103.821Z" transform="translate(-429.109 -102.76)" fill="#fff"/>
          </g>
        </g>
        <path id="Path_4168" data-name="Path 4168" d="M327.312,344.243c18.673-11.174,40.369-14.154,61.13-19.378,3.132-.789,9-2.2,9.748-6.04.768-3.928-4.2-4.38-6.834-4.441q-8.809-.2-17.618.192-2.2.1-4.4.229c-1.355.08-3.355.446-4.535-.389-4.111-2.909,5.3-6.015,6.584-6.543a168.624,168.624,0,0,1,27.653-8.189c-2.148.75-4.277,1.548-6.387,2.366-3.832,1.486-8.3,2.951-11.592,5.5-2.189,1.7-.285,2.558,1.7,2.842,4.992.713,10.225.145,15.246.105,6.115-.049,12.726-.126,18.553,1.98a9.859,9.859,0,0,1,4.862,3.164c1.7,2.423.627,5.227-1.355,7.1-2.865,2.712-7.23,4.311-10.725,6.042-14.231,7.051-28.995,13.047-42.836,20.874A123.9,123.9,0,0,0,345.622,364.1c-5.5,4.829-10.389,10.624-12.558,17.676a115.771,115.771,0,0,1-3.858-16.663A166.374,166.374,0,0,1,327.312,344.243Z" transform="translate(-52.185 -98.925)" fill="#1f4396"/>
        <path id="Path_4169" data-name="Path 4169" d="M427.587,129.034a16.861,16.861,0,0,1-1.681,1.608,13.218,13.218,0,0,1-1.809,1.174,31.75,31.75,0,0,1-5.95,1.313,76.322,76.322,0,0,1-11.456.253c-.5-.015-.488.73,0,.773a63.879,63.879,0,0,0,11.784.148.472.472,0,0,0,.13.023c1.844.032,4.427.244,5.459,2-.67,1.891-1.219,3.827-1.751,5.765a.765.765,0,0,0-.026.142,16.45,16.45,0,0,1-2.506,1.758,22.517,22.517,0,0,1-7.182,2.44,81.064,81.064,0,0,1-8.744.843.58.58,0,0,0-.159.042c-4.673-.035-9.693-.128-13.742-2.733-.325-.209-.634-.432-.933-.666a6.031,6.031,0,0,0-.617-2.607q-.467-1.387-.969-2.764c-.075-.2-.154-.406-.231-.61a9.248,9.248,0,0,1,1.873-1.369,19.09,19.09,0,0,1,3.155-1.154l.038-.016c1.649-.209,3.29-.472,4.937-.7,1.844-.25,3.722-.213,5.557-.459.424-.057.621-.714.112-.824a17.055,17.055,0,0,0-5.009.02c-1.777.161-3.545.4-5.32.57-1.014.1-2.046.189-3.075.217a15.379,15.379,0,0,1-3.048-.645c-.279-.1-.555-.22-.826-.345-.113-.094-.221-.187-.321-.281-.119-.113-.234-.228-.35-.343A41.214,41.214,0,0,0,382.347,128a12.57,12.57,0,0,0-1.642-2.155,14.678,14.678,0,0,0-1.836-1.386,87,87,0,0,1,41.569-2.721q2.876.511,5.713,1.218c1.582.395,3.137.909,4.712,1.332a8.987,8.987,0,0,0-1.045,1.352c-.483.7-.958,1.4-1.419,2.111Q427.985,128.385,427.587,129.034Z" transform="translate(-72.39 -28.659)" fill="#fff"/>
        <path id="Path_4170" data-name="Path 4170" d="M411.836,64.853a5.914,5.914,0,0,0-2.254-3.79,18.634,18.634,0,0,1,6.4.788,8.805,8.805,0,0,1,5.455,4.766,22.285,22.285,0,0,1-5.128,1.913c-1.935.494-3.905.834-5.861,1.231A6.291,6.291,0,0,0,411.836,64.853Z" transform="translate(-84.426 -5.406)" fill="#1f4396"/>
      </g>
    </g>
  </g>
</svg>
