<svg xmlns="http://www.w3.org/2000/svg" width="32" height="32" viewBox="0 0 32 32">
  <g id="back-to-question" transform="translate(-0.203)">
    <rect id="Rectangle_2142" data-name="Rectangle 2142" width="32" height="32" transform="translate(0.203)" fill="none"/>
    <path id="Path_2871" data-name="Path 2871" d="M17.574,13.913a2.54,2.54,0,1,0-2.538,2.425A2.491,2.491,0,0,0,17.574,13.913ZM15.366,3A11.2,11.2,0,0,0,3.616,13.913H1.345A.6.6,0,0,0,.9,14.944l3.54,3.383a.649.649,0,0,0,.9,0l3.54-3.383a.6.6,0,0,0-.457-1.031H6.154a8.7,8.7,0,0,1,9.009-8.487,8.8,8.8,0,0,1,8.756,8.366A8.69,8.69,0,0,1,15.036,22.4a9.248,9.248,0,0,1-4.365-1.1,1.276,1.276,0,0,0-1.5.218,1.18,1.18,0,0,0,.254,1.9,11.891,11.891,0,0,0,5.609,1.406A11.169,11.169,0,0,0,26.457,13.6C26.292,7.911,21.318,3.158,15.366,3Z" transform="translate(2.715 2.14)" fill="#643695"/>
  </g>
</svg>
