<svg xmlns="http://www.w3.org/2000/svg" xmlns:xlink="http://www.w3.org/1999/xlink" width="375" height="560" viewBox="0 0 375 560">
  <defs>
    <clipPath id="clip-path">
      <rect id="Rectangle_2179" data-name="Rectangle 2179" width="375" height="560" transform="translate(12571 -19205)" fill="#fff" stroke="#707070" stroke-width="1"/>
    </clipPath>
    <linearGradient id="linear-gradient" x1="0.98" y1="0.41" x2="0.235" y2="0.895" gradientUnits="objectBoundingBox">
      <stop offset="0" stop-color="#ededed"/>
      <stop offset="1" stop-color="#fff"/>
    </linearGradient>
    <clipPath id="clip-path-2">
      <rect id="Rectangle_2166" data-name="Rectangle 2166" width="65.4" height="41.562" fill="none"/>
    </clipPath>
    <clipPath id="clip-path-3">
      <rect id="Rectangle_2167" data-name="Rectangle 2167" width="21.685" height="18.78" fill="none"/>
    </clipPath>
    <clipPath id="clip-path-4">
      <rect id="Rectangle_2173" data-name="Rectangle 2173" width="16.786" height="9.221" fill="none"/>
    </clipPath>
  </defs>
  <g id="Mask_Group_6" data-name="Mask Group 6" transform="translate(-12571 19205)" clip-path="url(#clip-path)">
    <g id="Group_3643" data-name="Group 3643" transform="translate(12206.675 -19153.914)">
      <path id="Path_2258" data-name="Path 2258" d="M1.4,103.006c-5.557-31.978,5.585-67.316,31.19-87.35s65.377-21.524,90.175-.506c17.435,14.778,25.6,37.341,35.983,57.676s26.129,40.927,48.74,44.436c19.507,3.027,39.121-7.612,58.7-5.057,19.11,2.494,35.114,18.079,40.612,36.5s1.394,38.872-8.472,55.382-25.034,29.368-41.646,39.108c-53.443,31.344-124.363,30.324-176.878-2.543S-4.475,144.54.594,82.918" transform="translate(753.031 332.116) rotate(135)" opacity="0.5" fill="url(#linear-gradient)"/>
      <g id="Group_3642" data-name="Group 3642" transform="translate(364.325 235.335)">
        <path id="Path_3153" data-name="Path 3153" d="M304.613,35.792a11.386,11.386,0,0,1,3.919,0,11.386,11.386,0,0,1-3.919,0" transform="translate(-112.368 -12.356)" fill="#e0e0e0"/>
        <path id="Path_3154" data-name="Path 3154" d="M283.921,35.792a33.686,33.686,0,0,1,6.757,0,33.686,33.686,0,0,1-6.757,0" transform="translate(-105.303 -12.356)" fill="#e0e0e0"/>
        <path id="Path_3155" data-name="Path 3155" d="M263.23,35.792a33.69,33.69,0,0,1,6.758,0,33.69,33.69,0,0,1-6.758,0" transform="translate(-98.249 -12.356)" fill="#e0e0e0"/>
        <path id="Path_3156" data-name="Path 3156" d="M246.795,39.7a22.7,22.7,0,0,1-.17-3.919c.34-.34.095-.094.171-.17h.4l.389,0,.735.01,1.246.037a3.924,3.924,0,0,1,1.147.12,3.925,3.925,0,0,1-1.147.12l-1.246.037-.735.01-.389,0h-.4c.076-.076-.171.17.169-.17a22.705,22.705,0,0,1-.17,3.919" transform="translate(-92.596 -12.347)" fill="#e0e0e0"/>
        <path id="Path_3157" data-name="Path 3157" d="M246.795,61.108a21.337,21.337,0,0,1-.17-3.8,21.341,21.341,0,0,1,.17-3.8,21.329,21.329,0,0,1,.17,3.8,21.329,21.329,0,0,1-.17,3.8" transform="translate(-92.608 -18.561)" fill="#e0e0e0"/>
        <path id="Path_3158" data-name="Path 3158" d="M246.795,80.691a5.787,5.787,0,0,1-.17-1.959,5.788,5.788,0,0,1,.17-1.959,5.787,5.787,0,0,1,.17,1.959,5.787,5.787,0,0,1-.17,1.959" transform="translate(-92.608 -26.63)" fill="#e0e0e0"/>
        <path id="Path_3159" data-name="Path 3159" d="M547.14,122.71a45.292,45.292,0,0,1-7.838,0,45.287,45.287,0,0,1,7.838,0" transform="translate(-192.36 -42.505)" fill="#e0e0e0"/>
        <path id="Path_3160" data-name="Path 3160" d="M571.139,122.71a45.292,45.292,0,0,1-7.838,0,45.288,45.288,0,0,1,7.838,0" transform="translate(-199.836 -42.505)" fill="#e0e0e0"/>
        <path id="Path_3161" data-name="Path 3161" d="M595.14,122.71a45.292,45.292,0,0,1-7.838,0,45.288,45.288,0,0,1,7.838,0" transform="translate(-208.161 -42.505)" fill="#e0e0e0"/>
        <path id="Path_3162" data-name="Path 3162" d="M619.14,122.71a45.293,45.293,0,0,1-7.838,0,45.289,45.289,0,0,1,7.838,0" transform="translate(-216.486 -42.505)" fill="#e0e0e0"/>
        <path id="Path_3163" data-name="Path 3163" d="M643.14,122.71a45.293,45.293,0,0,1-7.838,0,45.289,45.289,0,0,1,7.838,0" transform="translate(-224.811 -42.505)" fill="#e0e0e0"/>
        <path id="Path_3164" data-name="Path 3164" d="M666.837,123.013c-.023,0-.046-.108-.066-.3l.066.066c-.591.061-1.987.1-3.615.1a22.729,22.729,0,0,1-3.919-.17,22.752,22.752,0,0,1,3.919-.17c1.628,0,3.025.041,3.615.1h.013a.058.058,0,0,1,.052.064c-.02.2-.041.3-.065.3" transform="translate(-233.136 -42.505)" fill="#e0e0e0"/>
        <path id="Path_3165" data-name="Path 3165" d="M670.748,143.1a22.712,22.712,0,0,1-.17-3.919,22.713,22.713,0,0,1,.17-3.919,22.7,22.7,0,0,1,.17,3.919,22.7,22.7,0,0,1-.17,3.919" transform="translate(-237.046 -46.917)" fill="#e0e0e0"/>
        <path id="Path_3166" data-name="Path 3166" d="M670.748,167.1a22.712,22.712,0,0,1-.17-3.919,22.712,22.712,0,0,1,.17-3.919,22.7,22.7,0,0,1,.17,3.919,22.7,22.7,0,0,1-.17,3.919" transform="translate(-237.046 -55.242)" fill="#e0e0e0"/>
        <path id="Path_3167" data-name="Path 3167" d="M670.748,191.1a22.712,22.712,0,0,1-.17-3.919,22.712,22.712,0,0,1,.17-3.919,22.7,22.7,0,0,1,.17,3.919,22.7,22.7,0,0,1-.17,3.919" transform="translate(-237.046 -63.567)" fill="#e0e0e0"/>
        <path id="Path_3172" data-name="Path 3172" d="M610.073,95.617l1.589,25.753A1.739,1.739,0,0,0,613.4,123h46.363a1.74,1.74,0,0,0,1.74-1.739V101.208a1.739,1.739,0,0,0-1.751-1.739l-28.513.183a1.742,1.742,0,0,1-1.232-.5l-4.955-4.881a1.739,1.739,0,0,0-1.221-.5H611.81a1.739,1.739,0,0,0-1.736,1.846" transform="translate(-216.06 -32.525)" fill="#ebebeb"/>
        <rect id="Rectangle_2151" data-name="Rectangle 2151" width="50.657" height="30.271" transform="translate(394.784 63.901)" fill="#f5f5f5"/>
        <path id="Path_3173" data-name="Path 3173" d="M605.078,101.327l3.866,31.566a1.118,1.118,0,0,0,1.111.983h49.37a1.119,1.119,0,0,0,1.115-1.031l2.486-31.566a1.119,1.119,0,0,0-1.115-1.206H606.189a1.118,1.118,0,0,0-1.111,1.254" transform="translate(-214.324 -34.711)" fill="#ebebeb"/>
        <path id="Path_3174" data-name="Path 3174" d="M37.965,50.949A12.159,12.159,0,0,0,45.211,39.7c.028-6.717-5.056-12.187-11.355-12.216S22.43,32.875,22.4,39.593a12.145,12.145,0,0,0,7.267,11.355C12.118,53.593,12.914,72.666,12.914,72.666l41.5.191s.946-19.282-16.452-21.91" transform="translate(-12.909 -9.532)" fill="#ebebeb"/>
        <path id="Path_3175" data-name="Path 3175" d="M570.033,29.947a9.026,9.026,0,0,0,5.379-8.35,8.484,8.484,0,1,0-16.932-.078,9.013,9.013,0,0,0,5.4,8.429c-13.028,1.963-12.437,16.123-12.437,16.123l30.807.142s.7-14.313-12.213-16.264" transform="translate(-195.72 -4.347)" fill="#f5f5f5"/>
        <path id="Path_3176" data-name="Path 3176" d="M136.994,25.876a5.738,5.738,0,0,0,3.419-5.308,5.393,5.393,0,1,0-10.763-.049,5.73,5.73,0,0,0,3.43,5.357c-8.282,1.247-7.906,10.248-7.906,10.248l19.583.091s.447-9.1-7.763-10.339" transform="translate(-51.162 -5.135)" fill="#f5f5f5"/>
        <path id="Path_3186" data-name="Path 3186" d="M340.667,216.443a5.7,5.7,0,0,1-.146-1.283,10.506,10.506,0,0,0-.172-1.54,15.213,15.213,0,0,0-.4-2.07,19.4,19.4,0,0,0-2.15-5.324,19.943,19.943,0,0,0-4.951-5.7,19.729,19.729,0,0,0-18.6-3.2,18.486,18.486,0,0,0-5.03,2.566,17.983,17.983,0,0,0-4.246,4.076,19.572,19.572,0,0,0-.564,23.2,17.965,17.965,0,0,0,4.043,4.278,18.476,18.476,0,0,0,4.9,2.81,19.88,19.88,0,0,0,23.952-7.746,19.413,19.413,0,0,0,2.4-5.214,15.15,15.15,0,0,0,.5-2.048,10.456,10.456,0,0,0,.247-1.53,5.694,5.694,0,0,1,.206-1.275,5.648,5.648,0,0,1,.015,1.293,8.991,8.991,0,0,1-.144,1.563,13.969,13.969,0,0,1-.413,2.109,19,19,0,0,1-2.3,5.429,20.451,20.451,0,0,1-24.849,8.368,19.4,19.4,0,0,1-5.177-2.919,18.93,18.93,0,0,1-4.283-4.492,20.565,20.565,0,0,1,.6-24.486,18.944,18.944,0,0,1,4.5-4.278,19.4,19.4,0,0,1,5.314-2.668,20.453,20.453,0,0,1,24.412,9.565,18.961,18.961,0,0,1,2.03,5.534,13.956,13.956,0,0,1,.311,2.126,8.986,8.986,0,0,1,.067,1.57,5.641,5.641,0,0,1-.078,1.291" transform="translate(-110.558 -67.745)" fill="#ebebeb"/>
        <path id="Path_3187" data-name="Path 3187" d="M339.394,207.954c.044.063-.32.379-1.022.9l-1.3.932c-.258.176-.527.375-.826.563l-.993.519a22.775,22.775,0,0,1-11.861,2.987l-1.8-.082-1.723-.269c-.281-.048-.563-.086-.837-.141l-.8-.214c-.529-.146-1.052-.271-1.551-.43a25.978,25.978,0,0,1-5.032-2.319c-2.7-1.635-4.019-3.122-3.918-3.217.109-.123,1.579,1.12,4.3,2.534a30.347,30.347,0,0,0,4.953,2.027c.482.14.987.247,1.5.377l.773.192.8.121,1.645.242,1.711.069a24.555,24.555,0,0,0,11.485-2.579l1.005-.436c.306-.16.584-.332.852-.48.511-.281.968-.535,1.377-.758.765-.406,1.213-.6,1.258-.54" transform="translate(-113.314 -71.86)" fill="#ebebeb"/>
        <path id="Path_3188" data-name="Path 3188" d="M306.795,242.792c-.044-.062.319-.379,1.022-.9l1.3-.931c.258-.176.527-.376.826-.563l.994-.519a22.771,22.771,0,0,1,11.86-2.987l1.8.082,1.723.269c.281.048.563.086.837.14l.8.214c.529.147,1.052.272,1.551.431a26,26,0,0,1,5.032,2.319c2.7,1.635,4.019,3.122,3.918,3.217-.109.123-1.579-1.12-4.3-2.534A30.345,30.345,0,0,0,329.2,239c-.483-.14-.987-.247-1.5-.377l-.773-.192-.8-.121-1.645-.242L322.772,238a24.56,24.56,0,0,0-11.485,2.579l-1,.436c-.306.16-.584.332-.852.48l-1.377.759c-.765.405-1.213.6-1.258.54" transform="translate(-112.995 -82.168)" fill="#ebebeb"/>
        <path id="Path_3189" data-name="Path 3189" d="M340.95,227.732c-.007.306-9.045.335-20.182.065s-20.165-.738-20.157-1.044,9.043-.335,20.184-.065,20.163.738,20.154,1.044" transform="translate(-110.851 -78.564)" fill="#ebebeb"/>
        <path id="Path_3190" data-name="Path 3190" d="M329.934,236.354c-.306-.007-.335-9.041-.065-20.176s.738-20.158,1.044-20.151.336,9.039.065,20.178-.738,20.154-1.044,20.149" transform="translate(-120.927 -67.994)" fill="#ebebeb"/>
        <path id="Path_3191" data-name="Path 3191" d="M324.735,236.319c-.076.118-2.3-1.39-4.864-4.8a27.162,27.162,0,0,1-3.605-6.547,24.317,24.317,0,0,1-1.563-9.039,23.137,23.137,0,0,1,2.036-8.948,28.081,28.081,0,0,1,3.94-6.345c2.717-3.283,4.958-4.738,5.033-4.621.109.126-1.921,1.777-4.415,5.1a30.206,30.206,0,0,0-3.619,6.268,23.259,23.259,0,0,0-1.865,8.563,24.559,24.559,0,0,0,1.412,8.667,29.1,29.1,0,0,0,3.285,6.444c2.335,3.439,4.336,5.133,4.224,5.255" transform="translate(-115.776 -67.989)" fill="#ebebeb"/>
        <path id="Path_3192" data-name="Path 3192" d="M331.736,196.033c.076-.117,2.3,1.39,4.864,4.8a27.163,27.163,0,0,1,3.606,6.547,24.32,24.32,0,0,1,1.563,9.039,23.132,23.132,0,0,1-2.036,8.948,28.047,28.047,0,0,1-3.942,6.345c-2.717,3.283-4.958,4.738-5.033,4.621-.109-.126,1.921-1.777,4.415-5.1a30.218,30.218,0,0,0,3.62-6.268,23.244,23.244,0,0,0,1.865-8.563,24.558,24.558,0,0,0-1.412-8.667,29.106,29.106,0,0,0-3.285-6.444c-2.335-3.439-4.336-5.133-4.224-5.255" transform="translate(-121.25 -67.994)" fill="#ebebeb"/>
        <rect id="Rectangle_2164" data-name="Rectangle 2164" width="148.625" height="108.658" transform="translate(197.318 12.618)" fill="#fff"/>
        <path id="Path_3253" data-name="Path 3253" d="M459.541,127.886c0-1.144-.055-42.817-.139-108.658l.139.139L310.928,19.4h-.012l.17-.17c-.006,38.985-.011,75.941-.016,108.658l-.154-.154,148.625.154-148.625.154h-.154v-.154c-.005-32.716-.01-69.672-.016-108.658v-.17h.183l148.613.031h.139v.139c-.082,65.841-.136,107.516-.138,108.658" transform="translate(-113.597 -6.611)" fill="#263238"/>
        <path id="Path_3254" data-name="Path 3254" d="M460.576,43.441c0,.094-33.2.17-74.146.17-40.96,0-74.153-.076-74.153-.17s33.193-.17,74.153-.17c40.945,0,74.146.076,74.146.17" transform="translate(-114.121 -15.009)" fill="#e0e0e0"/>
        <path id="Path_3255" data-name="Path 3255" d="M323.221,29.722a2.238,2.238,0,1,1-2.238-2.238,2.238,2.238,0,0,1,2.238,2.238" transform="translate(-117.185 -9.532)" fill="#e0e0e0"/>
        <path id="Path_3256" data-name="Path 3256" d="M333.546,29.722a2.238,2.238,0,1,1-2.238-2.238,2.238,2.238,0,0,1,2.238,2.238" transform="translate(-120.705 -9.532)" fill="#e0e0e0"/>
        <path id="Path_3257" data-name="Path 3257" d="M343.871,29.722a2.238,2.238,0,1,1-2.238-2.238,2.238,2.238,0,0,1,2.238,2.238" transform="translate(-124.225 -9.532)" fill="#e0e0e0"/>
        <path id="Path_3258" data-name="Path 3258" d="M323.279,84.569l.937-.6a3.528,3.528,0,0,1,4.986,1.286c1.509,2.746,3.38,6.583,3.38,6.583l-3.959,6.27-1.329.041c-1.44.918-4.807-.937-7.085-2.319s-1.156-2.775-1.156-2.775c-1.428-1.967.541-2.778.541-2.778a2.118,2.118,0,0,1,.578-3" transform="translate(-117.073 -28.937)" fill="#f5ccb0"/>
        <rect id="Rectangle_2165" data-name="Rectangle 2165" width="29.156" height="40.826" transform="translate(175.446 41.298) rotate(-10.849)" fill="#fff"/>
        <path id="Path_3259" data-name="Path 3259" d="M286.522,100.306a1.3,1.3,0,0,1-.044-.18l-.114-.551c-.1-.5-.247-1.227-.433-2.163l-1.614-8.2-5.63-28.972-.029-.151.152-.029,28.627-5.5h0l.167-.032.031.167c2.865,15.013,5.515,28.9,7.653,40.1l.026.136-.135.026-20.894,3.93-5.758,1.069-1.5.272c-.338.06-.505.082-.505.082s.184-.045.529-.116l1.522-.308,5.776-1.143,20.783-4.056-.109.161c-2.155-11.2-4.827-25.08-7.716-40.09l.2.134h0l-28.635,5.47.123-.181c2.235,11.828,4.126,21.836,5.46,28.9.658,3.531,1.18,6.325,1.54,8.252l.4,2.2c.041.242.076.43.1.571a1.68,1.68,0,0,1,.029.2" transform="translate(-103.393 -18.912)" fill="#263238"/>
        <path id="Path_3260" data-name="Path 3260" d="M286.252,75.135c-.018-.092,4.709-1.076,10.557-2.2s10.6-1.955,10.621-1.863-4.706,1.075-10.557,2.2-10.6,1.954-10.621,1.862" transform="translate(-106.042 -24.651)" fill="#263238"/>
        <path id="Path_3261" data-name="Path 3261" d="M287.082,79.47c-.018-.092,4.709-1.076,10.557-2.2s10.6-1.954,10.621-1.862-4.708,1.076-10.557,2.2-10.6,1.954-10.621,1.862" transform="translate(-106.325 -26.154)" fill="#263238"/>
        <path id="Path_3262" data-name="Path 3262" d="M287.913,83.805c-.018-.092,4.709-1.076,10.557-2.2s10.6-1.954,10.621-1.862-4.708,1.076-10.557,2.2-10.6,1.954-10.621,1.862" transform="translate(-106.608 -27.659)" fill="#263238"/>
        <path id="Path_3263" data-name="Path 3263" d="M288.743,88.14c-.018-.092,4.709-1.076,10.557-2.2s10.6-1.954,10.621-1.862-4.708,1.076-10.557,2.2-10.6,1.954-10.621,1.862" transform="translate(-106.891 -29.162)" fill="#263238"/>
        <path id="Path_3264" data-name="Path 3264" d="M289.574,92.475c-.018-.092,4.709-1.076,10.557-2.2s10.6-1.954,10.621-1.862-4.708,1.076-10.557,2.2-10.6,1.954-10.621,1.862" transform="translate(-107.174 -30.666)" fill="#263238"/>
        <path id="Path_3265" data-name="Path 3265" d="M290.405,96.81c-.018-.092,4.709-1.076,10.557-2.2s10.6-1.954,10.621-1.862-4.708,1.076-10.557,2.2-10.6,1.954-10.621,1.862" transform="translate(-107.457 -32.17)" fill="#263238"/>
        <path id="Path_3266" data-name="Path 3266" d="M291.237,101.145c-.018-.092,4.709-1.076,10.557-2.2s10.6-1.954,10.621-1.862-4.707,1.076-10.557,2.2-10.6,1.954-10.62,1.862" transform="translate(-107.741 -33.673)" fill="#263238"/>
        <path id="Path_3267" data-name="Path 3267" d="M292.066,105.481c-.018-.092,4.709-1.076,10.557-2.2s10.6-1.955,10.621-1.863-4.708,1.076-10.557,2.2-10.6,1.954-10.621,1.862" transform="translate(-108.023 -35.177)" fill="#263238"/>
        <path id="Path_3268" data-name="Path 3268" d="M292.9,109.814c-.018-.092,4.709-1.076,10.557-2.2s10.6-1.955,10.621-1.863-4.708,1.076-10.557,2.2-10.6,1.954-10.621,1.862" transform="translate(-108.307 -36.68)" fill="#263238"/>
        <path id="Path_3269" data-name="Path 3269" d="M315.013,56.629a3.114,3.114,0,0,1,.206.713l.433,1.969.136.654a1.606,1.606,0,0,1-3.152.612c-.03-.153-.061-.308-.091-.464q-.09-.465-.182-.944l-.353-1.862q-.082-.452-.164-.886a3.249,3.249,0,0,1-.09-.9,2.108,2.108,0,0,1,2.152-1.949,2.039,2.039,0,0,1,1.732,1.041,1.7,1.7,0,0,1,.192.526c.02.127.023.192.011.195a5.584,5.584,0,0,0-.317-.652,1.933,1.933,0,0,0-1.621-.87,1.9,1.9,0,0,0-1.193.445,1.847,1.847,0,0,0-.643,1.286,2.96,2.96,0,0,0,.1.813q.082.435.174.885.174.9.36,1.861l.18.946.088.46a1.331,1.331,0,0,0,.143.383,1.3,1.3,0,0,0,1.326.642,1.319,1.319,0,0,0,1.044-.876,1.357,1.357,0,0,0,.051-.647c-.041-.227-.078-.446-.114-.658l-.327-1.989a3.139,3.139,0,0,1-.077-.737" transform="translate(-114.806 -18.581)" fill="#263238"/>
        <path id="Path_3270" data-name="Path 3270" d="M325.151,83.434c-.215.021-8.7,1.338-8.7,1.338-.15.781.308,1.887,2.306,1.919,1.892.03,3.6-.128,3.6-.128s2.1,4.377,4.162,4.863,1.05-4.2,1.05-4.2Z" transform="translate(-116.366 -28.939)" fill="#f5ccb0"/>
        <path id="Path_3271" data-name="Path 3271" d="M452.667,28.126a15.3,15.3,0,0,0,1.551-5.352,5.106,5.106,0,0,0-2.314-4.749c-1.494-.785-3.328-.417-4.914-.981-1.955-.7-3.19-2.667-4.058-4.6s.339-2.643-1.128-4.147c-1.946-1.995-3.212-2.282-5.676-1.063-1.773-1.256-7.928-3.53-9.7-3.585-2.632-.082-5.633.129-7.472,2.015-1.426,1.465-2.333,3.328-4.084,4.383-2.409,1.451-5.481.217-8.292.32a1.6,1.6,0,0,0-1.477.69,1.737,1.737,0,0,0,.227,1.421l2.172,4.533a4.319,4.319,0,0,1-3.761-.091,12.778,12.778,0,0,0,3.339,8.04,1.085,1.085,0,0,0-1.5.57,2.72,2.72,0,0,0,.025,1.8,13.152,13.152,0,0,0,17.864,8.665l15.492,1.167a3.956,3.956,0,0,0,2.671,2.482c1.735-1.284,2.013-2.005,2.013-2.005,1.069.794.229.394,1.069.794,1.921.916,4.762-.171,5.2-2.311a4.529,4.529,0,0,1,1.028-2.363A7.977,7.977,0,0,1,453.2,32.5a6.37,6.37,0,0,0,2.838-2.906,4.6,4.6,0,0,1-3.373-1.467" transform="translate(-145.882 -1.259)" fill="#263238"/>
        <path id="Path_3272" data-name="Path 3272" d="M447.062,22.8l.4,31.979c.068,5.439-.944,13.441-9.547,13.156-7.445-.811-9.419-7.858-9.479-12.934-.028-2.407-.056-4.415-.074-4.662,0,0-8.151-.665-8.838-8.715-.332-3.89-.364-11.959-.31-19.259A15.049,15.049,0,0,1,433.169,7.475l.777-.057c8.419-.123,13.226,6.959,13.116,15.378" transform="translate(-151.294 -2.573)" fill="#f5ccb0"/>
        <path id="Path_3273" data-name="Path 3273" d="M433.229,71.076a19.525,19.525,0,0,0,10.265-3.866s-2.13,6.072-10.223,5.934Z" transform="translate(-156.185 -23.313)" fill="#eaae94"/>
        <path id="Path_3274" data-name="Path 3274" d="M440.286,34.594c.16.165,1.09-.585,2.438-.622,1.347-.056,2.356.626,2.5.452.07-.077-.1-.375-.535-.683a3.373,3.373,0,0,0-2.005-.569,3.253,3.253,0,0,0-1.935.7c-.406.338-.538.645-.459.718" transform="translate(-158.615 -11.505)" fill="#263238"/>
        <path id="Path_3275" data-name="Path 3275" d="M439.922,39.377a1.092,1.092,0,0,0,1.13,1.022,1.044,1.044,0,0,0,1.05-1.063,1.092,1.092,0,0,0-1.13-1.022,1.045,1.045,0,0,0-1.051,1.064" transform="translate(-158.514 -13.289)" fill="#263238"/>
        <path id="Path_3276" data-name="Path 3276" d="M433.428,44.214A8.255,8.255,0,0,0,431.39,44c-.318-.009-.622-.05-.691-.262a1.614,1.614,0,0,1,.142-.953l.76-2.476a41.455,41.455,0,0,0,1.64-6.451,41.561,41.561,0,0,0-2.155,6.3q-.377,1.3-.719,2.487a1.837,1.837,0,0,0-.073,1.253.794.794,0,0,0,.553.424,2.162,2.162,0,0,0,.543.036,8.069,8.069,0,0,0,2.038-.146" transform="translate(-155.206 -11.743)" fill="#263238"/>
        <path id="Path_3277" data-name="Path 3277" d="M441.169,27.047c.13.3,1.21.074,2.5.14,1.294.041,2.356.351,2.505.064.067-.138-.134-.413-.576-.68a4.083,4.083,0,0,0-1.892-.535,4.036,4.036,0,0,0-1.923.378c-.457.23-.675.489-.617.631" transform="translate(-158.919 -9.027)" fill="#263238"/>
        <path id="Path_3278" data-name="Path 3278" d="M421.552,30.852c.142.243,1.193-.027,2.468-.066,1.275-.063,2.334.123,2.468-.131.059-.123-.151-.34-.6-.535a4.445,4.445,0,0,0-1.886-.311,4.6,4.6,0,0,0-1.876.462c-.438.229-.643.464-.58.581" transform="translate(-152.228 -10.335)" fill="#263238"/>
        <path id="Path_3279" data-name="Path 3279" d="M461.524,39.96c.133-.069,5.417-2.042,5.643,3.48s-5.365,4.61-5.38,4.452-.263-7.932-.263-7.932" transform="translate(-165.859 -13.722)" fill="#f5ccb0"/>
        <path id="Path_3280" data-name="Path 3280" d="M464.376,46.664c.023-.019.1.063.265.131a.961.961,0,0,0,.72-.015,2.377,2.377,0,0,0,1.013-2.18,3.181,3.181,0,0,0-.325-1.366,1.114,1.114,0,0,0-.754-.709.49.49,0,0,0-.557.288c-.068.158-.028.266-.057.277s-.123-.088-.088-.318a.617.617,0,0,1,.2-.355.725.725,0,0,1,.526-.162,1.353,1.353,0,0,1,1.04.814,3.268,3.268,0,0,1,.4,1.526,2.5,2.5,0,0,1-1.306,2.442,1.028,1.028,0,0,1-.885-.11c-.176-.129-.21-.252-.192-.262" transform="translate(-166.849 -14.655)" fill="#eaae94"/>
        <path id="Path_3281" data-name="Path 3281" d="M437.116,53.68c-.06-.14,1.022-.464,1.782-1.478a6.2,6.2,0,0,0,.764-1.442c.161-.4.283-.652.343-.634s.041.288-.047.725a4.075,4.075,0,0,1-.711,1.615,3.3,3.3,0,0,1-1.411,1.08c-.421.17-.707.181-.721.134" transform="translate(-157.552 -17.385)" fill="#263238"/>
        <path id="Path_3282" data-name="Path 3282" d="M451.346,17.3c-1.152-1.948-1.419-4.271-2.047-6.444s-1.839-4.424-3.97-5.182l-.048.021a5.8,5.8,0,0,0-5.841.548c-.39-2.87-2.9-5.141-5.706-5.878a18.691,18.691,0,0,0-9.982.784c-2.077.836-4.084,2.55-6.525,5.064a27.122,27.122,0,0,0-2.817,3.414l-2.435,7.522a3.18,3.18,0,0,0-.684.688,1.416,1.416,0,0,0,2.069,1.894l.022-.02a13.805,13.805,0,0,1,.637,1.29v.01l.041.082a8.69,8.69,0,0,0,.411.8v-.018l1.885,8.313c.119-2.267-.046-10.152.073-12.419a12.642,12.642,0,0,0,9.008-4.16c1.238-1.372,2.211-3.089,3.866-3.907,2.136-1.056,4.68-.288,6.931.494l-.1-.086a10.111,10.111,0,0,1,3.119,2.251,31.416,31.416,0,0,0,1.361,13.3c.211.643.788,1.966,1.419,2.211,1.24.479,1.573-.784,2.32-1.454a3.283,3.283,0,0,1,2.255-.555,49.286,49.286,0,0,0,1.515-5.73,5.042,5.042,0,0,0,2.319.155l-.714-1.707a2.641,2.641,0,0,0,.993.45.9.9,0,0,0,.941-.411c.21-.423-.076-.912-.317-1.319" transform="translate(-148.434 0.001)" fill="#263238"/>
        <path id="Path_3283" data-name="Path 3283" d="M450.643,10.97a6.893,6.893,0,0,1,.808.74,5.775,5.775,0,0,1,1.234,2.673,10.133,10.133,0,0,1,.206,2.046c0,.74-.056,1.535-.113,2.373a21.229,21.229,0,0,0-.06,2.641,9.212,9.212,0,0,0,.181,1.393,2.9,2.9,0,0,0,.568,1.351,1.214,1.214,0,0,0,1.136.382,1.808,1.808,0,0,0,1.022-.576,4.174,4.174,0,0,0,.777-2.047l-.169.02a6.762,6.762,0,0,0,.98,1.686,2.4,2.4,0,0,0,1.566.853,1.546,1.546,0,0,0,.831-.146,1.34,1.34,0,0,0,.563-.555,1.38,1.38,0,0,0,.171-.714,1,1,0,0,0-.259-.626L460,22.54a5.2,5.2,0,0,0,1.73,1.3,4.643,4.643,0,0,0,.535.206.865.865,0,0,0,.192.048.979.979,0,0,0-.181-.077c-.12-.049-.3-.121-.52-.234a5.366,5.366,0,0,1-1.669-1.316l-.086.076a1.033,1.033,0,0,1,.053,1.2,1.2,1.2,0,0,1-.51.494,1.4,1.4,0,0,1-.752.123,2.249,2.249,0,0,1-1.454-.811,6.632,6.632,0,0,1-.943-1.651l-.116-.258-.053.278a4.046,4.046,0,0,1-.74,1.957,1.629,1.629,0,0,1-.916.517,1.026,1.026,0,0,1-.966-.324,2.744,2.744,0,0,1-.524-1.264,9.106,9.106,0,0,1-.18-1.365,21.617,21.617,0,0,1,.049-2.618c.052-.837.107-1.634.1-2.386a10.093,10.093,0,0,0-.232-2.074,5.693,5.693,0,0,0-1.312-2.694,3.263,3.263,0,0,0-.864-.69" transform="translate(-162.105 -3.805)" fill="#455a64"/>
        <path id="Path_3284" data-name="Path 3284" d="M412.51,16.4a.379.379,0,0,0,.065.055l.2.147a2.75,2.75,0,0,0,.341.219,4.443,4.443,0,0,0,.49.258,7.149,7.149,0,0,0,3.447.62,9.121,9.121,0,0,0,4.86-1.795,15.8,15.8,0,0,0,4.176-4.812c.586-.975,1.063-1.974,1.589-2.9a10.706,10.706,0,0,1,1.8-2.452A5.505,5.505,0,0,1,431.8,4.332a3.937,3.937,0,0,1,1.224-.141,4.3,4.3,0,0,1,1.12.216A4.656,4.656,0,0,1,436.731,6.6a5.612,5.612,0,0,1,.416,1.208.327.327,0,0,0-.007-.082c-.01-.067-.023-.148-.039-.247a4.005,4.005,0,0,0-.306-.909,4.582,4.582,0,0,0-.9-1.226,4.721,4.721,0,0,0-1.709-1.06,4.424,4.424,0,0,0-1.155-.234,4.08,4.08,0,0,0-1.273.135,5.629,5.629,0,0,0-2.4,1.434A10.764,10.764,0,0,0,427.519,8.1c-.535.93-1.011,1.927-1.591,2.893a15.8,15.8,0,0,1-4.116,4.769,9.072,9.072,0,0,1-4.767,1.8,7.241,7.241,0,0,1-3.408-.554,11.241,11.241,0,0,1-1.127-.611" transform="translate(-149.041 -1.399)" fill="#455a64"/>
        <path id="Path_3285" data-name="Path 3285" d="M411.388,17.547a1.254,1.254,0,0,0,.288.2,6.253,6.253,0,0,0,.855.434,8.322,8.322,0,0,0,1.354.445,8.784,8.784,0,0,0,3.474.111,8.311,8.311,0,0,0,1.38-.357,6.293,6.293,0,0,0,.881-.378,1.31,1.31,0,0,0,.3-.182c-.016-.032-.46.2-1.224.434a9.566,9.566,0,0,1-1.365.312,9.415,9.415,0,0,1-3.409-.109,9.561,9.561,0,0,1-1.342-.4c-.747-.288-1.176-.543-1.193-.512" transform="translate(-148.75 -6.085)" fill="#455a64"/>
        <path id="Path_3286" data-name="Path 3286" d="M421.459,35.372c.16.165,1.09-.585,2.439-.622,1.347-.056,2.356.626,2.5.452.07-.077-.1-.375-.535-.683a3.376,3.376,0,0,0-2.005-.569,3.255,3.255,0,0,0-1.935.7c-.405.338-.538.645-.459.718" transform="translate(-152.197 -11.775)" fill="#263238"/>
        <path id="Path_3287" data-name="Path 3287" d="M422.635,39.656a1.092,1.092,0,0,0,1.13,1.022,1.044,1.044,0,0,0,1.05-1.063,1.092,1.092,0,0,0-1.129-1.022,1.044,1.044,0,0,0-1.051,1.064" transform="translate(-152.619 -13.386)" fill="#263238"/>
        <path id="Path_3288" data-name="Path 3288" d="M385.44,85.432l-29.129,19.062L338.563,90.653l-5.53,8.756s10.335,11.957,14.164,16.019,6.383,6.23,9.4,5.841,28.24-10.186,28.24-10.186l3.825-26.739-1.6.387a5.177,5.177,0,0,0-1.618.7" transform="translate(-121.807 -29.255)" fill="#2b4591"/>
        <path id="Path_3289" data-name="Path 3289" d="M442.032,76.043c-6.517,4.1-13.085,5.636-19.737,2.985l-10,2.555-4.861,8.45a7.654,7.654,0,0,0-1,4.386l1.911,32.347-5.89,20.546,57.683.5L457.3,132.546l-7.153-54.852Z" transform="translate(-145.41 -26.376)" fill="#2b4591"/>
        <path id="Path_3290" data-name="Path 3290" d="M478.06,105.556l-4.273-27.219s13.577,1.259,18.07,10.838c3.786,8.072,15.15,31.537,16.268,34.859,3.282,9.748-2.756,23.973-23.9,23.2l-2.073-12.455,6.75-3.238.422-1.084-1.433-3.308Z" transform="translate(-169.843 -27.172)" fill="#2b4591"/>
        <path id="Path_3291" data-name="Path 3291" d="M493.156,147.829a5.812,5.812,0,0,0,.338.974c.232.593.579,1.4.976,2.286.388.864.74,1.643,1.019,2.265a7.329,7.329,0,0,0,.443.93,5.8,5.8,0,0,0-.338-.974c-.232-.593-.579-1.4-.976-2.287l-1.019-2.264a7.335,7.335,0,0,0-.443-.93" transform="translate(-176.663 -51.276)" fill="#263238"/>
        <path id="Path_3292" data-name="Path 3292" d="M481.605,114.264c.045,0,.082-1.57.082-3.506s-.037-3.506-.082-3.506-.082,1.57-.082,3.506.036,3.506.082,3.506" transform="translate(-172.711 -37.202)" fill="#263238"/>
        <path id="Path_3293" data-name="Path 3293" d="M484.71,97.154a2,2,0,0,0,.123-.391c.067-.254.175-.619.323-1.064a17.21,17.21,0,0,1,3.691-6.27c.318-.345.584-.617.774-.8a2,2,0,0,0,.281-.3,2.01,2.01,0,0,0-.324.252c-.206.169-.484.43-.815.767a15.488,15.488,0,0,0-3.716,6.315c-.134.452-.227.825-.275,1.085a1.956,1.956,0,0,0-.063.406" transform="translate(-173.768 -30.64)" fill="#263238"/>
        <path id="Path_3294" data-name="Path 3294" d="M410.894,99.493a3.717,3.717,0,0,1,.077.809c.032.522.041,1.278.026,2.212-.023,1.869-.217,4.442-.444,7.276s-.337,5.4-.288,7.26c.021.929.055,1.681.1,2.2a3.79,3.79,0,0,1,.021.811,3.7,3.7,0,0,1-.153-.8c-.082-.517-.153-1.271-.206-2.2a56.19,56.19,0,0,1,.19-7.295c.228-2.838.458-5.4.543-7.258.045-.93.074-1.682.082-2.2a3.755,3.755,0,0,1,.056-.811" transform="translate(-148.315 -34.51)" fill="#263238"/>
        <path id="Path_3295" data-name="Path 3295" d="M499.472,154.8a7.231,7.231,0,0,1-.929.522c-.6.321-1.47.8-2.52,1.428s-2.291,1.4-3.737,2.151c-.722.373-1.492.745-2.3,1.1l-2.526,1.044-.776.318.1-.184c.554,3.507,1.034,6.647,1.363,8.912.151,1.09.277,1.99.373,2.678a5.7,5.7,0,0,1,.091.985,5.729,5.729,0,0,1-.218-.965c-.123-.684-.283-1.579-.476-2.662-.39-2.256-.908-5.388-1.468-8.895l-.021-.132.126-.051.774-.318,2.522-1.035c.807-.346,1.573-.708,2.293-1.069,1.44-.726,2.689-1.481,3.76-2.08s1.957-1.054,2.581-1.34c.311-.146.558-.247.725-.315a.863.863,0,0,1,.263-.088" transform="translate(-174.301 -53.694)" fill="#263238"/>
        <path id="Path_3296" data-name="Path 3296" d="M506.168,148.3c.011.06-.684.191-1.742.584a13.238,13.238,0,0,0-6.661,5.493c-.587.963-.849,1.621-.9,1.6a1.431,1.431,0,0,1,.133-.481,8.343,8.343,0,0,1,.564-1.238,11.972,11.972,0,0,1,6.79-5.6,8.339,8.339,0,0,1,1.322-.318,1.427,1.427,0,0,1,.5-.039" transform="translate(-177.885 -51.44)" fill="#263238"/>
        <path id="Path_3297" data-name="Path 3297" d="M450.376,163.444l14.174-34.2a1.874,1.874,0,0,0-1.813-2.826h-2.85a1.825,1.825,0,0,1-2.032-1.642l-.094-1.257a1.827,1.827,0,0,0-2.034-1.642H442.175a4.742,4.742,0,0,0-3.138,1.389l-1.1,1.065a4.738,4.738,0,0,1-3.135,1.388H417.544a4.816,4.816,0,0,0-4.122,2.826l-14.051,34.894Z" transform="translate(-144.307 -42.275)" fill="#129fa1"/>
        <g id="Group_3629" data-name="Group 3629" transform="translate(255.065 79.607)" opacity="0.3">
          <g id="Group_3628" data-name="Group 3628">
            <g id="Group_3627" data-name="Group 3627" clip-path="url(#clip-path-2)">
              <path id="Path_3298" data-name="Path 3298" d="M450.376,163.444l14.174-34.2a1.874,1.874,0,0,0-1.813-2.826h-2.85a1.825,1.825,0,0,1-2.032-1.642l-.094-1.257a1.827,1.827,0,0,0-2.034-1.642H442.175a4.742,4.742,0,0,0-3.138,1.389l-1.1,1.065a4.738,4.738,0,0,1-3.135,1.388H417.544a4.816,4.816,0,0,0-4.122,2.826l-14.051,34.894Z" transform="translate(-399.372 -121.882)"/>
            </g>
          </g>
        </g>
        <path id="Path_3299" data-name="Path 3299" d="M455.557,155.317l5.347-20.668a2.087,2.087,0,0,0-1.78-2.726h-41.9a1.911,1.911,0,0,0-1.784,1.54l-7.782,31.106c-.342,1.366.206,2.185,1.446,2.17l42.159.013a1.913,1.913,0,0,0,1.761-1.527Z" transform="translate(-147.173 -45.761)" fill="#e0e0e0"/>
        <path id="Path_3300" data-name="Path 3300" d="M453.712,165.666l2.277-32.547A2,2,0,0,0,454,130.983H410.585v34.683Z" transform="translate(-148.257 -45.432)" fill="#ebebeb"/>
        <path id="Path_3301" data-name="Path 3301" d="M448.769,166.411,443.6,132.858a2.4,2.4,0,0,0-2.36-1.874H397.327a2.374,2.374,0,0,0-2.217,3.307L404.593,165Z" transform="translate(-142.876 -45.432)" fill="#fafafa"/>
        <path id="Path_3302" data-name="Path 3302" d="M445.044,167.647l-10.653-31.424a3.152,3.152,0,0,0-2.961-2.185H386.155a2.212,2.212,0,0,0-2.022,2.935l9.906,30.69Z" transform="translate(-139.109 -46.493)" fill="#129fa1"/>
        <g id="Group_3632" data-name="Group 3632" transform="translate(283.453 102.389)" opacity="0.3">
          <g id="Group_3631" data-name="Group 3631">
            <g id="Group_3630" data-name="Group 3630" clip-path="url(#clip-path-3)">
              <path id="Path_3303" data-name="Path 3303" d="M443.564,170.271s1.709.078,2.5.132a23.267,23.267,0,0,0,11-1.952,4.09,4.09,0,0,0,2.515-2.266,3.526,3.526,0,0,0-1.443-3.414,27.865,27.865,0,0,1-3.057-2.439c-.861-.983-1.268-2.573-.42-3.566l.234.171c.613,1.552,2.318,2.3,3.731,3.188a13.166,13.166,0,0,1,5.528,7.226,5.677,5.677,0,0,1-.357,4.911,6.114,6.114,0,0,1-2.977,1.962c-3.425,1.27-7.086,1.316-10.739,1.321-1.154,0-4.7-.047-4.7-.047-1.114-.3-1.481-.883-2.152-1.822a2.975,2.975,0,0,1,.335-3.407" transform="translate(-442.846 -156.764)"/>
            </g>
          </g>
        </g>
        <path id="Path_3304" data-name="Path 3304" d="M443.941,169.867l11.809-1.775,4.583-2.638a2.067,2.067,0,0,0,1.053-1.665q0-.02,0-.041a2.092,2.092,0,0,0-1.3-2c-1.454-.613-3.759-1.428-4.741-3.149-1.413-2.474,0-2.987,0-2.987l9.861,3.942,6.98,4.751,1.4,7.922-9.74,3.181S453,176.02,450,175.684s-2.995-1.731-2.995-1.731a2.806,2.806,0,0,1-1.68-2.082c-1.453-1.363-1.394-2.006-1.394-2.006" transform="translate(-159.712 -53.975)" fill="#f5ccb0"/>
        <path id="Path_3305" data-name="Path 3305" d="M460.466,182.661a2.359,2.359,0,0,0-.487.093c-.308.075-.758.174-1.313.285a27.776,27.776,0,0,1-8.813.343c-.563-.067-1.018-.131-1.331-.181a2.33,2.33,0,0,0-.494-.055,2.4,2.4,0,0,0,.478.131c.31.074.763.161,1.327.247a23.988,23.988,0,0,0,8.862-.345c.555-.129,1-.25,1.3-.349a2.359,2.359,0,0,0,.466-.169" transform="translate(-161.216 -63.359)" fill="#eaae94"/>
        <path id="Path_3306" data-name="Path 3306" d="M458.713,179.866a2.446,2.446,0,0,0-.494.094c-.313.076-.77.175-1.334.283a28.609,28.609,0,0,1-4.464.494,30.318,30.318,0,0,1-4.488-.206c-.571-.069-1.034-.134-1.352-.186a2.408,2.408,0,0,0-.5-.056,2.421,2.421,0,0,0,.485.133c.315.076.775.165,1.348.25a25.435,25.435,0,0,0,4.513.266,24.226,24.226,0,0,0,4.487-.555c.564-.127,1.018-.247,1.326-.347a2.418,2.418,0,0,0,.473-.17" transform="translate(-160.553 -62.389)" fill="#eaae94"/>
        <path id="Path_3347" data-name="Path 3347" d="M174.114,144.764a11,11,0,0,1,5.633,4.895c2.114,3.746,1.55,5.594,1,7.807s-1.527,6.605-1.582,6.322-5.048-19.025-5.048-19.025" transform="translate(-67.866 -50.212)" fill="#ffbe9d"/>
        <rect id="Rectangle_2172" data-name="Rectangle 2172" width="152.108" height="112.969" transform="translate(16.155 48.919)" fill="#fff"/>
        <path id="Path_3348" data-name="Path 3348" d="M189.662,187.777c0-1.152-.055-44.582-.139-112.969l.139.139-152.1.031h-.011l.17-.17c-.006,40.58-.012,79.027-.016,112.969l-.153-.153,152.108.153-152.108.154H37.4v-.154c0-33.941-.01-72.39-.016-112.969v-.17h.183l152.1.031h.139v.139c-.082,68.387-.138,111.819-.139,112.969" transform="translate(-21.399 -25.889)" fill="#263238"/>
        <path id="Path_3349" data-name="Path 3349" d="M190.157,98.987c0,.094-33.717.17-75.3.17s-75.3-.076-75.3-.17,33.709-.17,75.3-.17,75.3.076,75.3.17" transform="translate(-22.151 -34.276)" fill="#e0e0e0"/>
        <path id="Path_3350" data-name="Path 3350" d="M50.494,85.268a2.238,2.238,0,1,1-2.238-2.238,2.238,2.238,0,0,1,2.238,2.238" transform="translate(-24.392 -28.799)" fill="#e0e0e0"/>
        <path id="Path_3351" data-name="Path 3351" d="M60.823,85.268a2.238,2.238,0,1,1-2.238-2.238,2.238,2.238,0,0,1,2.238,2.238" transform="translate(-27.976 -28.799)" fill="#e0e0e0"/>
        <path id="Path_3352" data-name="Path 3352" d="M71.148,85.268A2.238,2.238,0,1,1,68.91,83.03a2.238,2.238,0,0,1,2.238,2.238" transform="translate(-31.557 -28.799)" fill="#e0e0e0"/>
        <path id="Path_3353" data-name="Path 3353" d="M148.521,66.066a7.505,7.505,0,0,0-3.155-4.6c-.781-.456-1.671-.7-2.466-1.134a30.671,30.671,0,0,1-2.649-1.923,9.443,9.443,0,0,0-13.8,3.491c-1.854-1.413-5.071-.816-7.265-.027s-4.031,3.406-4.558,5.676l10.3,3.114a27.507,27.507,0,0,0,7.033,5.791,14.291,14.291,0,0,0,8.814,1.781,9.72,9.72,0,0,0,7.255-4.989,10.144,10.144,0,0,0,.494-7.176" transform="translate(-48.191 -19.67)" fill="#263238"/>
        <path id="Path_3354" data-name="Path 3354" d="M167.119,106.632a6.162,6.162,0,0,0,1.3-8.467,5.564,5.564,0,0,1-1.5-2.374,4.655,4.655,0,0,1,.25-1.722,10.171,10.171,0,0,0-3.733-10.344c-.054-2.111-1.237-6.571-3.914-8.277L147.35,77.156q.83,19.214-.112,38.45c-.1,1.963-.168,4.076.9,5.722,1.522,2.334,4.7,2.819,7.484,2.89a22.1,22.1,0,0,0,7.9-.928,9.788,9.788,0,0,0,5.882-5.073c1.622-3.77-.051-8.144-2.288-11.587" transform="translate(-58.657 -26.17)" fill="#263238"/>
        <path id="Path_3355" data-name="Path 3355" d="M120.708,79.321l-.37-2.726,16.05-5.009c5-1.117,11.053,3.325,11.957,8.366,1,5.6,2.01,12.478,1.825,16.765-.37,8.618-6.734,10.442-6.734,10.442l.651,5.11a9.441,9.441,0,1,1-18.726,2.427Z" transform="translate(-49.497 -24.77)" fill="#d8ac9b"/>
        <path id="Path_3356" data-name="Path 3356" d="M160.4,93.722a1.091,1.091,0,0,1-.921,1.215,1.045,1.045,0,0,1-1.231-.85,1.093,1.093,0,0,1,.919-1.216,1.046,1.046,0,0,1,1.234.851" transform="translate(-62.465 -32.204)" fill="#263238"/>
        <path id="Path_3357" data-name="Path 3357" d="M158.831,89.816c-.118.157-1.011-.357-2.18-.22-1.169.12-1.957.82-2.1.692-.07-.056.038-.329.38-.642a2.992,2.992,0,0,1,1.661-.729,2.876,2.876,0,0,1,1.754.351c.391.234.542.476.483.547" transform="translate(-61.195 -30.834)" fill="#263238"/>
        <path id="Path_3358" data-name="Path 3358" d="M143.7,95.994a1.093,1.093,0,0,1-.921,1.215,1.045,1.045,0,0,1-1.231-.85,1.093,1.093,0,0,1,.92-1.216,1.046,1.046,0,0,1,1.234.851" transform="translate(-57.527 -32.992)" fill="#263238"/>
        <path id="Path_3359" data-name="Path 3359" d="M141.29,92.171c-.118.157-1.012-.357-2.18-.22-1.169.121-1.956.82-2.1.692-.069-.056.037-.329.381-.642a2.994,2.994,0,0,1,1.66-.73,2.879,2.879,0,0,1,1.754.351c.39.234.542.477.483.547" transform="translate(-55.947 -31.649)" fill="#263238"/>
        <path id="Path_3360" data-name="Path 3360" d="M150.706,100.043a7.806,7.806,0,0,1,1.859-.56c.294-.065.57-.157.6-.366a1.534,1.534,0,0,0-.3-.861l-1.143-2.17a39.217,39.217,0,0,1-2.665-5.713,39.255,39.255,0,0,1,3.118,5.486l1.108,2.187a1.741,1.741,0,0,1,.29,1.152.754.754,0,0,1-.441.494,2.013,2.013,0,0,1-.5.129,7.673,7.673,0,0,1-1.924.224" transform="translate(-59.324 -31.347)" fill="#263238"/>
        <path id="Path_3361" data-name="Path 3361" d="M149.347,125.271a22.555,22.555,0,0,1-11.975-1.7s3.541,5.6,12.212,3.815Z" transform="translate(-55.332 -42.86)" fill="#aa6550"/>
        <path id="Path_3362" data-name="Path 3362" d="M149.518,109.245a2.12,2.12,0,0,0-1.977-.565,1.933,1.933,0,0,0-1.245.864,1.225,1.225,0,0,0,.068,1.4,1.421,1.421,0,0,0,1.575.211,4.449,4.449,0,0,0,1.391-1.063,1.3,1.3,0,0,0,.294-.384.393.393,0,0,0-.051-.434" transform="translate(-58.324 -37.676)" fill="#aa6550"/>
        <path id="Path_3363" data-name="Path 3363" d="M146.4,107.021c.189-.033.337,1.234,1.526,2.01s2.523.481,2.553.658c.027.078-.272.281-.841.362a3.178,3.178,0,0,1-2.123-.476,2.766,2.766,0,0,1-1.2-1.694c-.109-.524,0-.855.082-.858" transform="translate(-58.379 -37.121)" fill="#263238"/>
        <path id="Path_3364" data-name="Path 3364" d="M140.429,85.262c-.079.331-1.263.314-2.614.638-1.357.3-2.416.823-2.632.56-.1-.127.061-.448.473-.807a4.674,4.674,0,0,1,4-.912c.526.145.809.365.777.522" transform="translate(-55.311 -29.353)" fill="#263238"/>
        <path id="Path_3365" data-name="Path 3365" d="M157.736,84.675c-.175.288-1.011.106-1.98.206-.972.064-1.769.384-1.987.128-.1-.123,0-.406.329-.7a2.881,2.881,0,0,1,3.2-.268c.373.233.517.494.441.633" transform="translate(-60.923 -29.024)" fill="#263238"/>
        <path id="Path_3366" data-name="Path 3366" d="M122.03,69.763c-1.664.546-3.544,5.087-3.056,6.768a5.154,5.154,0,0,0,3.753,3.332,9.739,9.739,0,0,0,5.177-.336c2.37-.72,4.869-2.352,5.038-4.823A9.629,9.629,0,0,0,142,77.193c3.174-.82,5.526-5.676,6.416-8.829Z" transform="translate(-49.008 -23.712)" fill="#263238"/>
        <path id="Path_3368" data-name="Path 3368" d="M162.058,90.582c-.039,0-.02-.428-.214-1.156a4.786,4.786,0,0,0-1.754-2.564,4.669,4.669,0,0,0-4.413-.641,4.645,4.645,0,0,0,0,8.72,4.665,4.665,0,0,0,4.412-.641,4.782,4.782,0,0,0,1.754-2.564c.195-.728.176-1.158.214-1.155a1.058,1.058,0,0,1,.019.308,3.764,3.764,0,0,1-.105.881,4.774,4.774,0,0,1-1.736,2.722,4.854,4.854,0,0,1-2.065.942,4.936,4.936,0,0,1-2.6-.2,4.939,4.939,0,1,1,4.664-8.565,4.771,4.771,0,0,1,1.737,2.722,3.763,3.763,0,0,1,.105.88,1.061,1.061,0,0,1-.019.308" transform="translate(-60.419 -29.7)" fill="#455a64"/>
        <path id="Path_3369" data-name="Path 3369" d="M147.734,91.693c-.041-.007-.047-.231.113-.544a1.765,1.765,0,0,1,2.379-.74c.31.165.431.353.4.383s-.2-.07-.5-.165a1.84,1.84,0,0,0-2.083.65c-.19.242-.267.429-.316.415" transform="translate(-58.872 -31.289)" fill="#455a64"/>
        <path id="Path_3370" data-name="Path 3370" d="M131.875,98.257a11.9,11.9,0,0,1-3.8,1.276,11.9,11.9,0,0,1,3.8-1.276" transform="translate(-52.854 -34.074)" fill="#455a64"/>
        <path id="Path_3371" data-name="Path 3371" d="M253.039,118.071a1.5,1.5,0,0,0,.823-2l-5.218,1.572a20.585,20.585,0,0,0,4.189-2.283c1.419-1.161.711-2.171.711-2.171l-5.377,2.076-3.039,1.79-7.609,11.617s5.948,2.908,7,2.07c1.851-1.474,2.861-4.766,3.274-6.439a22.569,22.569,0,0,0,3.729-1.338,3.51,3.51,0,0,0,1.117-1.261l-4.144.79c.6-.176,4.442-1.492,4.747-1.962.535-.826.2-1.193.2-1.193l-5.2.812.535-.391s2.914-1.161,4.267-1.686" transform="translate(-89.453 -39.259)" fill="#d8ac9b"/>
        <path id="Path_3372" data-name="Path 3372" d="M205.083,138.966,187.572,155c-2.174-.5-28.838-16.441-28.838-16.441l-4.214,20.51s27.289,12.545,34.8,11.023c1.226-.247,3.243-.405,4.507-2.03,6.008-7.72,18.752-26.821,18.752-26.821Z" transform="translate(-61.076 -48.06)" fill="#d8ac9b"/>
        <path id="Path_3373" data-name="Path 3373" d="M243.854,130.2l-3.158-1.525,2.283-4.137,1.788-3.784,2.775-5.151-4.228,1.587a3.266,3.266,0,0,0-1.275.974l-6.959,9.609-3.085,3.144,2.977,8.009,3.5-5.461,2.046-.477a6.191,6.191,0,0,0,3.339-2.787" transform="translate(-87.574 -40.099)" fill="#d8ac9b"/>
        <path id="Path_3374" data-name="Path 3374" d="M241.622,126.942a26.509,26.509,0,0,1,4.536-1.773,3.759,3.759,0,0,1,1.567-.2,1.412,1.412,0,0,1,1.188.925,1.481,1.481,0,0,1-.726,1.529,5.65,5.65,0,0,1-1.7.6,2.955,2.955,0,0,0-1.575.832,4.858,4.858,0,0,0-.673,1.554,5.47,5.47,0,0,1-4.029,3.455" transform="translate(-90.395 -43.346)" fill="#d8ac9b"/>
        <path id="Path_3375" data-name="Path 3375" d="M240.212,133.778c-.006-.028.28-.085.762-.278a5.624,5.624,0,0,0,1.82-1.187,5.33,5.33,0,0,0,.921-1.178,7.451,7.451,0,0,0,.64-1.609,2.622,2.622,0,0,1,.471-.883,2.364,2.364,0,0,1,.862-.6c.649-.285,1.363-.353,2-.617a1.965,1.965,0,0,0,.8-.556,1.1,1.1,0,0,0-.906-1.859,4.852,4.852,0,0,0-1.675.285c-.527.153-1.014.31-1.455.464-.882.308-1.583.6-2.065.8a4.968,4.968,0,0,1-.759.3,3.571,3.571,0,0,1,.708-.408,21.736,21.736,0,0,1,2.041-.9c.44-.168.927-.338,1.456-.5a4.985,4.985,0,0,1,1.772-.324,1.83,1.83,0,0,1,.961.344,1.28,1.28,0,0,1,.54.946,1.864,1.864,0,0,1-1.3,1.7c-.7.283-1.4.348-1.994.608a2.078,2.078,0,0,0-.759.518,2.364,2.364,0,0,0-.427.781,7.405,7.405,0,0,1-.686,1.645,5.4,5.4,0,0,1-.991,1.208,5.3,5.3,0,0,1-1.928,1.141,3.652,3.652,0,0,1-.592.148c-.138.021-.21.028-.212.017" transform="translate(-90.395 -43.264)" fill="#aa6550"/>
        <path id="Path_3376" data-name="Path 3376" d="M134.207,226.911H98.316a91.721,91.721,0,0,0-8.793,13.617l51.155.211c1-1.645-6.473-13.828-6.473-13.828" transform="translate(-39.482 -78.706)" fill="#263238"/>
        <path id="Path_3377" data-name="Path 3377" d="M147.308,162.038c-1.215-16.066-5.2-26.162-5.2-26.162l-6.215-1.912c-.94,4.106-7.631,5.462-11.441,3.666l-4.031-2.108c-12.938-1.941-12.268-.867-15.26.931-2.6,1.563-2.36,13.217-2.36,13.217s-6.449,30.369-6.1,35.24,4.1,9.762,4.1,9.762H136.7c3.614,0,4.648-8.171,4.394-11.137s6.618-16.216,6.219-21.5" transform="translate(-41.971 -46.466)" fill="#f6b432"/>
        <path id="Path_3378" data-name="Path 3378" d="M122,190.582a2.83,2.83,0,0,0,.6.509,11.355,11.355,0,0,0,4.921,2,10.529,10.529,0,0,0,3.916-.169,12.907,12.907,0,0,0,6.092-3.535,15.086,15.086,0,0,0,1.4-1.627,2.98,2.98,0,0,0,.421-.666c-.054-.041-.705.872-2.007,2.1a13.447,13.447,0,0,1-5.993,3.358,10.975,10.975,0,0,1-6.787-.626c-1.645-.7-2.525-1.41-2.567-1.346" transform="translate(-50.746 -64.895)" fill="#263238"/>
        <g id="Group_3641" data-name="Group 3641" transform="translate(71.394 122.828)" opacity="0.3">
          <g id="Group_3640" data-name="Group 3640">
            <g id="Group_3639" data-name="Group 3639" clip-path="url(#clip-path-4)">
              <path id="Path_3379" data-name="Path 3379" d="M138.831,188.256a10.456,10.456,0,0,1-3.687,7.053,8.674,8.674,0,0,1-7.68,1.673,7.429,7.429,0,0,1-5.245-5.7,21.985,21.985,0,0,0,5.727,1.994A11.247,11.247,0,0,0,139,188.057l-.292.309" transform="translate(-122.217 -188.057)" fill="#765613"/>
            </g>
          </g>
        </g>
        <path id="Path_3380" data-name="Path 3380" d="M84.929,162.187l18.086,8.48s7.373-16.31,8.007-18.54,2.623-5.758.584-10.409-7.5-6.358-10.529-4.376c-6.768,4.433-16.146,24.845-16.146,24.845" transform="translate(-37.89 -47.356)" fill="#f6b432"/>
        <path id="Path_3381" data-name="Path 3381" d="M170,163.174c.844,0,10.541,5.072,10.541,5.072l5.521-18.288c-8.245-5.493-15.013-11.77-19.836-13.066l2.536,15.113Z" transform="translate(-65.15 -47.482)" fill="#f6b432"/>
        <path id="Path_3382" data-name="Path 3382" d="M84.929,172.1a1.572,1.572,0,0,1,.359.127l1,.425,3.655,1.623,12,5.472,1.464.675-.229.082c2.087-4.3,3.916-8.15,5.211-10.927l1.512-3.285.408-.89a1.3,1.3,0,0,1,.162-.3,1.336,1.336,0,0,1-.1.327c-.077.21-.19.52-.35.914-.316.791-.8,1.928-1.416,3.332-1.24,2.806-3.033,6.674-5.114,10.982l-.074.153-.155-.071-1.465-.674L89.84,174.5l-3.607-1.723-.974-.484a1.535,1.535,0,0,1-.329-.191" transform="translate(-37.89 -57.267)" fill="#263238"/>
        <path id="Path_3383" data-name="Path 3383" d="M168.951,154.141a8.227,8.227,0,0,1,.375,1.125l.952,3.088a37.049,37.049,0,0,1,1.978,10.486,22.2,22.2,0,0,1-.964,5.817c-.5,1.743-1.086,3.266-1.583,4.538s-.929,2.288-1.223,2.993a8.094,8.094,0,0,1-.485,1.082,1.045,1.045,0,0,1,.077-.3l.285-.831,1.122-3.031c.466-1.28,1.023-2.8,1.505-4.536a22.738,22.738,0,0,0,.925-5.735,39.727,39.727,0,0,0-1.869-10.415c-.37-1.312-.664-2.379-.848-3.119-.094-.37-.158-.66-.2-.857a1.07,1.07,0,0,1-.047-.3" transform="translate(-65.789 -53.466)" fill="#263238"/>
        <path id="Path_3384" data-name="Path 3384" d="M127.771,119.594a11.924,11.924,0,0,0-3.571-7.017c-.937-.94-2.063-1.879-2.245-3.194-.236-1.7,1.239-3.3,1-5-.3-2.125-2.959-3.049-3.907-4.973-1.278-2.587.948-5.95-.422-8.489-.825-1.53-2.794-2.353-3.19-4.046-.257-1.1,1.832-2.695,2.318-5.073,1.092-5.347,1.645-9.482-3.547-12.6l-3.033-4.156c-3.4,1.658-6.255,5.391-6.314,9.291-.028,1.844.917,3.692.114,5.352-1.12,2.316-3.729,3.743-4.517,6.191-1.127,3.5,1.977,7.425.622,10.848-.8,2.017-2.906,3.17-4.228,4.891a7.469,7.469,0,0,0,.477,9.365,9.419,9.419,0,0,0-3.548,10.539c.541,1.586,1.765,3.158,3.437,3.249,2.4.132,3.762-2.578,5.516-4.216a7.474,7.474,0,0,1,10.09.264c1.843,1.915,2.588,4.79,4.736,6.353a6.313,6.313,0,0,0,7.455-.4,8.22,8.22,0,0,0,2.756-7.19" transform="translate(-40.816 -22.562)" fill="#263238"/>
        <path id="Path_3385" data-name="Path 3385" d="M98.564,183.535c-3.425,5.628-5.814,8.865-5.814,8.865l30.716,18.708-3.578,8.315-39.84-16.4s-3.926-4.042-2.541-8.545l6.352-17.531Z" transform="translate(-35.213 -61.376)" fill="#d8ac9b"/>
        <path id="Path_3386" data-name="Path 3386" d="M89.559,203.426a26.858,26.858,0,0,1,3.676-1.91,26.813,26.813,0,0,1,4.033-.95,9.94,9.94,0,0,0-7.709,2.86" transform="translate(-39.495 -69.543)" fill="#aa6550"/>
        <path id="Path_3387" data-name="Path 3387" d="M169.96,234.947l-7.661-3.665L147.348,230.1l-1.22-.846-3.578,8.314s3.919,1.874,5.972,2.041l12.57-.381,6.572.69Z" transform="translate(-57.068 -79.519)" fill="#d8ac9b"/>
        <path id="Path_3388" data-name="Path 3388" d="M211.071,192.787l-43.1.35a2.706,2.706,0,0,0-2.944,2.054l-4.71,31.413h-22.2a1.294,1.294,0,1,0,0,2.589h70.9l4.846-33.154a2.828,2.828,0,0,0-2.8-3.252" transform="translate(-55.013 -66.87)" fill="#e0e0e0"/>
        <path id="Path_3389" data-name="Path 3389" d="M210.985,192.778a2.268,2.268,0,0,1,.679.064,2.848,2.848,0,0,1,2.18,2.468,8,8,0,0,1-.158,1.773c-.18,1.27-.389,2.732-.622,4.375-.949,6.586-2.316,16.078-4,27.747l-.016.114h-.116l-68.788.041H138.3a1.8,1.8,0,0,1-.98-.186,1.469,1.469,0,0,1,.007-2.568,1.8,1.8,0,0,1,.971-.182h8.116l13.82,0-.165.143c1.7-11.25,3.277-21.745,4.7-31.16a2.441,2.441,0,0,1,.8-1.642,3.2,3.2,0,0,1,1.648-.727,14.268,14.268,0,0,1,1.738-.061l1.692-.011,6.489-.044,11.532-.073,16.417-.082,4.392-.008,1.134.005c.255,0,.385.012.385.012s-.13.011-.385.018l-1.134.023-4.392.063-16.417.182-11.532.114-6.488.062-1.692.016a14.242,14.242,0,0,0-1.7.062,2.927,2.927,0,0,0-1.5.663,2.147,2.147,0,0,0-.7,1.472c-1.405,9.419-2.971,19.914-4.648,31.166l-.021.143h-.151l-13.82,0h-8.116a1.446,1.446,0,0,0-.8.139,1.121,1.121,0,0,0,0,1.96,1.448,1.448,0,0,0,.81.142h1.851l68.788.041-.131.114c1.727-11.662,3.136-21.148,4.113-27.73.247-1.642.466-3.1.658-4.369a8,8,0,0,0,.176-1.746,2.756,2.756,0,0,0-.5-1.34,2.82,2.82,0,0,0-1.592-1.1,5.568,5.568,0,0,0-.67-.1" transform="translate(-54.927 -66.862)" fill="#263238"/>
        <path id="Path_3390" data-name="Path 3390" d="M210.578,218.613a2.7,2.7,0,1,0,2.7-2.7,2.7,2.7,0,0,0-2.7,2.7" transform="translate(-80.302 -74.892)" fill="#fff"/>
        <path id="Path_3391" data-name="Path 3391" d="M175.469,229.09c.061.01,1.433-7.989,3.064-17.864s2.9-17.892,2.843-17.9-1.432,7.987-3.064,17.865-2.9,17.892-2.843,17.9" transform="translate(-68.33 -67.056)" fill="#263238"/>
      </g>
    </g>
  </g>
</svg>
