<svg xmlns="http://www.w3.org/2000/svg" xmlns:xlink="http://www.w3.org/1999/xlink" width="1206.621" height="1197.824" viewBox="0 0 1206.621 1197.824">
  <defs>
    <linearGradient id="linear-gradient" x1="0.98" y1="0.41" x2="0.235" y2="0.895" gradientUnits="objectBoundingBox">
      <stop offset="0" stop-color="#ededed"/>
      <stop offset="1" stop-color="#fff"/>
    </linearGradient>
    <clipPath id="clip-path">
      <rect id="Rectangle_2166" data-name="Rectangle 2166" width="159.005" height="101.048" fill="none"/>
    </clipPath>
    <clipPath id="clip-path-2">
      <rect id="Rectangle_2167" data-name="Rectangle 2167" width="52.723" height="45.66" fill="none"/>
    </clipPath>
    <clipPath id="clip-path-3">
      <rect id="Rectangle_2173" data-name="Rectangle 2173" width="40.811" height="22.419" fill="none"/>
    </clipPath>
  </defs>
  <g id="Group_3643" data-name="Group 3643" transform="translate(-361 -116)">
    <path id="Path_2258" data-name="Path 2258" d="M51.595,467.676c-16.343-94.306,16.424-198.518,91.724-257.6s192.264-63.476,265.192-1.491c51.275,43.582,75.292,110.12,105.819,170.091s76.841,120.695,143.337,131.044c57.366,8.928,115.05-22.449,172.614-14.914,56.2,7.356,103.265,53.317,119.433,107.636s4.1,114.635-24.914,163.325S851.178,852.375,802.325,881.1c-157.168,92.435-365.732,89.426-520.172-7.5S34.325,590.16,49.231,408.435" transform="translate(1708.298 753.057) rotate(135)" opacity="0.5" fill="url(#linear-gradient)"/>
    <g id="Group_3642" data-name="Group 3642" transform="translate(2177.471 20101.424)">
      <path id="Path_3153" data-name="Path 3153" d="M304.613,36.035c0-.229,2.133-.413,4.764-.413s4.764.184,4.764.413-2.133.413-4.764.413-4.764-.184-4.764-.413" transform="translate(-1532.49 -19599.057)" fill="#e0e0e0"/>
      <path id="Path_3154" data-name="Path 3154" d="M283.921,36.035c0-.229,3.678-.413,8.215-.413s8.214.184,8.214.413-3.678.413-8.214.413-8.215-.184-8.215-.413" transform="translate(-1544.656 -19599.057)" fill="#e0e0e0"/>
      <path id="Path_3155" data-name="Path 3155" d="M263.23,36.035c0-.229,3.678-.413,8.215-.413s8.215.184,8.215.413-3.678.413-8.215.413-8.215-.184-8.215-.413" transform="translate(-1556.822 -19599.057)" fill="#e0e0e0"/>
      <path id="Path_3156" data-name="Path 3156" d="M247.038,45.577c-.229,0-.413-4.265-.413-9.528.826-.827.23-.229.416-.413h.487l.483,0,.946.006,1.788.024,3.03.089a9.541,9.541,0,0,1,2.79.292,9.542,9.542,0,0,1-2.79.292l-3.03.089-1.788.024-.946.006-.483,0h-.487c.184-.184-.416.413.41-.413,0,5.262-.184,9.528-.413,9.528" transform="translate(-1566.585 -19599.07)" fill="#e0e0e0"/>
      <path id="Path_3157" data-name="Path 3157" d="M247.038,71.98c-.229,0-.413-4.135-.413-9.234s.184-9.234.413-9.234.413,4.133.413,9.234-.184,9.234-.413,9.234" transform="translate(-1566.585 -19588.537)" fill="#e0e0e0"/>
      <path id="Path_3158" data-name="Path 3158" d="M247.038,86.3c-.229,0-.413-2.133-.413-4.764s.184-4.764.413-4.764.413,2.133.413,4.764-.184,4.764-.413,4.764" transform="translate(-1566.585 -19574.863)" fill="#e0e0e0"/>
      <path id="Path_3159" data-name="Path 3159" d="M558.358,122.953c0,.229-4.267.413-9.528.413s-9.528-.184-9.528-.413,4.265-.413,9.528-.413,9.528.184,9.528.413" transform="translate(-1394.503 -19547.953)" fill="#e0e0e0"/>
      <path id="Path_3160" data-name="Path 3160" d="M582.357,122.953c0,.229-4.267.413-9.528.413s-9.528-.184-9.528-.413,4.265-.413,9.528-.413,9.528.184,9.528.413" transform="translate(-1380.392 -19547.953)" fill="#e0e0e0"/>
      <path id="Path_3161" data-name="Path 3161" d="M606.358,122.953c0,.229-4.267.413-9.528.413s-9.528-.184-9.528-.413,4.265-.413,9.528-.413,9.528.184,9.528.413" transform="translate(-1366.281 -19547.953)" fill="#e0e0e0"/>
      <path id="Path_3162" data-name="Path 3162" d="M630.358,122.953c0,.229-4.267.413-9.528.413s-9.528-.184-9.528-.413,4.265-.413,9.528-.413,9.528.184,9.528.413" transform="translate(-1352.17 -19547.953)" fill="#e0e0e0"/>
      <path id="Path_3163" data-name="Path 3163" d="M654.358,122.953c0,.229-4.267.413-9.528.413s-9.528-.184-9.528-.413,4.265-.413,9.528-.413,9.528.184,9.528.413" transform="translate(-1338.059 -19547.953)" fill="#e0e0e0"/>
      <path id="Path_3164" data-name="Path 3164" d="M677.62,123.691c-.057,0-.111-.262-.16-.738l.16.16c-1.436.148-4.831.254-8.789.254-5.262,0-9.528-.186-9.528-.414s4.265-.413,9.528-.413c3.959,0,7.354.1,8.789.254l.032,0a.141.141,0,0,1,.127.156c-.049.476-.1.738-.159.738" transform="translate(-1323.947 -19547.953)" fill="#e0e0e0"/>
      <path id="Path_3165" data-name="Path 3165" d="M670.991,154.32c-.229,0-.413-4.265-.413-9.528s.184-9.528.413-9.528.413,4.265.413,9.528-.184,9.528-.413,9.528" transform="translate(-1317.318 -19540.469)" fill="#e0e0e0"/>
      <path id="Path_3166" data-name="Path 3166" d="M670.991,178.32c-.229,0-.413-4.265-.413-9.528s.184-9.528.413-9.528.413,4.265.413,9.528-.184,9.528-.413,9.528" transform="translate(-1317.318 -19526.359)" fill="#e0e0e0"/>
      <path id="Path_3167" data-name="Path 3167" d="M670.991,202.32c-.229,0-.413-4.265-.413-9.528s.184-9.528.413-9.528.413,4.265.413,9.528-.184,9.528-.413,9.528" transform="translate(-1317.318 -19512.248)" fill="#e0e0e0"/>
      <path id="Path_3172" data-name="Path 3172" d="M610.075,98.26l3.864,62.613a4.229,4.229,0,0,0,4.222,3.968h112.72a4.23,4.23,0,0,0,4.23-4.229v-48.76a4.228,4.228,0,0,0-4.257-4.229l-69.322.446a4.235,4.235,0,0,1-2.995-1.216L646.489,94.987a4.228,4.228,0,0,0-2.968-1.216H614.3a4.228,4.228,0,0,0-4.221,4.489" transform="translate(-1352.896 -19564.867)" fill="#ebebeb"/>
      <rect id="Rectangle_2151" data-name="Rectangle 2151" width="123.16" height="73.596" transform="translate(-740.946 -19464.641)" fill="#f5f5f5"/>
      <path id="Path_3173" data-name="Path 3173" d="M605.091,103.123l9.4,76.746a2.719,2.719,0,0,0,2.7,2.39H737.222a2.72,2.72,0,0,0,2.711-2.507l6.044-76.746a2.72,2.72,0,0,0-2.712-2.933H607.79a2.719,2.719,0,0,0-2.7,3.05" transform="translate(-1355.834 -19561.162)" fill="#ebebeb"/>
      <path id="Path_3174" data-name="Path 3174" d="M73.828,84.536c10.26-4.3,17.556-14.884,17.617-27.353.067-16.332-12.292-29.63-27.608-29.7s-27.78,13.11-27.848,29.444c-.051,12.583,7.3,23.289,17.669,27.608-42.672,6.428-40.736,52.8-40.736,52.8l100.9.465s2.3-46.881-40-53.27" transform="translate(-1704 -19603.84)" fill="#ebebeb"/>
      <path id="Path_3175" data-name="Path 3175" d="M596.654,54.876a21.946,21.946,0,0,0,13.077-20.3c.049-12.124-9.124-21.995-20.494-22.047s-20.621,9.733-20.672,21.857a21.914,21.914,0,0,0,13.117,20.494c-31.675,4.772-30.238,39.2-30.238,39.2l74.9.345s1.709-34.8-29.692-39.543" transform="translate(-1387.37 -19612.637)" fill="#f5f5f5"/>
      <path id="Path_3176" data-name="Path 3176" d="M153.916,41.724a13.95,13.95,0,0,0,8.313-12.905c.03-7.706-5.8-13.982-13.028-14.015S136.093,20.99,136.061,28.7A13.932,13.932,0,0,0,144.4,41.724c-20.135,3.033-19.222,24.915-19.222,24.915l47.612.221s1.086-22.122-18.873-25.136" transform="translate(-1637.994 -19611.297)" fill="#f5f5f5"/>
      <path id="Path_3186" data-name="Path 3186" d="M399.207,246.686a13.836,13.836,0,0,1-.354-3.119,25.534,25.534,0,0,0-.418-3.744,36.96,36.96,0,0,0-.983-5.032,47.172,47.172,0,0,0-5.226-12.945,48.488,48.488,0,0,0-12.038-13.866,47.966,47.966,0,0,0-45.211-7.77,44.945,44.945,0,0,0-12.229,6.239,43.718,43.718,0,0,0-10.323,9.909,47.586,47.586,0,0,0-1.372,56.4,43.683,43.683,0,0,0,9.829,10.4A44.923,44.923,0,0,0,332.8,289.99a48.333,48.333,0,0,0,58.234-18.833,47.2,47.2,0,0,0,5.847-12.677A36.821,36.821,0,0,0,398.1,253.5a25.419,25.419,0,0,0,.6-3.721,13.845,13.845,0,0,1,.5-3.1,13.733,13.733,0,0,1,.037,3.144,21.846,21.846,0,0,1-.349,3.8,33.947,33.947,0,0,1-1.005,5.128,46.187,46.187,0,0,1-5.582,13.2,49.723,49.723,0,0,1-34.078,23.03,50.173,50.173,0,0,1-26.336-2.684A47.171,47.171,0,0,1,319.3,285.2a46.022,46.022,0,0,1-10.414-10.922,50,50,0,0,1,1.448-59.533,46.06,46.06,0,0,1,10.93-10.4,47.162,47.162,0,0,1,12.921-6.487,50.183,50.183,0,0,1,26.433-1.4,49.724,49.724,0,0,1,32.92,24.655,46.1,46.1,0,0,1,4.935,13.455,33.917,33.917,0,0,1,.757,5.17,21.831,21.831,0,0,1,.164,3.816,13.716,13.716,0,0,1-.189,3.139" transform="translate(-1535.335 -19505.16)" fill="#ebebeb"/>
      <path id="Path_3187" data-name="Path 3187" d="M384.718,209.069c.108.152-.777.921-2.485,2.191-.937.672-1.983,1.424-3.155,2.266-.627.427-1.281.911-2.009,1.369l-2.415,1.262a55.372,55.372,0,0,1-28.837,7.262l-4.365-.2-4.189-.654c-.684-.116-1.369-.208-2.036-.343q-.986-.262-1.956-.521c-1.285-.356-2.558-.659-3.77-1.046a63.162,63.162,0,0,1-12.235-5.637c-6.573-3.975-9.772-7.59-9.525-7.822.265-.3,3.838,2.722,10.46,6.16a73.778,73.778,0,0,0,12.043,4.929c1.173.34,2.4.6,3.638.916l1.88.467,1.95.294,4,.589,4.16.168a59.7,59.7,0,0,0,27.923-6.271l2.444-1.061c.745-.389,1.42-.807,2.071-1.166,1.242-.684,2.353-1.3,3.347-1.844,1.861-.986,2.95-1.464,3.058-1.313" transform="translate(-1530.66 -19498.188)" fill="#ebebeb"/>
      <path id="Path_3188" data-name="Path 3188" d="M306.8,251.249c-.108-.152.776-.921,2.485-2.191.937-.672,1.983-1.424,3.155-2.264.626-.429,1.281-.913,2.009-1.37l2.417-1.262A55.362,55.362,0,0,1,345.7,236.9l4.365.2,4.189.654c.684.116,1.369.208,2.036.341l1.956.521c1.285.357,2.558.661,3.77,1.048a63.2,63.2,0,0,1,12.235,5.637c6.572,3.975,9.772,7.59,9.525,7.822-.265.3-3.838-2.722-10.46-6.16a73.775,73.775,0,0,0-12.043-4.929c-1.174-.34-2.4-.6-3.638-.916l-1.88-.467-1.95-.294-4-.589-4.16-.168a59.712,59.712,0,0,0-27.924,6.271q-1.272.553-2.442,1.061c-.745.389-1.42.807-2.071,1.166l-3.347,1.845c-1.861.985-2.95,1.463-3.058,1.312" transform="translate(-1531.21 -19480.73)" fill="#ebebeb"/>
      <path id="Path_3189" data-name="Path 3189" d="M398.687,229.492c-.017.745-21.99.815-49.069.157s-49.027-1.794-49.008-2.539,21.985-.815,49.073-.157,49.022,1.794,49,2.539" transform="translate(-1534.844 -19486.826)" fill="#ebebeb"/>
      <path id="Path_3190" data-name="Path 3190" d="M330.292,294.073c-.745-.017-.815-21.982-.157-49.054s1.794-49.009,2.538-48.992.816,21.977.159,49.058-1.794,49-2.539,48.987" transform="translate(-1517.749 -19504.744)" fill="#ebebeb"/>
      <path id="Path_3191" data-name="Path 3191" d="M339.1,294.011c-.184.286-5.588-3.379-11.826-11.673a66.042,66.042,0,0,1-8.766-15.918,59.127,59.127,0,0,1-3.8-21.977,56.252,56.252,0,0,1,4.951-21.755,68.274,68.274,0,0,1,9.579-15.427c6.606-7.981,12.054-11.519,12.237-11.235.264.306-4.67,4.321-10.733,12.41a73.435,73.435,0,0,0-8.8,15.24,56.549,56.549,0,0,0-4.535,20.82,59.714,59.714,0,0,0,3.433,21.072,70.747,70.747,0,0,0,7.987,15.667c5.677,8.361,10.542,12.48,10.269,12.777" transform="translate(-1526.557 -19504.756)" fill="#ebebeb"/>
      <path id="Path_3192" data-name="Path 3192" d="M333.144,196.042c.184-.284,5.588,3.379,11.826,11.673a66.042,66.042,0,0,1,8.766,15.918,59.13,59.13,0,0,1,3.8,21.977,56.238,56.238,0,0,1-4.951,21.755A68.185,68.185,0,0,1,343,282.792c-6.606,7.981-12.054,11.519-12.237,11.235-.264-.306,4.67-4.321,10.735-12.41a73.465,73.465,0,0,0,8.8-15.24,56.511,56.511,0,0,0,4.535-20.82,59.707,59.707,0,0,0-3.433-21.071,70.767,70.767,0,0,0-7.987-15.668c-5.677-8.361-10.542-12.48-10.269-12.777" transform="translate(-1517.12 -19504.744)" fill="#ebebeb"/>
      <rect id="Rectangle_2164" data-name="Rectangle 2164" width="361.348" height="264.176" transform="translate(-1217.725 -19589.324)" fill="#fff"/>
      <path id="Path_3253" data-name="Path 3253" d="M672.508,283.648c0-2.782-.133-104.1-.337-264.176l.337.338-361.318.076h-.03l.413-.414c-.014,94.784-.027,184.633-.038,264.176l-.375-.375,361.348.375-361.348.375h-.375v-.375c-.013-79.542-.025-169.392-.04-264.176v-.413h.445l361.318.076h.338l0,.337c-.2,160.077-.332,261.4-.335,264.176" transform="translate(-1528.884 -19608.795)" fill="#263238"/>
      <path id="Path_3254" data-name="Path 3254" d="M672.832,43.684c0,.229-80.719.413-180.268.413-99.586,0-180.287-.184-180.287-.413s80.7-.413,180.287-.413c99.549,0,180.268.184,180.268.413" transform="translate(-1527.984 -19594.559)" fill="#e0e0e0"/>
      <path id="Path_3255" data-name="Path 3255" d="M329.627,32.924a5.441,5.441,0,1,1-5.442-5.44,5.442,5.442,0,0,1,5.442,5.44" transform="translate(-1524.181 -19603.84)" fill="#e0e0e0"/>
      <path id="Path_3256" data-name="Path 3256" d="M339.952,32.924a5.441,5.441,0,1,1-5.442-5.44,5.442,5.442,0,0,1,5.442,5.44" transform="translate(-1518.11 -19603.84)" fill="#e0e0e0"/>
      <path id="Path_3257" data-name="Path 3257" d="M350.277,32.924a5.441,5.441,0,1,1-5.44-5.44,5.442,5.442,0,0,1,5.44,5.44" transform="translate(-1512.04 -19603.84)" fill="#e0e0e0"/>
      <path id="Path_3258" data-name="Path 3258" d="M330.071,86.209l2.279-1.45a8.578,8.578,0,0,1,12.122,3.127c3.668,6.677,8.218,16.005,8.218,16.005l-9.626,15.243-3.23.1c-3.5,2.233-11.687-2.279-17.226-5.637s-2.811-6.746-2.811-6.746c-3.473-4.783,1.315-6.755,1.315-6.755-2.946-4.353,1.405-7.3,1.405-7.3" transform="translate(-1524.306 -19570.953)" fill="#f5ccb0"/>
      <rect id="Rectangle_2165" data-name="Rectangle 2165" width="70.886" height="99.258" transform="translate(-1268.654 -19519.594) rotate(-10.849)" fill="#fff"/>
      <path id="Path_3259" data-name="Path 3259" d="M297.778,165.833a3.178,3.178,0,0,1-.106-.437c-.068-.329-.16-.769-.278-1.339-.246-1.224-.6-2.984-1.054-5.258-.916-4.656-2.245-11.409-3.924-19.942-3.346-17.22-8.086-41.611-13.688-70.439l-.071-.368.37-.071,69.6-13.377.008,0,.407-.078.076.407c6.966,36.5,13.409,70.264,18.606,97.5l.062.33-.329.062-50.8,9.556-14,2.6-3.651.661c-.821.145-1.229.2-1.229.2s.446-.11,1.285-.283l3.7-.748,14.042-2.779,50.529-9.861-.265.392c-5.24-27.226-11.735-60.976-18.759-97.469l.484.327-.008,0-69.619,13.3.3-.44c5.434,28.758,10.031,53.09,13.275,70.267,1.6,8.585,2.869,15.379,3.743,20.064.424,2.312.751,4.1.98,5.348.1.589.184,1.046.243,1.388a4.112,4.112,0,0,1,.071.487" transform="translate(-1547.752 -19587.941)" fill="#263238"/>
      <path id="Path_3260" data-name="Path 3260" d="M286.252,80.954c-.043-.224,11.449-2.615,25.666-5.339s25.781-4.753,25.823-4.529S326.3,73.7,312.074,76.427s-25.779,4.751-25.822,4.527" transform="translate(-1543.286 -19578.215)" fill="#263238"/>
      <path id="Path_3261" data-name="Path 3261" d="M287.083,85.289c-.043-.224,11.449-2.615,25.666-5.34s25.78-4.751,25.823-4.527-11.446,2.615-25.668,5.34-25.779,4.751-25.822,4.527" transform="translate(-1542.797 -19575.664)" fill="#263238"/>
      <path id="Path_3262" data-name="Path 3262" d="M287.914,89.624c-.043-.224,11.449-2.615,25.666-5.34s25.781-4.751,25.823-4.527-11.446,2.615-25.668,5.34-25.779,4.751-25.822,4.527" transform="translate(-1542.308 -19573.117)" fill="#263238"/>
      <path id="Path_3263" data-name="Path 3263" d="M288.744,93.959c-.043-.224,11.449-2.615,25.666-5.34s25.78-4.751,25.823-4.527-11.446,2.615-25.668,5.34-25.779,4.751-25.822,4.527" transform="translate(-1541.821 -19570.568)" fill="#263238"/>
      <path id="Path_3264" data-name="Path 3264" d="M289.575,98.294c-.043-.224,11.449-2.615,25.666-5.34s25.78-4.751,25.823-4.527-11.446,2.615-25.668,5.34-25.779,4.751-25.822,4.527" transform="translate(-1541.332 -19568.02)" fill="#263238"/>
      <path id="Path_3265" data-name="Path 3265" d="M290.406,102.629c-.043-.224,11.449-2.615,25.666-5.34s25.78-4.751,25.823-4.527-11.446,2.615-25.668,5.34-25.779,4.751-25.822,4.527" transform="translate(-1540.843 -19565.471)" fill="#263238"/>
      <path id="Path_3266" data-name="Path 3266" d="M291.237,106.964c-.043-.224,11.449-2.615,25.666-5.34s25.781-4.751,25.822-4.527-11.444,2.615-25.668,5.34-25.777,4.751-25.82,4.527" transform="translate(-1540.355 -19562.922)" fill="#263238"/>
      <path id="Path_3267" data-name="Path 3267" d="M292.067,111.3c-.043-.224,11.449-2.615,25.666-5.339s25.78-4.753,25.823-4.529-11.446,2.617-25.668,5.34-25.779,4.751-25.822,4.527" transform="translate(-1539.867 -19560.373)" fill="#263238"/>
      <path id="Path_3268" data-name="Path 3268" d="M292.9,115.633c-.043-.224,11.449-2.615,25.666-5.339s25.78-4.753,25.823-4.529-11.446,2.615-25.668,5.34-25.779,4.751-25.822,4.527" transform="translate(-1539.378 -19557.826)" fill="#263238"/>
      <path id="Path_3269" data-name="Path 3269" d="M319.681,61a7.578,7.578,0,0,1,.5,1.734q.431,1.958,1.053,4.788.16.769.33,1.591A3.9,3.9,0,0,1,313.9,70.6c-.073-.373-.148-.748-.221-1.127q-.219-1.131-.443-2.295c-.294-1.55-.581-3.063-.859-4.527q-.2-1.1-.4-2.155a7.9,7.9,0,0,1-.219-2.182,5.126,5.126,0,0,1,5.232-4.738,4.957,4.957,0,0,1,4.21,2.531,4.14,4.14,0,0,1,.468,1.28c.049.308.057.468.027.473a13.561,13.561,0,0,0-.77-1.586,4.7,4.7,0,0,0-3.94-2.114,4.63,4.63,0,0,0-2.9,1.083,4.491,4.491,0,0,0-1.564,3.127,7.192,7.192,0,0,0,.235,1.977q.2,1.058.422,2.152.424,2.2.875,4.524.221,1.162.438,2.3.107.562.213,1.118a3.238,3.238,0,0,0,.348.931,3.166,3.166,0,0,0,3.225,1.561,3.208,3.208,0,0,0,2.538-2.131,3.3,3.3,0,0,0,.125-1.574c-.1-.551-.189-1.085-.278-1.6q-.469-2.856-.794-4.837A7.632,7.632,0,0,1,319.681,61" transform="translate(-1528.303 -19588.496)" fill="#263238"/>
      <path id="Path_3270" data-name="Path 3270" d="M337.638,83.434c-.522.052-21.148,3.252-21.148,3.252-.365,1.9.749,4.588,5.607,4.665,4.6.073,8.761-.311,8.761-.311s5.105,10.642,10.12,11.824,2.552-10.219,2.552-10.219Z" transform="translate(-1525.545 -19570.943)" fill="#f5ccb0"/>
      <path id="Path_3271" data-name="Path 3271" d="M522.7,63.185c1.786-4.167,3.6-8.462,3.77-13.012s-1.7-9.48-5.626-11.546c-3.632-1.909-8.092-1.015-11.946-2.385-4.754-1.691-7.756-6.484-9.866-11.194s.824-6.426-2.742-10.082c-4.731-4.85-7.808-5.548-13.8-2.584-4.31-3.054-19.276-8.583-23.594-8.716-6.4-.2-13.695.314-18.166,4.9-3.468,3.562-5.671,8.091-9.929,10.657-5.858,3.528-13.325.527-20.159.778-1.393.051-3.017.407-3.592,1.677-.5,1.1.03,2.366.551,3.454q2.639,5.512,5.28,11.022a10.5,10.5,0,0,1-9.145-.222,31.066,31.066,0,0,0,8.119,19.548c-1.213-.859-3.039.027-3.643,1.385a6.612,6.612,0,0,0,.062,4.368A31.976,31.976,0,0,0,451.707,82.3l37.666,2.838a9.617,9.617,0,0,0,6.495,6.034c4.219-3.122,4.893-4.875,4.893-4.875,2.6,1.931.557.958,2.6,1.931,4.67,2.228,11.578-.416,12.631-5.618a11.012,11.012,0,0,1,2.5-5.744c1.494-1.513,3.622-2.1,5.5-3.044a15.486,15.486,0,0,0,6.9-7.066,11.176,11.176,0,0,1-8.2-3.567" transform="translate(-1474.212 -19617.865)" fill="#263238"/>
      <path id="Path_3272" data-name="Path 3272" d="M486.955,44.809l.965,77.75c.165,13.223-2.295,32.679-23.211,31.985-18.1-1.971-22.9-19.106-23.046-31.445-.067-5.853-.135-10.735-.181-11.335,0,0-19.816-1.617-21.488-21.188-.808-9.458-.886-29.076-.753-46.824A36.589,36.589,0,0,1,453.178,7.559l1.89-.138c20.469-.3,32.156,16.92,31.888,37.388" transform="translate(-1465.124 -19615.641)" fill="#f5ccb0"/>
      <path id="Path_3273" data-name="Path 3273" d="M433.229,76.61s12.4-.178,24.956-9.4c0,0-5.178,14.763-24.855,14.427Z" transform="translate(-1456.869 -19580.484)" fill="#eaae94"/>
      <path id="Path_3274" data-name="Path 3274" d="M440.314,36.632c.389.4,2.649-1.423,5.928-1.512,3.276-.137,5.728,1.521,6.072,1.1.17-.187-.235-.911-1.3-1.661a8.2,8.2,0,0,0-4.875-1.383,7.908,7.908,0,0,0-4.705,1.712c-.986.821-1.307,1.569-1.116,1.745" transform="translate(-1452.734 -19600.496)" fill="#263238"/>
      <path id="Path_3275" data-name="Path 3275" d="M439.923,40.9a2.654,2.654,0,0,0,2.747,2.484,2.539,2.539,0,0,0,2.553-2.585,2.656,2.656,0,0,0-2.746-2.485,2.54,2.54,0,0,0-2.555,2.587" transform="translate(-1452.935 -19597.475)" fill="#263238"/>
      <path id="Path_3276" data-name="Path 3276" d="M438.024,59.04c0-.171-1.893-.359-4.954-.526-.773-.022-1.513-.122-1.68-.637a3.925,3.925,0,0,1,.346-2.317q.881-2.87,1.847-6.02c2.549-8.564,4.332-15.584,3.987-15.684s-2.693,6.762-5.24,15.327q-.917,3.166-1.748,6.047a4.466,4.466,0,0,0-.178,3.047,1.931,1.931,0,0,0,1.345,1.031,5.256,5.256,0,0,0,1.32.087c3.063-.059,4.958-.184,4.956-.356" transform="translate(-1458.658 -19600.096)" fill="#263238"/>
      <path id="Path_3277" data-name="Path 3277" d="M441.182,28.5c.316.727,2.942.179,6.085.341,3.147.1,5.728.854,6.091.156.162-.335-.327-1.005-1.4-1.653a9.929,9.929,0,0,0-4.6-1.3,9.812,9.812,0,0,0-4.675.918c-1.11.559-1.642,1.188-1.5,1.534" transform="translate(-1452.206 -19604.691)" fill="#263238"/>
      <path id="Path_3278" data-name="Path 3278" d="M421.572,32.354c.345.592,2.9-.065,6-.16,3.1-.152,5.674.3,6-.319.143-.3-.368-.827-1.45-1.3a10.807,10.807,0,0,0-4.586-.757,11.186,11.186,0,0,0-4.56,1.123c-1.066.556-1.563,1.129-1.41,1.412" transform="translate(-1463.739 -19602.473)" fill="#263238"/>
      <path id="Path_3279" data-name="Path 3279" d="M461.524,40.53c.324-.168,13.171-4.964,13.72,8.461S462.2,60.2,462.164,59.815s-.64-19.284-.64-19.284" transform="translate(-1440.233 -19596.738)" fill="#f5ccb0"/>
      <path id="Path_3280" data-name="Path 3280" d="M464.382,52.979c.057-.046.241.154.643.319a2.336,2.336,0,0,0,1.75-.037c1.4-.578,2.5-2.879,2.464-5.3a7.734,7.734,0,0,0-.791-3.32,2.708,2.708,0,0,0-1.834-1.725,1.191,1.191,0,0,0-1.353.7c-.165.383-.068.646-.138.673-.037.035-.3-.214-.213-.773a1.5,1.5,0,0,1,.494-.862,1.762,1.762,0,0,1,1.28-.394,3.29,3.29,0,0,1,2.528,1.98,7.944,7.944,0,0,1,.964,3.709c.025,2.707-1.256,5.3-3.174,5.936a2.5,2.5,0,0,1-2.153-.267c-.429-.314-.511-.613-.467-.638" transform="translate(-1438.559 -19595.156)" fill="#eaae94"/>
      <path id="Path_3281" data-name="Path 3281" d="M437.119,58.769c-.146-.34,2.484-1.127,4.332-3.594a15.072,15.072,0,0,0,1.858-3.506c.392-.975.689-1.586.834-1.542s.1.7-.113,1.763a9.909,9.909,0,0,1-1.728,3.927,8.029,8.029,0,0,1-3.43,2.626c-1.024.414-1.718.44-1.753.326" transform="translate(-1454.586 -19590.527)" fill="#263238"/>
      <path id="Path_3282" data-name="Path 3282" d="M509.07,42.059c-2.8-4.735-3.449-10.384-4.978-15.667s-4.47-10.755-9.652-12.6l-.116.051c-4.653-1.871-10.384-1.9-14.2,1.332-.948-6.977-7.062-12.5-13.872-14.29S448.513.162,441.982,2.792c-5.05,2.033-9.93,6.2-15.864,12.313a65.943,65.943,0,0,0-6.85,8.3l-5.921,18.287a7.731,7.731,0,0,0-1.664,1.672c-2.355,3.211,2.045,7.239,5.031,4.605l.054-.048a33.559,33.559,0,0,1,1.548,3.136v.024l.1.2c.3.653.619,1.305,1,1.95l0-.043L424,73.4c.289-5.512-.113-24.682.178-30.193a30.735,30.735,0,0,0,21.9-10.115c3.011-3.335,5.375-7.511,9.4-9.5,5.193-2.568,11.379-.7,16.85,1.2l-.233-.208a24.582,24.582,0,0,1,7.582,5.472,76.381,76.381,0,0,0,3.308,32.336c.513,1.563,1.915,4.781,3.449,5.375,3.014,1.164,3.825-1.906,5.64-3.536,1.334-1.2,3.316-1.355,5.482-1.35a119.818,119.818,0,0,0,3.684-13.93,12.259,12.259,0,0,0,5.637.376q-.869-2.075-1.736-4.151a6.42,6.42,0,0,0,2.414,1.093,2.186,2.186,0,0,0,2.287-1c.51-1.029-.184-2.217-.77-3.206" transform="translate(-1469.931 -19620)" fill="#263238"/>
      <path id="Path_3283" data-name="Path 3283" d="M450.654,10.97a16.765,16.765,0,0,1,1.964,1.8,14.04,14.04,0,0,1,3,6.5,24.633,24.633,0,0,1,.5,4.975c.008,1.8-.137,3.733-.275,5.769a51.6,51.6,0,0,0-.146,6.42,22.394,22.394,0,0,0,.441,3.387,7.039,7.039,0,0,0,1.382,3.285,2.952,2.952,0,0,0,2.763.929,4.394,4.394,0,0,0,2.485-1.4,10.147,10.147,0,0,0,1.888-4.978l-.411.049a16.443,16.443,0,0,0,2.382,4.1,5.827,5.827,0,0,0,3.808,2.074,3.758,3.758,0,0,0,2.02-.354,3.257,3.257,0,0,0,1.37-1.35,3.356,3.356,0,0,0,.416-1.736,2.437,2.437,0,0,0-.629-1.523l-.208.184a12.653,12.653,0,0,0,4.206,3.157,11.29,11.29,0,0,0,1.3.5,2.106,2.106,0,0,0,.467.116,2.376,2.376,0,0,0-.441-.187c-.292-.119-.724-.294-1.264-.568a13.046,13.046,0,0,1-4.059-3.2l-.208.184a2.51,2.51,0,0,1,.13,2.909,2.928,2.928,0,0,1-1.24,1.2,3.405,3.405,0,0,1-1.829.3,5.469,5.469,0,0,1-3.536-1.971,16.12,16.12,0,0,1-2.293-4.014l-.283-.627-.129.676a9.837,9.837,0,0,1-1.8,4.758,3.961,3.961,0,0,1-2.226,1.256,2.494,2.494,0,0,1-2.349-.788,6.669,6.669,0,0,1-1.275-3.073,22.128,22.128,0,0,1-.438-3.319,52.585,52.585,0,0,1,.119-6.366c.127-2.034.259-3.973.233-5.8a24.546,24.546,0,0,0-.564-5.042,13.837,13.837,0,0,0-3.189-6.55,7.93,7.93,0,0,0-2.1-1.677" transform="translate(-1446.625 -19613.551)" fill="#455a64"/>
      <path id="Path_3284" data-name="Path 3284" d="M412.51,34.09c0,.006.049.051.157.133l.489.357a6.676,6.676,0,0,0,.829.532,10.808,10.808,0,0,0,1.191.627,17.381,17.381,0,0,0,8.381,1.507,22.177,22.177,0,0,0,11.816-4.364,38.411,38.411,0,0,0,10.152-11.7c1.424-2.371,2.585-4.8,3.864-7.046a26.029,26.029,0,0,1,4.375-5.961,13.386,13.386,0,0,1,5.642-3.424,9.572,9.572,0,0,1,2.976-.343,10.459,10.459,0,0,1,2.723.524,11.32,11.32,0,0,1,6.292,5.323,13.651,13.651,0,0,1,1.012,2.936.794.794,0,0,0-.016-.2c-.025-.164-.057-.36-.094-.6a9.747,9.747,0,0,0-.743-2.21A11.139,11.139,0,0,0,469.364,7.2a11.479,11.479,0,0,0-4.154-2.577,10.756,10.756,0,0,0-2.809-.57,9.92,9.92,0,0,0-3.095.329,13.687,13.687,0,0,0-5.834,3.487A26.17,26.17,0,0,0,449,13.915c-1.3,2.261-2.457,4.684-3.868,7.033a38.425,38.425,0,0,1-10.006,11.594,22.057,22.057,0,0,1-11.589,4.383,17.606,17.606,0,0,1-8.286-1.348,27.319,27.319,0,0,1-2.741-1.486" transform="translate(-1469.051 -19617.619)" fill="#455a64"/>
      <path id="Path_3285" data-name="Path 3285" d="M411.388,17.551a3.049,3.049,0,0,0,.7.489,15.2,15.2,0,0,0,2.079,1.056,20.228,20.228,0,0,0,3.293,1.081,23.2,23.2,0,0,0,4.21.557,23.1,23.1,0,0,0,4.237-.287,20.209,20.209,0,0,0,3.355-.869,15.3,15.3,0,0,0,2.142-.919,3.183,3.183,0,0,0,.732-.443c-.038-.078-1.119.478-2.976,1.056a23.261,23.261,0,0,1-3.319.759,25.207,25.207,0,0,1-4.157.246,25.219,25.219,0,0,1-4.132-.511,23.246,23.246,0,0,1-3.263-.97c-1.817-.7-2.86-1.32-2.9-1.245" transform="translate(-1469.711 -19609.684)" fill="#455a64"/>
      <path id="Path_3286" data-name="Path 3286" d="M421.488,37.41c.389.4,2.649-1.423,5.929-1.512,3.274-.137,5.728,1.521,6.071,1.1.17-.187-.235-.911-1.3-1.661a8.208,8.208,0,0,0-4.875-1.383,7.912,7.912,0,0,0-4.705,1.712c-.986.821-1.307,1.569-1.116,1.745" transform="translate(-1463.803 -19600.039)" fill="#263238"/>
      <path id="Path_3287" data-name="Path 3287" d="M422.636,41.179a2.654,2.654,0,0,0,2.747,2.484,2.539,2.539,0,0,0,2.553-2.585,2.655,2.655,0,0,0-2.746-2.485,2.539,2.539,0,0,0-2.555,2.587" transform="translate(-1463.099 -19597.311)" fill="#263238"/>
      <path id="Path_3288" data-name="Path 3288" d="M460.449,86.99l-70.82,46.345L346.477,99.683l-13.444,21.288s25.126,29.071,34.436,38.946,15.518,15.148,22.854,14.2,68.659-24.764,68.659-24.764l9.3-65.009-3.9.942a12.585,12.585,0,0,0-3.933,1.7" transform="translate(-1515.78 -19570.408)" fill="#2b4591"/>
      <path id="Path_3289" data-name="Path 3289" d="M498.675,76.043C482.83,86,466.861,89.745,450.688,83.3l-24.312,6.211-11.819,20.545a18.609,18.609,0,0,0-2.425,10.663l4.645,78.644-14.32,49.952,140.242,1.22-6.909-37.117L518.4,80.057Z" transform="translate(-1474.962 -19575.291)" fill="#2b4591"/>
      <path id="Path_3290" data-name="Path 3290" d="M484.175,144.515,473.787,78.337s33.01,3.062,43.932,26.351c9.205,19.626,36.833,76.675,39.553,84.752,7.979,23.7-6.7,58.284-58.1,56.4l-5.041-30.281,16.411-7.872,1.026-2.636-3.485-8.042Z" transform="translate(-1433.023 -19573.941)" fill="#2b4591"/>
      <path id="Path_3291" data-name="Path 3291" d="M493.156,147.829a14.14,14.14,0,0,0,.821,2.369c.565,1.442,1.407,3.408,2.374,5.559.943,2.1,1.8,3.994,2.477,5.507a17.81,17.81,0,0,0,1.078,2.261,14.132,14.132,0,0,0-.821-2.369c-.565-1.442-1.407-3.408-2.374-5.561l-2.477-5.505a17.8,17.8,0,0,0-1.078-2.261" transform="translate(-1421.638 -19533.082)" fill="#263238"/>
      <path id="Path_3292" data-name="Path 3292" d="M481.723,124.3c.11,0,.2-3.817.2-8.524s-.089-8.524-.2-8.524-.2,3.816-.2,8.524.087,8.524.2,8.524" transform="translate(-1428.473 -19556.941)" fill="#263238"/>
      <path id="Path_3293" data-name="Path 3293" d="M484.711,109.782a4.853,4.853,0,0,0,.3-.951c.162-.618.426-1.505.785-2.588A41.839,41.839,0,0,1,494.769,91c.773-.838,1.42-1.5,1.882-1.942a4.849,4.849,0,0,0,.684-.727,4.895,4.895,0,0,0-.788.613c-.5.41-1.177,1.045-1.982,1.864a37.654,37.654,0,0,0-9.034,15.354c-.327,1.1-.551,2.006-.669,2.638a4.759,4.759,0,0,0-.152.986" transform="translate(-1426.604 -19568.068)" fill="#263238"/>
      <path id="Path_3294" data-name="Path 3294" d="M412.2,99.493a9.03,9.03,0,0,1,.187,1.966c.078,1.269.1,3.108.062,5.378-.057,4.545-.527,10.8-1.08,17.69s-.819,13.132-.7,17.652c.052,2.258.133,4.087.237,5.348a9.222,9.222,0,0,1,.051,1.972,8.986,8.986,0,0,1-.372-1.94c-.2-1.256-.373-3.089-.5-5.359a136.6,136.6,0,0,1,.461-17.736c.554-6.9,1.113-13.124,1.32-17.645.11-2.26.179-4.089.2-5.355a9.129,9.129,0,0,1,.135-1.971" transform="translate(-1470.551 -19561.502)" fill="#263238"/>
      <path id="Path_3295" data-name="Path 3295" d="M518.142,154.8a17.587,17.587,0,0,1-2.258,1.269c-1.47.78-3.574,1.945-6.128,3.473s-5.571,3.411-9.086,5.229c-1.756.908-3.628,1.812-5.6,2.669l-6.141,2.539c-.646.264-1.288.527-1.887.773l.252-.448c1.348,8.526,2.514,16.161,3.314,21.668.368,2.649.673,4.838.907,6.512a13.864,13.864,0,0,1,.222,2.395,13.939,13.939,0,0,1-.53-2.345c-.3-1.664-.688-3.84-1.158-6.472-.948-5.485-2.207-13.1-3.57-21.626l-.052-.322.306-.125c.6-.246,1.237-.51,1.882-.773q3.149-1.293,6.131-2.517c1.963-.842,3.824-1.721,5.575-2.6,3.5-1.764,6.538-3.6,9.142-5.056s4.758-2.563,6.276-3.257c.756-.356,1.356-.6,1.763-.767a2.1,2.1,0,0,1,.64-.213" transform="translate(-1425.591 -19528.984)" fill="#263238"/>
      <path id="Path_3296" data-name="Path 3296" d="M519.49,148.313c.027.145-1.663.464-4.235,1.421a32.186,32.186,0,0,0-16.194,13.356c-1.428,2.342-2.063,3.941-2.2,3.886a3.481,3.481,0,0,1,.322-1.17,20.294,20.294,0,0,1,1.372-3.009,29.108,29.108,0,0,1,16.508-13.617,20.274,20.274,0,0,1,3.214-.773,3.47,3.47,0,0,1,1.212-.094" transform="translate(-1419.463 -19532.813)" fill="#263238"/>
      <path id="Path_3297" data-name="Path 3297" d="M523.377,222.932l34.46-83.141c1.572-3.794-.4-6.87-4.407-6.87H546.5c-2.83,0-4.757-1.558-4.94-3.991l-.229-3.057c-.184-2.434-2.115-3.992-4.946-3.992H503.439a11.529,11.529,0,0,0-7.629,3.376l-2.674,2.59a11.519,11.519,0,0,1-7.622,3.374H443.555a11.709,11.709,0,0,0-10.022,6.871l-34.162,84.838Z" transform="translate(-1476.776 -19548.338)" fill="#129fa1"/>
      <g id="Group_3629" data-name="Group 3629" transform="translate(-1077.402 -19426.455)" opacity="0.3">
        <g id="Group_3628" data-name="Group 3628" transform="translate(0 0)">
          <g id="Group_3627" data-name="Group 3627" clip-path="url(#clip-path)">
            <path id="Path_3298" data-name="Path 3298" d="M523.377,222.932l34.46-83.141c1.572-3.794-.4-6.87-4.407-6.87H546.5c-2.83,0-4.757-1.558-4.94-3.991l-.229-3.057c-.184-2.434-2.115-3.992-4.946-3.992H503.439a11.529,11.529,0,0,0-7.629,3.376l-2.674,2.59a11.519,11.519,0,0,1-7.622,3.374H443.555a11.709,11.709,0,0,0-10.022,6.871l-34.162,84.838Z" transform="translate(-399.374 -121.884)"/>
          </g>
        </g>
      </g>
      <path id="Path_3299" data-name="Path 3299" d="M524.259,188.8l13-50.249c.854-3.308-1.312-6.628-4.327-6.628H431.059a4.647,4.647,0,0,0-4.338,3.743L407.8,211.294c-.832,3.32.5,5.313,3.516,5.275l102.5.032a4.65,4.65,0,0,0,4.281-3.713Z" transform="translate(-1471.962 -19542.439)" fill="#e0e0e0"/>
      <path id="Path_3300" data-name="Path 3300" d="M515.439,215.307l5.536-79.131a4.852,4.852,0,0,0-4.84-5.193H410.585v84.324Z" transform="translate(-1470.183 -19542.986)" fill="#ebebeb"/>
      <path id="Path_3301" data-name="Path 3301" d="M525.844,217.118,513.287,135.54a5.843,5.843,0,0,0-5.739-4.556H400.774a5.772,5.772,0,0,0-5.391,8.04l23.056,74.656Z" transform="translate(-1479.406 -19542.986)" fill="#fafafa"/>
      <path id="Path_3302" data-name="Path 3302" d="M532.4,215.75l-25.9-76.4a7.663,7.663,0,0,0-7.2-5.312H389.223a5.379,5.379,0,0,0-4.916,7.136l24.085,74.615Z" transform="translate(-1485.795 -19541.193)" fill="#129fa1"/>
      <g id="Group_3632" data-name="Group 3632" transform="translate(-1008.367 -19371.066)" opacity="0.3">
        <g id="Group_3631" data-name="Group 3631" transform="translate(0 0)">
          <g id="Group_3630" data-name="Group 3630" clip-path="url(#clip-path-2)">
            <path id="Path_3303" data-name="Path 3303" d="M444.594,189.6s4.156.189,6.072.321a56.569,56.569,0,0,0,26.746-4.745c2.59-1.154,5.329-2.784,6.114-5.509.877-3.052-1.1-6.228-3.509-8.3s-5.34-3.541-7.433-5.931-3.082-6.255-1.021-8.67l.57.416c1.49,3.773,5.636,5.593,9.07,7.752a32.009,32.009,0,0,1,13.44,17.568c1.208,3.956,1.532,8.57-.867,11.94-1.7,2.39-4.486,3.749-7.238,4.77-8.327,3.087-17.228,3.2-26.109,3.212-2.806,0-11.419-.114-11.419-.114-2.708-.737-3.6-2.147-5.231-4.43-1.5-2.1-1.169-6.639.815-8.283" transform="translate(-442.847 -156.762)"/>
          </g>
        </g>
      </g>
      <path id="Path_3304" data-name="Path 3304" d="M443.947,190.269l28.71-4.316L483.8,179.54a5.025,5.025,0,0,0,2.561-4.049q0-.048,0-.1a5.086,5.086,0,0,0-3.154-4.858c-3.536-1.491-9.139-3.473-11.527-7.657-3.435-6.015,0-7.263,0-7.263l23.975,9.583,16.97,11.551,3.414,19.26-23.68,7.733s-26.387,1.488-33.668.672-7.281-4.208-7.281-4.208c-1.351-.424-4.084-2.823-4.084-5.061-3.533-3.314-3.389-4.878-3.389-4.878" transform="translate(-1450.568 -19528.504)" fill="#f5ccb0"/>
      <path id="Path_3305" data-name="Path 3305" d="M478.268,182.661a5.736,5.736,0,0,0-1.183.225c-.75.183-1.842.424-3.193.694a67.533,67.533,0,0,1-21.428.835c-1.369-.164-2.476-.319-3.236-.441a5.666,5.666,0,0,0-1.2-.133,5.837,5.837,0,0,0,1.161.319c.754.181,1.856.391,3.227.6a58.322,58.322,0,0,0,21.547-.84c1.35-.314,2.433-.608,3.17-.848a5.737,5.737,0,0,0,1.134-.41" transform="translate(-1448.167 -19512.605)" fill="#eaae94"/>
      <path id="Path_3306" data-name="Path 3306" d="M476.792,179.866a5.942,5.942,0,0,0-1.2.229c-.762.184-1.871.426-3.244.689a69.55,69.55,0,0,1-10.852,1.2,73.708,73.708,0,0,1-10.912-.5c-1.389-.167-2.514-.327-3.287-.453a5.858,5.858,0,0,0-1.215-.137,5.89,5.89,0,0,0,1.18.324c.765.184,1.885.4,3.276.608a61.842,61.842,0,0,0,10.973.646,58.906,58.906,0,0,0,10.908-1.35c1.372-.308,2.474-.6,3.224-.843a5.874,5.874,0,0,0,1.151-.413" transform="translate(-1449.313 -19514.248)" fill="#eaae94"/>
      <path id="Path_3347" data-name="Path 3347" d="M174.114,144.765a26.736,26.736,0,0,1,13.695,11.9c5.14,9.107,3.768,13.6,2.423,18.982s-3.713,16.059-3.846,15.371-12.272-46.254-12.272-46.254" transform="translate(-1609.218 -19534.883)" fill="#ffbe9d"/>
      <rect id="Rectangle_2172" data-name="Rectangle 2172" width="369.815" height="274.658" transform="translate(-1651.814 -19501.064)" fill="#fff"/>
      <path id="Path_3348" data-name="Path 3348" d="M407.611,349.71c0-2.8-.133-108.391-.338-274.658l.338.338-369.785.075H37.8l.413-.413c-.014,98.661-.029,192.137-.04,274.658l-.373-.373,369.815.373L37.8,350.084l-.375,0v-.375c-.011-82.521-.025-176-.04-274.658v-.414h.445l369.785.076h.338v.338c-.2,166.267-.335,271.863-.338,274.658" transform="translate(-1689.611 -19576.117)" fill="#263238"/>
      <path id="Path_3349" data-name="Path 3349" d="M405.71,99.23c0,.229-81.975.413-183.071.413-101.129,0-183.085-.184-183.085-.413s81.956-.413,183.085-.413c101.1,0,183.071.184,183.071.413" transform="translate(-1688.334 -19561.9)" fill="#e0e0e0"/>
      <path id="Path_3350" data-name="Path 3350" d="M56.9,88.47a5.441,5.441,0,1,1-5.44-5.44,5.442,5.442,0,0,1,5.44,5.44" transform="translate(-1684.531 -19571.182)" fill="#e0e0e0"/>
      <path id="Path_3351" data-name="Path 3351" d="M67.229,88.47a5.441,5.441,0,1,1-5.44-5.44,5.442,5.442,0,0,1,5.44,5.44" transform="translate(-1678.46 -19571.182)" fill="#e0e0e0"/>
      <path id="Path_3352" data-name="Path 3352" d="M77.554,88.47a5.441,5.441,0,1,1-5.44-5.44,5.442,5.442,0,0,1,5.44,5.44" transform="translate(-1672.389 -19571.182)" fill="#e0e0e0"/>
      <path id="Path_3353" data-name="Path 3353" d="M197.029,79.437c-1.237-4.47-3.663-8.853-7.67-11.194-1.9-1.108-4.062-1.7-5.995-2.758-2.333-1.27-4.257-3.163-6.441-4.675a22.959,22.959,0,0,0-33.55,8.488c-4.508-3.436-12.329-1.985-17.663-.065s-9.8,8.28-11.081,13.8l25.031,7.57c5.008,5.471,10.573,10.547,17.1,14.079s14.1,5.436,21.43,4.33,14.328-5.493,17.639-12.13c2.661-5.334,2.793-11.7,1.2-17.447" transform="translate(-1644.192 -19586.637)" fill="#263238"/>
      <path id="Path_3354" data-name="Path 3354" d="M195.646,151.264c6.36-4.448,7.889-14.441,3.151-20.586-1.41-1.829-3.339-3.482-3.657-5.771a11.317,11.317,0,0,1,.607-4.187,24.729,24.729,0,0,0-9.075-25.148c-.132-5.132-3.008-15.976-9.517-20.124L147.582,79.6q2.017,46.715-.272,93.482c-.233,4.772-.408,9.91,2.2,13.912,3.7,5.674,11.422,6.854,18.195,7.027,6.479.167,13.083-.111,19.2-2.255s11.741-6.38,14.3-12.334c3.944-9.166-.125-19.8-5.563-28.17" transform="translate(-1625.05 -19575.641)" fill="#263238"/>
      <path id="Path_3355" data-name="Path 3355" d="M121.238,90.641l-.9-6.628,39.022-12.178c12.153-2.715,26.873,8.083,29.071,20.339,2.442,13.617,4.886,30.338,4.438,40.76-.9,20.953-16.372,25.387-16.372,25.387l1.583,12.423a22.954,22.954,0,0,1-45.527,5.9Z" transform="translate(-1640.834 -19578.012)" fill="#d8ac9b"/>
      <path id="Path_3356" data-name="Path 3356" d="M163.488,94.968a2.653,2.653,0,0,1-2.239,2.955,2.54,2.54,0,0,1-2.993-2.066A2.657,2.657,0,0,1,160.49,92.9a2.543,2.543,0,0,1,3,2.068" transform="translate(-1618.559 -19565.402)" fill="#263238"/>
      <path id="Path_3357" data-name="Path 3357" d="M164.985,91.131c-.287.381-2.458-.869-5.3-.534-2.841.292-4.758,1.993-5.105,1.682-.17-.137.092-.8.924-1.561a7.274,7.274,0,0,1,4.038-1.772,6.993,6.993,0,0,1,4.264.854c.951.57,1.318,1.158,1.175,1.331" transform="translate(-1620.73 -19567.73)" fill="#263238"/>
      <path id="Path_3358" data-name="Path 3358" d="M146.792,97.24a2.658,2.658,0,0,1-2.239,2.955,2.54,2.54,0,0,1-2.993-2.066,2.657,2.657,0,0,1,2.236-2.957,2.542,2.542,0,0,1,3,2.068" transform="translate(-1628.375 -19564.066)" fill="#263238"/>
      <path id="Path_3359" data-name="Path 3359" d="M147.444,93.487c-.287.381-2.46-.867-5.3-.534-2.841.294-4.756,1.994-5.105,1.682-.168-.137.091-.8.926-1.561A7.279,7.279,0,0,1,142,91.3a7,7,0,0,1,4.265.854c.948.57,1.318,1.159,1.175,1.331" transform="translate(-1631.044 -19566.344)" fill="#263238"/>
      <path id="Path_3360" data-name="Path 3360" d="M153.086,113.886c-.032-.16,1.7-.667,4.519-1.362.716-.159,1.386-.381,1.451-.891a3.73,3.73,0,0,0-.732-2.093q-1.324-2.515-2.779-5.275c-3.884-7.521-6.784-13.737-6.479-13.891s3.7,5.817,7.581,13.337q1.408,2.784,2.693,5.318a4.234,4.234,0,0,1,.705,2.8,1.834,1.834,0,0,1-1.072,1.2,4.894,4.894,0,0,1-1.212.313c-2.863.486-4.646.705-4.677.545" transform="translate(-1623.958 -19566.867)" fill="#263238"/>
      <path id="Path_3361" data-name="Path 3361" d="M166.486,127.71a54.837,54.837,0,0,1-29.114-4.143s8.608,13.61,29.69,9.275Z" transform="translate(-1630.821 -19547.348)" fill="#aa6550"/>
      <path id="Path_3362" data-name="Path 3362" d="M154.4,110.132a5.154,5.154,0,0,0-4.807-1.374,4.7,4.7,0,0,0-3.027,2.1,2.979,2.979,0,0,0,.165,3.411,3.455,3.455,0,0,0,3.83.513,10.818,10.818,0,0,0,3.381-2.584,3.165,3.165,0,0,0,.715-.934.955.955,0,0,0-.125-1.056" transform="translate(-1625.682 -19556.129)" fill="#aa6550"/>
      <path id="Path_3363" data-name="Path 3363" d="M146.587,107.022c.459-.081.819,3,3.709,4.886s6.133,1.169,6.206,1.6c.065.189-.662.683-2.045.88a7.726,7.726,0,0,1-5.161-1.158,6.725,6.725,0,0,1-2.912-4.119c-.265-1.275-.01-2.079.2-2.085" transform="translate(-1625.589 -19557.076)" fill="#263238"/>
      <path id="Path_3364" data-name="Path 3364" d="M147.977,86.184c-.191.805-3.07.764-6.355,1.55-3.3.718-5.875,2-6.4,1.361-.235-.308.149-1.088,1.15-1.961a11.363,11.363,0,0,1,9.715-2.218c1.28.353,1.966.888,1.888,1.269" transform="translate(-1632.123 -19570.254)" fill="#263238"/>
      <path id="Path_3365" data-name="Path 3365" d="M163.467,86.1c-.426.7-2.458.257-4.815.5-2.364.156-4.3.934-4.832.311-.238-.3,0-.988.8-1.7a7.005,7.005,0,0,1,7.771-.651c.908.567,1.258,1.2,1.073,1.54" transform="translate(-1621.201 -19570.799)" fill="#263238"/>
      <path id="Path_3366" data-name="Path 3366" d="M126.516,71.765c-4.045,1.328-8.616,12.367-7.43,16.456s5,7.055,9.124,8.1,8.513.421,12.586-.816c5.761-1.75,11.838-5.718,12.25-11.725a23.411,23.411,0,0,0,22.028,6.05c7.717-1.994,13.436-13.8,15.6-21.466Z" transform="translate(-1641.685 -19579.805)" fill="#263238"/>
      <path id="Path_3367" data-name="Path 3367" d="M157.64,100.977c-.094.006-.046-1.04-.521-2.811a11.634,11.634,0,0,0-4.265-6.231,11.345,11.345,0,0,0-10.728-1.559A11.17,11.17,0,0,0,136.9,94.32a11.236,11.236,0,0,0,0,13.313,11.177,11.177,0,0,0,5.226,3.945,11.347,11.347,0,0,0,10.73-1.559,11.627,11.627,0,0,0,4.264-6.233c.475-1.769.427-2.814.521-2.809a2.581,2.581,0,0,1,.046.75,9.151,9.151,0,0,1-.256,2.139,11.607,11.607,0,0,1-4.221,6.619,11.8,11.8,0,0,1-5.021,2.291,12.017,12.017,0,1,1,0-23.6,11.8,11.8,0,0,1,5.02,2.291,11.606,11.606,0,0,1,4.222,6.619,9.151,9.151,0,0,1,.256,2.139,2.581,2.581,0,0,1-.046.75" transform="translate(-1632.869 -19567.691)" fill="#455a64"/>
      <path id="Path_3368" data-name="Path 3368" d="M176.042,97.661c-.094,0-.048-1.04-.521-2.811a11.637,11.637,0,0,0-4.265-6.233,11.351,11.351,0,0,0-10.728-1.558A11.169,11.169,0,0,0,155.3,91a11.238,11.238,0,0,0,0,13.315,11.177,11.177,0,0,0,5.226,3.944,11.343,11.343,0,0,0,10.728-1.559,11.628,11.628,0,0,0,4.265-6.233c.473-1.769.427-2.815.521-2.809a2.573,2.573,0,0,1,.046.748,9.153,9.153,0,0,1-.256,2.141,11.607,11.607,0,0,1-4.221,6.619,11.8,11.8,0,0,1-5.021,2.291,12,12,0,0,1-6.322-.481,11.879,11.879,0,0,1-5.62-4.181,11.976,11.976,0,0,1,0-14.274,11.932,11.932,0,0,1,16.959-2.369,11.6,11.6,0,0,1,4.222,6.619,9.151,9.151,0,0,1,.256,2.139,2.58,2.58,0,0,1-.046.75" transform="translate(-1622.049 -19569.643)" fill="#455a64"/>
      <path id="Path_3369" data-name="Path 3369" d="M147.769,93.82c-.1-.017-.114-.562.275-1.323a4.292,4.292,0,0,1,5.785-1.8c.754.4,1.048.859.978.932-.079.1-.494-.171-1.205-.4a4.474,4.474,0,0,0-5.064,1.58c-.461.588-.648,1.042-.769,1.008" transform="translate(-1624.743 -19566.961)" fill="#455a64"/>
      <path id="Path_3370" data-name="Path 3370" d="M137.32,98.285c.081.214-1.931,1.085-4.492,1.944s-4.692,1.378-4.756,1.159,1.947-1.089,4.492-1.944,4.675-1.372,4.756-1.159" transform="translate(-1636.29 -19562.24)" fill="#455a64"/>
      <path id="Path_3371" data-name="Path 3371" d="M275.253,125.062c3.413-1.32,2-4.869,2-4.869l-12.686,3.822s6.733-2.728,10.184-5.551,1.729-5.278,1.729-5.278l-13.072,5.047-7.389,4.353-18.5,28.245s14.46,7.071,17.02,5.032c4.5-3.584,6.957-11.587,7.959-15.656,1.812-.524,7.524-2.225,9.066-3.252a8.536,8.536,0,0,0,2.715-3.066l-10.074,1.92c1.461-.427,10.8-3.627,11.541-4.77,1.3-2.009.483-2.9.483-2.9l-12.653,1.974,1.3-.951s7.085-2.823,10.374-4.1" transform="translate(-1571.939 -19553.451)" fill="#d8ac9b"/>
      <path id="Path_3372" data-name="Path 3372" d="M277.453,139.55l-42.575,38.98c-5.286-1.218-70.113-39.972-70.113-39.972L154.52,188.423s66.346,30.5,84.6,26.8c2.981-.6,7.884-.985,10.958-4.935,14.606-18.77,45.592-65.21,45.592-65.21Z" transform="translate(-1620.739 -19538.533)" fill="#d8ac9b"/>
      <path id="Path_3373" data-name="Path 3373" d="M260.829,151.094l-7.679-3.708,5.55-10.057,4.346-9.2,6.746-12.524-10.28,3.859a7.942,7.942,0,0,0-3.1,2.369l-16.918,23.362-7.5,7.643,7.238,19.472,8.505-13.277,4.975-1.159c4.975-1.159,8.119-6.776,8.119-6.776" transform="translate(-1575.188 -19552.031)" fill="#d8ac9b"/>
      <path id="Path_3374" data-name="Path 3374" d="M243.643,129.789a64.455,64.455,0,0,1,11.028-4.31,9.14,9.14,0,0,1,3.811-.494,3.433,3.433,0,0,1,2.888,2.25,3.6,3.6,0,0,1-1.766,3.717,13.737,13.737,0,0,1-4.133,1.451,7.186,7.186,0,0,0-3.83,2.023,11.815,11.815,0,0,0-1.636,3.779,13.3,13.3,0,0,1-9.795,8.4" transform="translate(-1570.356 -19546.545)" fill="#d8ac9b"/>
      <path id="Path_3375" data-name="Path 3375" d="M240.212,146.735c-.014-.067.681-.206,1.853-.675a13.674,13.674,0,0,0,4.424-2.887,12.96,12.96,0,0,0,2.239-2.865,18.112,18.112,0,0,0,1.555-3.911,6.374,6.374,0,0,1,1.146-2.147,5.748,5.748,0,0,1,2.095-1.462c1.577-.692,3.314-.859,4.853-1.5a4.778,4.778,0,0,0,1.945-1.353,3.028,3.028,0,0,0,.765-2.034c-.071-1.459-1.617-2.406-2.968-2.485a11.8,11.8,0,0,0-4.073.694c-1.281.373-2.466.754-3.538,1.127-2.145.75-3.848,1.451-5.02,1.947a12.079,12.079,0,0,1-1.845.727,8.683,8.683,0,0,1,1.721-.992,52.845,52.845,0,0,1,4.961-2.18c1.07-.408,2.255-.823,3.541-1.226a12.12,12.12,0,0,1,4.308-.788,4.45,4.45,0,0,1,2.336.837,3.111,3.111,0,0,1,1.312,2.3,4.531,4.531,0,0,1-3.158,4.124c-1.69.688-3.406.845-4.848,1.478a5.052,5.052,0,0,0-1.845,1.259,5.748,5.748,0,0,0-1.037,1.9,18,18,0,0,1-1.669,4,13.137,13.137,0,0,1-2.41,2.936,12.879,12.879,0,0,1-4.688,2.774,8.888,8.888,0,0,1-1.439.359c-.335.052-.511.067-.516.041" transform="translate(-1570.355 -19546.672)" fill="#aa6550"/>
      <path id="Path_3376" data-name="Path 3376" d="M198.162,226.911H110.9s-12.885,16.215-21.377,33.107l124.372.513c2.441-4-15.737-33.62-15.737-33.62" transform="translate(-1658.952 -19486.586)" fill="#263238"/>
      <path id="Path_3377" data-name="Path 3377" d="M219.757,202.219c-2.954-39.062-12.646-63.606-12.646-63.606L192,133.964c-2.285,9.982-18.554,13.28-27.816,8.913l-9.8-5.126c-31.456-4.718-29.828-2.107-37.1,2.263-6.318,3.8-5.737,32.134-5.737,32.134s-15.679,73.835-14.824,85.678S106.7,281.56,106.7,281.56h87.258c8.786,0,11.3-19.867,10.682-27.076s16.089-39.426,15.119-52.264" transform="translate(-1654.745 -19541.234)" fill="#f6b432"/>
      <path id="Path_3378" data-name="Path 3378" d="M122,195.574a6.884,6.884,0,0,0,1.463,1.237,27.607,27.607,0,0,0,11.964,4.865,25.6,25.6,0,0,0,9.521-.411,31.381,31.381,0,0,0,14.812-8.594,36.683,36.683,0,0,0,3.406-3.956,7.242,7.242,0,0,0,1.023-1.618c-.132-.1-1.715,2.12-4.88,5.105a32.693,32.693,0,0,1-14.571,8.165,26.684,26.684,0,0,1-16.5-1.521c-4-1.7-6.139-3.427-6.241-3.273" transform="translate(-1639.858 -19509.996)" fill="#263238"/>
      <g id="Group_3641" data-name="Group 3641" transform="translate(-1517.514 -19321.373)" opacity="0.3">
        <g id="Group_3640" data-name="Group 3640" transform="translate(0 0)">
          <g id="Group_3639" data-name="Group 3639" clip-path="url(#clip-path-3)">
            <path id="Path_3379" data-name="Path 3379" d="M162.608,188.54a25.42,25.42,0,0,1-8.964,17.147,21.09,21.09,0,0,1-18.673,4.068A18.062,18.062,0,0,1,122.218,195.9c4.488,2.044,9.047,4.111,13.923,4.848a27.345,27.345,0,0,0,26.887-12.691c-.238.251-.475.5-.711.751" transform="translate(-122.216 -188.057)" fill="#765613"/>
          </g>
        </g>
      </g>
      <path id="Path_3380" data-name="Path 3380" d="M84.929,198.912,128.9,219.528s17.926-39.654,19.467-45.076,6.377-14,1.42-25.307-18.246-15.457-25.6-10.639c-16.456,10.779-39.256,60.406-39.256,60.406" transform="translate(-1661.655 -19539.727)" fill="#f6b432"/>
      <path id="Path_3381" data-name="Path 3381" d="M175.4,200.791c2.053,0,25.628,12.332,25.628,12.332l13.423-44.464c-20.045-13.356-36.5-28.615-48.226-31.767l6.166,36.745Z" transform="translate(-1613.858 -19539.512)" fill="#f6b432"/>
      <path id="Path_3382" data-name="Path 3382" d="M84.929,182.115a3.82,3.82,0,0,1,.873.308l2.434,1.034,8.886,3.945,29.183,13.305,3.56,1.64-.556.2c5.075-10.457,9.521-19.815,12.67-26.567l3.676-7.986c.4-.873.727-1.586.991-2.163a3.159,3.159,0,0,1,.394-.732,3.249,3.249,0,0,1-.245.794c-.187.51-.462,1.264-.851,2.223-.769,1.923-1.939,4.688-3.443,8.1-3.014,6.822-7.373,16.226-12.434,26.7l-.179.372-.376-.173-3.562-1.639-29.08-13.531L88.1,183.755l-2.368-1.177a3.736,3.736,0,0,1-.8-.464" transform="translate(-1661.655 -19522.93)" fill="#263238"/>
      <path id="Path_3383" data-name="Path 3383" d="M170.311,154.141a20,20,0,0,1,.911,2.734c.586,1.9,1.367,4.435,2.314,7.508,1.906,6.323,4.681,15.235,4.808,25.495A53.986,53.986,0,0,1,176,204.02c-1.223,4.237-2.641,7.94-3.848,11.032s-2.258,5.564-2.973,7.276A19.682,19.682,0,0,1,168,224.959a2.539,2.539,0,0,1,.187-.726c.191-.554.419-1.22.694-2.021.691-1.866,1.61-4.353,2.727-7.37,1.134-3.111,2.488-6.819,3.66-11.028a55.282,55.282,0,0,0,2.25-13.944c-.124-10.076-2.779-18.96-4.545-25.322-.9-3.19-1.615-5.783-2.061-7.584-.229-.9-.384-1.605-.487-2.083a2.606,2.606,0,0,1-.114-.74" transform="translate(-1612.816 -19529.373)" fill="#263238"/>
      <path id="Path_3384" data-name="Path 3384" d="M177.051,197.663c-.678-6.469-4.087-12.454-8.681-17.061-2.277-2.285-5.015-4.569-5.458-7.765-.573-4.141,3.012-8.021,2.431-12.161-.726-5.167-7.193-7.413-9.5-12.091-3.108-6.29,2.306-14.466-1.027-20.64-2.007-3.719-6.793-5.72-7.756-9.836-.624-2.663,4.454-6.552,5.636-12.334,2.654-13,4-23.054-8.623-30.622L136.7,65.048c-8.265,4.032-15.208,13.107-15.351,22.59-.067,4.483,2.229,8.977.278,13.012-2.723,5.631-9.067,9.1-10.982,15.052-2.741,8.519,4.807,18.052,1.512,26.374-1.944,4.905-7.066,7.706-10.28,11.892a18.159,18.159,0,0,0,1.159,22.77,22.9,22.9,0,0,0-8.626,25.623c1.315,3.856,4.291,7.679,8.357,7.9,5.825.322,9.147-6.269,13.41-10.25,6.627-6.187,18.238-5.883,24.532.642C145.19,205.308,147,212.3,152.223,216.1c5.261,3.827,13.07,3.133,18.125-.961s7.381-11.011,6.7-17.48" transform="translate(-1656.732 -19581.754)" fill="#263238"/>
      <path id="Path_3385" data-name="Path 3385" d="M129.126,192.963c-8.327,13.683-14.136,21.553-14.136,21.553L189.669,260l-8.7,20.215L84.108,240.345s-9.545-9.826-6.177-20.775l15.443-42.622Z" transform="translate(-1666.193 -19515.963)" fill="#d8ac9b"/>
      <path id="Path_3386" data-name="Path 3386" d="M89.563,207.622c.176.232,3.7-2.733,8.937-4.643,5.216-1.967,9.823-2.021,9.806-2.31.043-.218-4.719-.584-10.125,1.448-5.421,1.983-8.793,5.369-8.618,5.505" transform="translate(-1658.934 -19502.117)" fill="#aa6550"/>
      <path id="Path_3387" data-name="Path 3387" d="M209.192,243.1l-18.627-8.91-36.35-2.884-2.965-2.056-8.7,20.213s9.528,4.556,14.519,4.962l30.562-.926,15.978,1.678Z" transform="translate(-1627.777 -19485.213)" fill="#d8ac9b"/>
      <path id="Path_3388" data-name="Path 3388" d="M317.341,192.787l-104.788.851c-3.4,0-6.647,1.634-7.157,4.994l-11.452,76.374H139.97a3.147,3.147,0,0,0,0,6.293H312.358l11.781-80.606a6.876,6.876,0,0,0-6.8-7.906" transform="translate(-1631.143 -19506.648)" fill="#e0e0e0"/>
      <path id="Path_3389" data-name="Path 3389" d="M317.5,192.8a5.515,5.515,0,0,1,1.651.156,6.923,6.923,0,0,1,5.3,6,19.447,19.447,0,0,1-.384,4.311c-.438,3.087-.945,6.641-1.512,10.636-2.307,16.013-5.631,39.089-9.717,67.46l-.04.276h-.281l-167.242.1h-4.5a4.371,4.371,0,0,1-2.382-.453,3.572,3.572,0,0,1,.016-6.244,4.37,4.37,0,0,1,2.361-.443h2.217l17.515,0,33.6.011-.4.348c4.122-27.353,7.968-52.868,11.417-75.758a5.934,5.934,0,0,1,1.939-3.991,7.792,7.792,0,0,1,4.006-1.767,34.7,34.7,0,0,1,4.226-.149l4.114-.027,15.776-.106,28.037-.178,39.913-.2,10.679-.019,2.757.013c.619.006.935.029.935.029s-.316.027-.935.044l-2.757.057-10.677.154-39.913.443c-8.516.086-17.895.178-28.037.278l-15.775.151-4.114.038a34.632,34.632,0,0,0-4.122.151,7.116,7.116,0,0,0-3.654,1.612,5.219,5.219,0,0,0-1.7,3.578c-3.416,22.9-7.224,48.417-11.3,75.774l-.051.348H194.1l-33.6.011-17.515,0h-2.217a3.517,3.517,0,0,0-1.953.338,2.726,2.726,0,0,0-.011,4.766,3.52,3.52,0,0,0,1.969.345h4.5l167.242.1-.319.278c4.2-28.353,7.625-51.416,10-67.42.6-3.991,1.132-7.54,1.6-10.623a19.446,19.446,0,0,0,.427-4.246A6.7,6.7,0,0,0,323,195.723a6.857,6.857,0,0,0-3.871-2.673,13.544,13.544,0,0,0-1.629-.248" transform="translate(-1631.301 -19506.664)" fill="#263238"/>
      <path id="Path_3390" data-name="Path 3390" d="M210.578,222.475a6.561,6.561,0,1,0,6.561-6.561,6.561,6.561,0,0,0-6.561,6.561" transform="translate(-1587.779 -19493.051)" fill="#fff"/>
      <path id="Path_3391" data-name="Path 3391" d="M175.472,280.28c.149.024,3.484-19.424,7.449-43.432s7.062-43.5,6.912-43.524-3.482,19.419-7.449,43.435-7.06,43.5-6.912,43.521" transform="translate(-1608.423 -19506.334)" fill="#263238"/>
    </g>
  </g>
</svg>
