<svg xmlns="http://www.w3.org/2000/svg" width="24" height="24" viewBox="0 0 24 24">
  <g id="Group_6051" data-name="Group 6051" transform="translate(-615 -421)">
    <rect id="Rectangle_1181" data-name="Rectangle 1181" width="24" height="24" transform="translate(615 421)" fill="none"/>
    <path id="new-tab" d="M16.333,17.222H5.667a.892.892,0,0,1-.889-.889V5.667a.892.892,0,0,1,.889-.889h4.444a.889.889,0,1,0,0-1.778H4.778A1.777,1.777,0,0,0,3,4.778V17.222A1.783,1.783,0,0,0,4.778,19H17.222A1.783,1.783,0,0,0,19,17.222V11.889a.889.889,0,1,0-1.778,0v4.444A.892.892,0,0,1,16.333,17.222ZM12.778,3.889a.892.892,0,0,0,.889.889h2.3L7.853,12.893a.886.886,0,0,0,1.253,1.253l8.116-8.116v2.3a.889.889,0,1,0,1.778,0V3H13.667A.892.892,0,0,0,12.778,3.889Z" transform="translate(616 422)"/>
  </g>
</svg>
