<svg xmlns="http://www.w3.org/2000/svg" width="24" height="24" viewBox="0 0 24 24">
  <g id="highlight_off" transform="translate(-7835 -6696)">
    <rect id="Rectangle_558" data-name="Rectangle 558" width="24" height="24" transform="translate(7835 6696)" fill="none"/>
    <path id="highlight_off-2" data-name="highlight_off" d="M14.59,8,12,10.59,9.41,8,8,9.41,10.59,12,8,14.59,9.41,16,12,13.41,14.59,16,16,14.59,13.41,12,16,9.41ZM12,2A10,10,0,1,0,22,12,9.991,9.991,0,0,0,12,2Zm0,18a8,8,0,1,1,8-8A8.011,8.011,0,0,1,12,20Z" transform="translate(7835 6696)" fill="#3e3e3e"/>
  </g>
</svg>
