<svg id="published_with_changes_black_24dp" xmlns="http://www.w3.org/2000/svg" width="24" height="24" viewBox="0 0 24 24">
  <rect id="Rectangle_1949" data-name="Rectangle 1949" width="24" height="24" fill="none"/>
  <path id="Path_2043" data-name="Path 2043" d="M14.591,8.064,8.907,13.748,5.5,10.339,6.631,9.206l2.275,2.275L13.457,6.93ZM3.608,10.05A6.389,6.389,0,0,1,5.715,5.322L7.628,7.236V2.412H2.8L4.573,4.181A8.021,8.021,0,0,0,9.236,18.05V16.426A6.436,6.436,0,0,1,3.608,10.05Zm14.472,0a8.039,8.039,0,0,0-7.236-8V3.674a6.4,6.4,0,0,1,3.522,11.1l-1.914-1.914v4.824h4.824l-1.769-1.769A7.986,7.986,0,0,0,18.08,10.05Z" transform="translate(2 1.95)" fill="#3e3e3e"/>
</svg>
