<svg id="icon_more" data-name="icon more" xmlns="http://www.w3.org/2000/svg" width="24" height="24" viewBox="0 0 24 24">
  <g id="Group_73" data-name="Group 73" transform="translate(-256 700) rotate(-90)">
    <rect id="Rectangle_348" data-name="Rectangle 348" width="24" height="24" transform="translate(700 256) rotate(90)" fill="none"/>
    <path id="Path_2063" data-name="Path 2063" d="M12,8a2,2,0,1,0-2-2A2.006,2.006,0,0,0,12,8Zm0,2a2,2,0,1,0,2,2A2.006,2.006,0,0,0,12,10Zm0,6a2,2,0,1,0,2,2A2.006,2.006,0,0,0,12,16Z" transform="translate(700 256) rotate(90)" fill="#3e3e3e"/>
  </g>
</svg>
