<svg id="list-icon" xmlns="http://www.w3.org/2000/svg" width="32" height="32" viewBox="0 0 32 32">
  <rect id="Rectangle_2140" data-name="Rectangle 2140" width="32" height="32" fill="none"/>
  <path id="Path_2869" data-name="Path 2869" d="M4.339,11.174A1.758,1.758,0,0,0,2.5,12.843a1.758,1.758,0,0,0,1.839,1.669,1.758,1.758,0,0,0,1.839-1.669A1.758,1.758,0,0,0,4.339,11.174Zm0-6.674A1.758,1.758,0,0,0,2.5,6.169,1.758,1.758,0,0,0,4.339,7.837,1.758,1.758,0,0,0,6.178,6.169,1.758,1.758,0,0,0,4.339,4.5Zm0,13.349A1.765,1.765,0,0,0,2.5,19.517a1.773,1.773,0,0,0,1.839,1.669,1.773,1.773,0,0,0,1.839-1.669A1.765,1.765,0,0,0,4.339,17.849Zm4.9,2.781H23.953a1.118,1.118,0,1,0,0-2.225H9.242a1.118,1.118,0,1,0,0,2.225Zm0-6.674H23.953a1.118,1.118,0,1,0,0-2.225H9.242a1.118,1.118,0,1,0,0,2.225ZM8.017,6.169A1.177,1.177,0,0,0,9.242,7.281H23.953a1.177,1.177,0,0,0,1.226-1.112,1.177,1.177,0,0,0-1.226-1.112H9.242A1.177,1.177,0,0,0,8.017,6.169Z" transform="translate(2.209 3.206)" fill="#643695"/>
</svg>
