<svg xmlns="http://www.w3.org/2000/svg" width="325.621" height="89.643" viewBox="0 0 325.621 89.643">
  <g id="logo" transform="translate(-797.379 -355.872)">
    <path id="Path_2021" data-name="Path 2021" d="M-7.64-.016l2.448-11.552h1.456L-4.808-6.72a3.606,3.606,0,0,1,2.72-1.232,1.709,1.709,0,0,1,1.5.744,3.552,3.552,0,0,1,.512,2.04,5.141,5.141,0,0,1-1.44,3.7A5.745,5.745,0,0,1-5.88.208,5.888,5.888,0,0,1-7.64-.016Zm6.16-5.232q0-1.568-1.3-1.568-1.952,0-2.512,2.448l-.8,3.456a2.43,2.43,0,0,0,.656.064A3.062,3.062,0,0,0-4.12-1.1,4.523,4.523,0,0,0-2.136-2.88,4.5,4.5,0,0,0-1.48-5.248ZM7.9-7.824h1.44L4.9-.08a14.3,14.3,0,0,1-1.536,2.3A3.163,3.163,0,0,1,1,3.312a3.526,3.526,0,0,1-.864-.128l.32-1.168a1.741,1.741,0,0,0,.656.144q1.2,0,2.16-1.84L1.992-7.824H3.56L4.248-2.88A9.528,9.528,0,0,1,4.36-1.664a3.438,3.438,0,0,1-.032.4A9.128,9.128,0,0,1,4.92-2.512Z" transform="translate(958 442.203)" fill="#fff"/>
    <g id="Musala-Logo-lettering" transform="translate(976.237 421.828)">
      <g id="Group_1" data-name="Group 1" transform="translate(0 0)">
        <path id="Path_2" data-name="Path 2" d="M22.909,134.633h6.663l1.355,14.51h.058l7.933-14.51h6.721l-4.3,20.135H37.073l3.807-16.674h-.058l-9.115,16.674H27.841l-1.615-16.674h-.058l-3.692,16.674H18.64Z" transform="translate(-18.64 -132.788)" fill="#fff"/>
        <path id="Path_3" data-name="Path 3" d="M53.675,151.523c-.174.894-.318,1.673-.375,2.134H49.521l.26-1.443h-.058A6.332,6.332,0,0,1,45.511,154a4.492,4.492,0,0,1-4.847-4.76,15.529,15.529,0,0,1,.49-3.231l1.558-7.212h3.865l-1.443,7.01a15.632,15.632,0,0,0-.433,3.114A1.991,1.991,0,0,0,46.808,151c2.682,0,3.664-2.509,4.154-4.73l1.587-7.472h3.865Z" transform="translate(-12.77 -131.677)" fill="#fff"/>
        <path id="Path_4" data-name="Path 4" d="M65.277,142.048a9.181,9.181,0,0,0-3.173-.693c-1.154,0-2.6.317-2.6,1.5,0,1.874,5.019,2.567,5.019,6.2,0,3.865-3.375,5.019-6.692,5.019a10.588,10.588,0,0,1-4.529-.894l.837-3.086a7.262,7.262,0,0,0,3.693,1.154c1.3,0,2.653-.433,2.653-1.644,0-2.395-5.019-2.625-5.019-6.346,0-3.49,3.375-4.732,6.433-4.732a17.28,17.28,0,0,1,4.211.607Z" transform="translate(-9.401 -131.75)" fill="#fff"/>
        <path id="Path_5" data-name="Path 5" d="M67.634,149.691c0-2.509,3.116-2.827,4.991-2.827H73.98c-.605,2.395-1.5,4.385-4.385,4.385C68.615,151.249,67.634,150.73,67.634,149.691Zm5.337,4.039h3.26c.346-2.8,1.817-8.626,1.817-10.616,0-3.491-2.8-4.587-5.769-4.587a15.117,15.117,0,0,0-5.048.9l-.548,3.086a11.405,11.405,0,0,1,4.875-1.154c1.355,0,2.971.432,2.971,1.933a4.63,4.63,0,0,1-.115,1.269H73.058c-3.635,0-9.116.375-9.116,5.279,0,2.741,1.9,4.24,4.587,4.24,2.134,0,3.461-.952,4.789-2.626h.058Z" transform="translate(-6.567 -131.75)" fill="#fff"/>
        <path id="Path_6" data-name="Path 6" d="M81.192,133.449h3.865L80.47,155.083H76.6Z" transform="translate(-3.192 -133.103)" fill="#fff"/>
        <path id="Path_7" data-name="Path 7" d="M86.63,149.691c0-2.509,3.116-2.827,4.991-2.827h1.355c-.605,2.395-1.5,4.385-4.385,4.385C87.611,151.249,86.63,150.73,86.63,149.691Zm5.337,4.039h3.26c.346-2.8,1.817-8.626,1.817-10.616,0-3.491-2.8-4.587-5.769-4.587a15.117,15.117,0,0,0-5.048.9l-.548,3.086a11.406,11.406,0,0,1,4.875-1.154c1.356,0,2.971.432,2.971,1.933a4.633,4.633,0,0,1-.115,1.269H92.054c-3.634,0-9.115.375-9.115,5.279,0,2.741,1.9,4.24,4.586,4.24,2.135,0,3.463-.952,4.789-2.626h.058Z" transform="translate(-1.504 -131.75)" fill="#fff"/>
        <path id="Path_8" data-name="Path 8" d="M109.4,137.071a9,9,0,0,0-4.068-.982c-2.221,0-4.817,1.038-4.817,3.751,0,3.49,7.413,3.865,7.413,9.058,0,4.1-3.75,6.288-7.413,6.288a10.25,10.25,0,0,1-5.077-1.1l.605-1.9a8.05,8.05,0,0,0,4.3,1.269c2.712,0,5.6-1.183,5.6-4.3,0-4.183-7.413-4.529-7.413-9.173,0-3.922,3.26-5.625,6.807-5.625a11.745,11.745,0,0,1,4.673.894Z" transform="translate(1.828 -132.861)" fill="#fff"/>
        <path id="Path_9" data-name="Path 9" d="M109.39,147.931c0-3.75,1.9-7.731,5.972-7.731,2.856,0,4.1,2.019,4.1,4.789,0,3.461-2.135,7.5-5.942,7.5C110.949,152.489,109.39,150.469,109.39,147.931Zm-1.99-.289c0,3.663,2.249,6.4,5.884,6.4,5.076,0,8.164-4.183,8.164-9.087,0-3.807-2.106-6.317-5.856-6.317C110.6,138.642,107.4,142.71,107.4,147.642Z" transform="translate(5.015 -131.72)" fill="#fff"/>
        <path id="Path_10" data-name="Path 10" d="M134.084,142h3.779l.376-1.558H134.4l.894-4.01-2.077.721-.693,3.289h-6.539l.231-1.1c.49-2.337,1.009-4.615,3.173-4.615a3.4,3.4,0,0,1,1.47.289l.433-1.529a5.418,5.418,0,0,0-2.02-.317c-3.432,0-4.326,3.26-4.876,5.8l-.317,1.472h-3.145L120.563,142h3.173l-2.828,13.154h1.9L125.639,142h6.539l-1.413,6.52a25.416,25.416,0,0,0-.662,4.24c0,1.587,1.154,2.741,3.2,2.741a4.058,4.058,0,0,0,1.847-.4l.172-1.558a3.063,3.063,0,0,1-1.558.4,1.568,1.568,0,0,1-1.673-1.788,14.486,14.486,0,0,1,.433-2.885Z" transform="translate(8.523 -133.176)" fill="#fff"/>
      </g>
    </g>
    <path id="artemis-logotype" d="M41.814,67h11.73l-21.6-48.3H20.907L-.621,67H10.833l4.278-10.35H37.536ZM18.7,48.163l7.659-18.492,7.659,18.492ZM101.361,67,90.528,51.475c6.279-2.691,9.936-8,9.936-15.249,0-10.833-8.073-17.526-20.976-17.526H58.581V67H69.759V53.545H80.04L89.355,67ZM89.148,36.226c0,5.244-3.45,8.418-10.281,8.418H69.759V27.808h9.108C85.7,27.808,89.148,30.913,89.148,36.226ZM118.611,67h11.178V27.808h15.456V18.7h-42.09v9.108h15.456Zm43.746-8.97V46.852h22.425V38.158H162.357V27.67h25.392V18.7h-36.5V67h37.4V58.03ZM251.988,67l-.138-48.3h-9.177l-17.8,30.015L206.793,18.7h-9.246V67h10.488V38.641L222.18,61.894h5.037L241.431,38.02,241.5,67Zm11.454,0H274.62V18.7H263.442Zm38.5.828c13.8,0,20.493-6.9,20.493-14.973,0-17.733-28.083-11.592-28.083-20.493,0-3.036,2.553-5.52,9.177-5.52a27.279,27.279,0,0,1,13.386,3.8l3.45-8.487c-4.485-2.829-10.695-4.278-16.767-4.278-13.731,0-20.355,6.831-20.355,15.042,0,17.94,28.083,11.73,28.083,20.769,0,2.967-2.691,5.175-9.315,5.175a28.41,28.41,0,0,1-15.939-5.037l-3.795,8.418C286.557,65.551,294.285,67.828,301.944,67.828Z" transform="translate(798 338)" fill="#fff"/>
  </g>
</svg>
