<svg xmlns="http://www.w3.org/2000/svg" width="120" height="35.834" viewBox="0 0 120 35.834">
  <g id="logo" transform="translate(-797.379 -355.872)">
    <path id="Path_2020" data-name="Path 2020" d="M-5.73-2.7l1.266-5.976h.753l-.555,2.508a1.865,1.865,0,0,1,1.407-.637.884.884,0,0,1,.778.385,1.838,1.838,0,0,1,.265,1.055A2.659,2.659,0,0,1-2.56-3.454a2.972,2.972,0,0,1-2.259.869A3.046,3.046,0,0,1-5.73-2.7Zm3.186-2.706q0-.811-.67-.811-1.01,0-1.3,1.266l-.414,1.788a1.257,1.257,0,0,0,.339.033,1.584,1.584,0,0,0,.679-.132,2.34,2.34,0,0,0,1.026-.919A2.329,2.329,0,0,0-2.544-5.407Zm4.85-1.332h.745L.759-2.734A7.4,7.4,0,0,1-.036-1.542a1.636,1.636,0,0,1-1.225.563,1.824,1.824,0,0,1-.447-.066l.166-.6a.9.9,0,0,0,.339.074q.621,0,1.117-.952L-.748-6.739H.063L.419-4.182a4.929,4.929,0,0,1,.058.629,1.778,1.778,0,0,1-.017.207,4.722,4.722,0,0,1,.306-.646Z" transform="translate(841.542 392.685)" fill="#2b4591"/>
    <g id="Musala-Logo-lettering" transform="translate(846.94 379.573)">
      <g id="Group_1" data-name="Group 1" transform="translate(0 0)">
        <path id="Path_2" data-name="Path 2" d="M20.689,134.633h3.2l.65,6.964h.028l3.808-6.964H31.6L29.536,144.3H27.487l1.827-8h-.028l-4.375,8H23.056l-.775-8h-.028l-1.772,8H18.64Z" transform="translate(-18.64 -133.747)" fill="#2b4591"/>
        <path id="Path_3" data-name="Path 3" d="M46.909,144.907c-.083.429-.153.8-.18,1.024H44.915l.125-.692h-.028a3.039,3.039,0,0,1-2.021.858,2.156,2.156,0,0,1-2.326-2.284,7.453,7.453,0,0,1,.235-1.551l.748-3.461H43.5l-.692,3.365a7.5,7.5,0,0,0-.208,1.495.955.955,0,0,0,1.011,1c1.287,0,1.759-1.2,1.994-2.27l.762-3.586h1.855Z" transform="translate(-27.277 -135.381)" fill="#2b4591"/>
        <path id="Path_4" data-name="Path 4" d="M59.051,140.217a4.407,4.407,0,0,0-1.523-.332c-.554,0-1.246.152-1.246.72,0,.9,2.409,1.232,2.409,2.976,0,1.855-1.62,2.409-3.212,2.409a5.082,5.082,0,0,1-2.174-.429l.4-1.481a3.485,3.485,0,0,0,1.773.554c.623,0,1.273-.208,1.273-.789,0-1.149-2.409-1.26-2.409-3.046,0-1.675,1.62-2.271,3.087-2.271a8.3,8.3,0,0,1,2.021.291Z" transform="translate(-32.234 -135.274)" fill="#2b4591"/>
        <path id="Path_5" data-name="Path 5" d="M65.714,143.885c0-1.2,1.5-1.357,2.4-1.357h.65c-.291,1.149-.72,2.1-2.1,2.1C66.185,144.633,65.714,144.384,65.714,143.885Zm2.562,1.938H69.84c.166-1.343.872-4.14.872-5.1,0-1.675-1.343-2.2-2.769-2.2a7.256,7.256,0,0,0-2.423.43l-.263,1.481a5.474,5.474,0,0,1,2.34-.554c.65,0,1.426.207,1.426.928a2.222,2.222,0,0,1-.055.609h-.65c-1.745,0-4.375.18-4.375,2.534a1.973,1.973,0,0,0,2.2,2.035,2.739,2.739,0,0,0,2.3-1.26h.028Z" transform="translate(-36.405 -135.274)" fill="#2b4591"/>
        <path id="Path_6" data-name="Path 6" d="M78.807,133.449h1.855l-2.2,10.383H76.6Z" transform="translate(-41.37 -133.283)" fill="#2b4591"/>
        <path id="Path_7" data-name="Path 7" d="M84.71,143.885c0-1.2,1.5-1.357,2.4-1.357h.65c-.291,1.149-.72,2.1-2.1,2.1C85.181,144.633,84.71,144.384,84.71,143.885Zm2.562,1.938h1.565c.166-1.343.872-4.14.872-5.1,0-1.675-1.343-2.2-2.769-2.2a7.256,7.256,0,0,0-2.423.43l-.263,1.481a5.474,5.474,0,0,1,2.34-.554c.651,0,1.426.207,1.426.928a2.223,2.223,0,0,1-.055.609h-.65c-1.744,0-4.375.18-4.375,2.534a1.973,1.973,0,0,0,2.2,2.035,2.737,2.737,0,0,0,2.3-1.26h.028Z" transform="translate(-43.854 -135.274)" fill="#2b4591"/>
        <path id="Path_8" data-name="Path 8" d="M102.143,135.66a4.32,4.32,0,0,0-1.952-.471c-1.066,0-2.312.5-2.312,1.8,0,1.675,3.558,1.855,3.558,4.347,0,1.966-1.8,3.018-3.558,3.018a4.919,4.919,0,0,1-2.437-.526l.291-.914a3.864,3.864,0,0,0,2.063.609c1.3,0,2.686-.568,2.686-2.063,0-2.008-3.558-2.174-3.558-4.4,0-1.883,1.565-2.7,3.267-2.7a5.637,5.637,0,0,1,2.243.429Z" transform="translate(-48.757 -133.64)" fill="#2b4591"/>
        <path id="Path_9" data-name="Path 9" d="M108.355,143.1c0-1.8.914-3.71,2.866-3.71,1.371,0,1.966.969,1.966,2.3,0,1.661-1.025,3.6-2.852,3.6A2,2,0,0,1,108.355,143.1Zm-.955-.139a2.81,2.81,0,0,0,2.824,3.073c2.436,0,3.918-2.008,3.918-4.361a2.7,2.7,0,0,0-2.811-3.032A4.011,4.011,0,0,0,107.4,142.961Z" transform="translate(-53.446 -135.319)" fill="#2b4591"/>
        <path id="Path_10" data-name="Path 10" d="M127.052,137.412h1.814l.181-.748h-1.841l.429-1.924-1,.346-.333,1.579h-3.138l.111-.526c.235-1.122.484-2.215,1.523-2.215a1.63,1.63,0,0,1,.706.139l.208-.734a2.6,2.6,0,0,0-.97-.152c-1.647,0-2.076,1.565-2.34,2.783l-.152.706h-1.509l-.18.748h1.523l-1.357,6.313h.914L123,137.413h3.138l-.678,3.129a12.2,12.2,0,0,0-.318,2.035c0,.762.554,1.315,1.537,1.315a1.948,1.948,0,0,0,.886-.194l.083-.748a1.47,1.47,0,0,1-.748.194.753.753,0,0,1-.8-.858,6.952,6.952,0,0,1,.208-1.385Z" transform="translate(-58.608 -133.176)" fill="#2b4591"/>
      </g>
    </g>
    <path id="artemis-logotype" d="M15.017,35.977H19.34l-7.959-17.8H7.313l-7.934,17.8H3.6l1.577-3.814h8.264ZM6.5,29.035,9.321,22.22l2.823,6.815Zm30.463,6.942L32.97,30.256a5.787,5.787,0,0,0,3.662-5.62c0-3.992-2.975-6.459-7.73-6.459H21.2v17.8h4.119V31.018H29.1l3.433,4.959Zm-4.5-11.341c0,1.933-1.271,3.1-3.789,3.1H25.316v-6.2h3.357C31.19,21.534,32.461,22.678,32.461,24.636ZM43.319,35.977h4.119V21.534h5.7V18.177H37.623v3.357h5.7Zm16.122-3.306V28.552H67.7v-3.2H59.441V21.483H68.8V18.177H55.347v17.8H69.129V32.671Zm33.031,3.306-.051-17.8H89.039L82.479,29.238,75.817,18.177H72.409v17.8h3.865V25.526L81.487,34.1h1.856l5.238-8.8.025,10.68Zm4.221,0h4.119v-17.8H96.693Zm14.189.305c5.086,0,7.552-2.543,7.552-5.518,0-6.535-10.349-4.272-10.349-7.552,0-1.119.941-2.034,3.382-2.034a10.053,10.053,0,0,1,4.933,1.4l1.271-3.128a11.94,11.94,0,0,0-6.179-1.577c-5.06,0-7.5,2.517-7.5,5.543,0,6.611,10.349,4.323,10.349,7.654,0,1.093-.992,1.907-3.433,1.907a10.47,10.47,0,0,1-5.874-1.856l-1.4,3.1A12.687,12.687,0,0,0,110.882,36.282Z" transform="translate(798 338)" fill="#2b4591"/>
  </g>
</svg>
