<svg xmlns="http://www.w3.org/2000/svg" width="164.5" height="49.122" viewBox="0 0 164.5 49.122">
  <g id="logo" transform="translate(-797.379 -355.872)">
    <path id="Path_2020" data-name="Path 2020" d="M-5.73-.485l1.736-8.191h1.032l-.76,3.438a2.557,2.557,0,0,1,1.929-.874,1.212,1.212,0,0,1,1.066.528A2.519,2.519,0,0,1-.364-4.138,3.645,3.645,0,0,1-1.385-1.517a4.074,4.074,0,0,1-3.1,1.191A4.175,4.175,0,0,1-5.73-.485Zm4.368-3.71q0-1.112-.919-1.112-1.384,0-1.781,1.736L-4.629-1.12a1.723,1.723,0,0,0,.465.045,2.171,2.171,0,0,0,.93-.182A3.208,3.208,0,0,0-1.827-2.515,3.193,3.193,0,0,0-1.362-4.195ZM5.287-6.021H6.308L3.165-.53A10.143,10.143,0,0,1,2.076,1.1,2.243,2.243,0,0,1,.4,1.875a2.5,2.5,0,0,1-.613-.091L.011.956a1.234,1.234,0,0,0,.465.1q.851,0,1.532-1.3L1.1-6.021H2.212L2.7-2.515a6.756,6.756,0,0,1,.079.862,2.438,2.438,0,0,1-.023.284,6.473,6.473,0,0,1,.42-.885Z" transform="translate(855.794 403.119)" fill="#2b4591"/>
    <g id="Musala-Logo-lettering" transform="translate(865.319 388.362)">
      <g id="Group_1" data-name="Group 1" transform="translate(0 0)">
        <path id="Path_2" data-name="Path 2" d="M21.449,134.633h4.384l.892,9.547h.038l5.22-9.547H36.4L33.576,147.88H30.767l2.5-10.97h-.038l-6,10.97H24.694l-1.062-10.97h-.038l-2.429,10.97H18.64Z" transform="translate(-18.64 -133.419)" fill="#2b4591"/>
        <path id="Path_3" data-name="Path 3" d="M49.224,147.171c-.114.588-.209,1.1-.247,1.4H46.491l.171-.949h-.038a4.166,4.166,0,0,1-2.771,1.177,2.955,2.955,0,0,1-3.189-3.131,10.217,10.217,0,0,1,.322-2.126l1.025-4.745h2.543l-.949,4.612a10.285,10.285,0,0,0-.285,2.049,1.31,1.31,0,0,0,1.386,1.367c1.765,0,2.411-1.651,2.733-3.112l1.044-4.916h2.543Z" transform="translate(-22.312 -134.114)" fill="#2b4591"/>
        <path id="Path_4" data-name="Path 4" d="M61.182,140.844a6.04,6.04,0,0,0-2.087-.456c-.759,0-1.708.208-1.708.987,0,1.233,3.3,1.689,3.3,4.08,0,2.543-2.221,3.3-4.4,3.3a6.966,6.966,0,0,1-2.98-.588l.551-2.031a4.778,4.778,0,0,0,2.43.759c.854,0,1.746-.285,1.746-1.082,0-1.576-3.3-1.727-3.3-4.176,0-2.3,2.221-3.113,4.232-3.113a11.371,11.371,0,0,1,2.771.4Z" transform="translate(-24.42 -134.068)" fill="#2b4591"/>
        <path id="Path_5" data-name="Path 5" d="M66.371,145.872c0-1.651,2.05-1.86,3.284-1.86h.892c-.4,1.576-.987,2.885-2.885,2.885C67.017,146.9,66.371,146.556,66.371,145.872Zm3.511,2.657h2.145c.227-1.841,1.2-5.675,1.2-6.985,0-2.3-1.841-3.018-3.8-3.018a9.947,9.947,0,0,0-3.321.589l-.361,2.031a7.5,7.5,0,0,1,3.207-.759c.892,0,1.955.284,1.955,1.272a3.046,3.046,0,0,1-.076.835H69.94c-2.392,0-6,.247-6,3.473a2.705,2.705,0,0,0,3.018,2.79,3.754,3.754,0,0,0,3.151-1.727h.038Z" transform="translate(-26.193 -134.068)" fill="#2b4591"/>
        <path id="Path_6" data-name="Path 6" d="M79.623,133.449h2.543l-3.018,14.234H76.6Z" transform="translate(-28.304 -133.221)" fill="#2b4591"/>
        <path id="Path_7" data-name="Path 7" d="M85.367,145.872c0-1.651,2.05-1.86,3.284-1.86h.892c-.4,1.576-.987,2.885-2.885,2.885C86.013,146.9,85.367,146.556,85.367,145.872Zm3.511,2.657h2.145c.227-1.841,1.2-5.675,1.2-6.985,0-2.3-1.841-3.018-3.8-3.018a9.947,9.947,0,0,0-3.321.589l-.361,2.031a7.5,7.5,0,0,1,3.207-.759c.892,0,1.955.284,1.955,1.272a3.048,3.048,0,0,1-.076.835h-.892c-2.391,0-6,.247-6,3.473a2.7,2.7,0,0,0,3.017,2.79,3.752,3.752,0,0,0,3.151-1.727h.038Z" transform="translate(-29.36 -134.068)" fill="#2b4591"/>
        <path id="Path_8" data-name="Path 8" d="M104.628,136.143a5.922,5.922,0,0,0-2.676-.646c-1.462,0-3.169.683-3.169,2.468,0,2.3,4.877,2.543,4.877,5.96,0,2.695-2.467,4.137-4.877,4.137a6.744,6.744,0,0,1-3.341-.722l.4-1.252a5.3,5.3,0,0,0,2.828.835c1.784,0,3.682-.778,3.682-2.828,0-2.752-4.877-2.98-4.877-6.035,0-2.581,2.145-3.7,4.479-3.7a7.727,7.727,0,0,1,3.075.588Z" transform="translate(-31.445 -133.373)" fill="#2b4591"/>
        <path id="Path_9" data-name="Path 9" d="M108.709,144.753c0-2.467,1.253-5.086,3.929-5.086,1.879,0,2.695,1.328,2.695,3.151,0,2.277-1.4,4.935-3.91,4.935A2.743,2.743,0,0,1,108.709,144.753Zm-1.309-.19c0,2.41,1.48,4.213,3.871,4.213,3.34,0,5.371-2.752,5.371-5.979,0-2.5-1.386-4.156-3.853-4.156C109.507,138.642,107.4,141.318,107.4,144.563Z" transform="translate(-33.438 -134.087)" fill="#2b4591"/>
        <path id="Path_10" data-name="Path 10" d="M129.459,138.983h2.487l.247-1.025h-2.524l.588-2.638-1.367.474-.456,2.164h-4.3l.152-.722c.322-1.537.664-3.036,2.087-3.036a2.235,2.235,0,0,1,.967.19l.285-1.006a3.565,3.565,0,0,0-1.329-.208c-2.258,0-2.846,2.145-3.208,3.815l-.208.968H120.81l-.247,1.025h2.087l-1.861,8.654h1.253l1.86-8.654h4.3l-.93,4.29a16.721,16.721,0,0,0-.436,2.79c0,1.044.759,1.8,2.107,1.8a2.67,2.67,0,0,0,1.215-.266l.113-1.025a2.015,2.015,0,0,1-1.025.266,1.032,1.032,0,0,1-1.1-1.177,9.53,9.53,0,0,1,.285-1.9Z" transform="translate(-35.633 -133.176)" fill="#2b4591"/>
      </g>
    </g>
    <path id="artemis-logotype" d="M20.817,42.691h5.926L15.832,18.29H10.255L-.621,42.691H5.165l2.161-5.229H18.656ZM9.139,33.175l3.869-9.342,3.869,9.342ZM50.9,42.691l-5.473-7.843a7.933,7.933,0,0,0,5.02-7.7c0-5.473-4.078-8.854-10.6-8.854H29.287v24.4h5.647v-6.8h5.194l4.706,6.8Zm-6.17-15.547c0,2.649-1.743,4.253-5.194,4.253h-4.6V22.892h4.6C42.986,22.892,44.729,24.46,44.729,27.144ZM59.614,42.691h5.647v-19.8h7.808v-4.6H51.806v4.6h7.808Zm22.1-4.532V32.512H93.043V28.12H81.714v-5.3H94.542V18.29H76.1v24.4H94.995V38.159Zm45.281,4.532-.07-24.4h-4.636L113.3,33.454,104.162,18.29H99.491v24.4h5.3V28.364l7.146,11.747h2.545l7.181-12.061.035,14.64Zm5.786,0h5.647V18.29h-5.647Zm19.451.418c6.972,0,10.353-3.486,10.353-7.564,0-8.959-14.187-5.856-14.187-10.353,0-1.534,1.29-2.789,4.636-2.789a13.781,13.781,0,0,1,6.762,1.917l1.743-4.288a16.368,16.368,0,0,0-8.471-2.161c-6.937,0-10.283,3.451-10.283,7.6,0,9.063,14.187,5.926,14.187,10.492,0,1.5-1.359,2.614-4.706,2.614a14.353,14.353,0,0,1-8.052-2.545L142.3,40.286C144.458,41.959,148.363,43.109,152.232,43.109Z" transform="translate(798 338)" fill="#2b4591"/>
  </g>
</svg>
