<svg xmlns="http://www.w3.org/2000/svg" width="115.88" height="113.027" viewBox="0 0 115.88 113.027">
  <g id="Musala-Logo" transform="translate(-18.64 -37.779)">
    <g id="Group_1" data-name="Group 1">
      <path id="Path_1" data-name="Path 1" d="M25.542,124.093,54.775,68.5l10.807,20.24L87.209,48.227l40.041,75.866h5.519l.007-.014-45.551-86.3L65.581,78.317,54.753,58.034,20.023,124.09l0,0h5.517Z" fill="#2b4591"/>
      <path id="Path_2" data-name="Path 2" d="M22.011,134.633h5.261l1.07,11.457h.046l6.264-11.457h5.307l-3.394,15.9H33.194L36.2,137.366h-.046l-7.2,13.165H25.9L24.63,137.366h-.046l-2.915,13.165H18.64Z" fill="#2b4591"/>
      <path id="Path_3" data-name="Path 3" d="M50.937,148.846c-.137.706-.251,1.321-.3,1.685H47.657l.205-1.139h-.046a5,5,0,0,1-3.325,1.412,3.546,3.546,0,0,1-3.827-3.758,12.262,12.262,0,0,1,.387-2.551l1.23-5.694h3.052l-1.139,5.535a12.342,12.342,0,0,0-.342,2.459,1.572,1.572,0,0,0,1.663,1.64c2.118,0,2.893-1.981,3.28-3.735l1.253-5.9H53.1Z" fill="#2b4591"/>
      <path id="Path_4" data-name="Path 4" d="M62.758,141.307a7.25,7.25,0,0,0-2.505-.547c-.911,0-2.05.25-2.05,1.185,0,1.48,3.963,2.027,3.963,4.9,0,3.052-2.665,3.963-5.284,3.963a8.361,8.361,0,0,1-3.576-.706l.661-2.437a5.734,5.734,0,0,0,2.916.911c1.025,0,2.1-.342,2.1-1.3,0-1.891-3.963-2.073-3.963-5.011,0-2.756,2.665-3.736,5.079-3.736a13.643,13.643,0,0,1,3.325.479Z" fill="#2b4591"/>
      <path id="Path_5" data-name="Path 5" d="M66.857,147.342c0-1.981,2.46-2.232,3.941-2.232h1.07c-.478,1.891-1.184,3.462-3.462,3.462C67.632,148.572,66.857,148.162,66.857,147.342Zm4.214,3.189h2.574c.273-2.209,1.435-6.811,1.435-8.382,0-2.756-2.209-3.622-4.555-3.622a11.935,11.935,0,0,0-3.986.707l-.433,2.437a9.005,9.005,0,0,1,3.849-.911c1.07,0,2.346.341,2.346,1.526a3.657,3.657,0,0,1-.091,1H71.14c-2.87,0-7.2.3-7.2,4.168,0,2.164,1.5,3.348,3.622,3.348a4.506,4.506,0,0,0,3.781-2.073h.046Z" fill="#2b4591"/>
      <path id="Path_6" data-name="Path 6" d="M80.227,133.449h3.052l-3.622,17.082H76.6Z" fill="#2b4591"/>
      <path id="Path_7" data-name="Path 7" d="M85.853,147.342c0-1.981,2.46-2.232,3.941-2.232h1.07c-.478,1.891-1.185,3.462-3.462,3.462C86.628,148.572,85.853,148.162,85.853,147.342Zm4.214,3.189h2.574c.273-2.209,1.435-6.811,1.435-8.382,0-2.756-2.209-3.622-4.555-3.622a11.935,11.935,0,0,0-3.986.707l-.433,2.437a9.005,9.005,0,0,1,3.849-.911c1.071,0,2.346.341,2.346,1.526a3.657,3.657,0,0,1-.091,1h-1.07c-2.869,0-7.2.3-7.2,4.168,0,2.164,1.5,3.348,3.621,3.348a4.5,4.5,0,0,0,3.781-2.073h.046Z" fill="#2b4591"/>
      <path id="Path_8" data-name="Path 8" d="M106.466,136.5a7.107,7.107,0,0,0-3.212-.775c-1.754,0-3.8.82-3.8,2.962,0,2.756,5.853,3.052,5.853,7.152,0,3.234-2.961,4.965-5.853,4.965a8.093,8.093,0,0,1-4.009-.866l.478-1.5a6.357,6.357,0,0,0,3.394,1c2.141,0,4.419-.934,4.419-3.394,0-3.3-5.853-3.576-5.853-7.243,0-3.1,2.574-4.441,5.375-4.441a9.273,9.273,0,0,1,3.69.706Z" fill="#2b4591"/>
      <path id="Path_9" data-name="Path 9" d="M108.971,145.976c0-2.961,1.5-6.1,4.715-6.1,2.255,0,3.234,1.594,3.234,3.781,0,2.733-1.686,5.922-4.692,5.922A3.292,3.292,0,0,1,108.971,145.976Zm-1.571-.228c0,2.892,1.776,5.056,4.646,5.056,4.008,0,6.446-3.3,6.446-7.175,0-3.006-1.663-4.988-4.624-4.988C109.928,138.642,107.4,141.854,107.4,145.748Z" fill="#2b4591"/>
      <path id="Path_10" data-name="Path 10" d="M131.239,140.145h2.984l.3-1.23h-3.029l.706-3.166-1.64.569-.547,2.6h-5.163l.182-.866c.387-1.845.8-3.644,2.5-3.644a2.682,2.682,0,0,1,1.161.228l.342-1.207a4.278,4.278,0,0,0-1.6-.25c-2.71,0-3.416,2.574-3.85,4.578l-.25,1.162h-2.483l-.3,1.23h2.5l-2.233,10.386h1.5l2.232-10.386h5.163l-1.116,5.148a20.064,20.064,0,0,0-.523,3.348c0,1.253.911,2.164,2.528,2.164a3.2,3.2,0,0,0,1.458-.319l.136-1.23a2.418,2.418,0,0,1-1.23.319,1.238,1.238,0,0,1-1.321-1.412,11.442,11.442,0,0,1,.342-2.278Z" fill="#2b4591"/>
      <path id="Path_11" data-name="Path 11" d="M62.351,94.973c0-2.046,11.515-4.526,27.712-5.925v-.312c-21.7.557-45.331,3.138-45.331,6.954,0,5.015,34.7,6.21,34.7,12.9,0,3.821-14.414,10.269-46.449,20.777h72.877c5.7-5.42,8.81-11.224,8.81-15.523C114.673,97.839,62.351,98.795,62.351,94.973Z" fill="#2b4591"/>
    </g>
  </g>
</svg>
