<svg xmlns="http://www.w3.org/2000/svg" width="14.943" height="13.449" viewBox="0 0 14.943 13.449">
  <path id="Path_3846" data-name="Path 3846" d="M10.966,7.483V8.23h5.276a.675.675,0,0,1,.7.643v3.653A2.248,2.248,0,0,1,14.6,14.671a1.89,1.89,0,0,1-.915-.219,3.3,3.3,0,0,1-3.029,2h-.134A3.3,3.3,0,0,1,7.4,14.208H2.747A.749.749,0,0,1,2,13.46V5.989a.749.749,0,0,1,.747-.747H8.725a2.242,2.242,0,1,1,2.242,2.242ZM12.46,5.242a1.5,1.5,0,0,1-1.494,1.494V5.989a.749.749,0,0,0-.747-.747H9.472a1.494,1.494,0,0,1,2.989,0ZM6.833,12.62V8.271H8.45V6.829H3.769V8.271H5.4V12.62Zm6.375.534v.031a.55.55,0,0,0,0,.061A2.551,2.551,0,0,1,10.66,15.7h-.134a2.552,2.552,0,0,1-2.32-1.494h2.014a.749.749,0,0,0,.747-.747V8.977h2.242Zm2.989-.628a1.506,1.506,0,0,1-1.592,1.4,1.056,1.056,0,0,1-.624-.179,3.143,3.143,0,0,0-.014-.316l0-.025,0-.031h0c0-.037-.007-.073-.008-.106s0-.075,0-.112V8.977H16.2Zm.149-6.538a.9.9,0,1,1-.9-.9A.9.9,0,0,1,16.346,5.989Zm-.9-1.494a1.494,1.494,0,1,1-1.494,1.494A1.494,1.494,0,0,1,15.449,4.494Z" transform="translate(-2 -3)" fill="#fff" fill-rule="evenodd"/>
</svg>
