<svg xmlns="http://www.w3.org/2000/svg" width="32" height="32" viewBox="0 0 32 32">
  <g id="time" transform="translate(-0.324)">
    <rect id="Rectangle_2143" data-name="Rectangle 2143" width="32" height="32" transform="translate(0.324)" fill="none"/>
    <path id="Path_2872" data-name="Path 2872" d="M14.611,2A12.624,12.624,0,1,0,27.248,14.624,12.618,12.618,0,0,0,14.611,2Zm.013,22.723a10.1,10.1,0,1,1,10.1-10.1A10.1,10.1,0,0,1,14.624,24.723ZM14.346,8.312H14.27a.905.905,0,0,0-.909.909v5.958a1.25,1.25,0,0,0,.619,1.086l5.239,3.143a.9.9,0,1,0,.922-1.553l-4.885-2.9V9.221A.905.905,0,0,0,14.346,8.312Z" transform="translate(1.425 1.425)" fill="#643695"/>
  </g>
</svg>
