<svg xmlns="http://www.w3.org/2000/svg" width="24" height="24.001" viewBox="0 0 24 24.001">
  <path id="user-icon" d="M1466,54a5.935,5.935,0,0,1-6-6,6.007,6.007,0,0,1,6-6,5.936,5.936,0,0,1,6,6.135A6.012,6.012,0,0,1,1466,54Zm-10.17,10.5h20.341l-1.875-4.983a.03.03,0,0,0-.008-.015,2,2,0,0,0-1.538-1h-13.5a2.013,2.013,0,0,0-1.568,1.062Zm21.421,1.5h-22.5a.738.738,0,0,1-.615-.323.757.757,0,0,1-.09-.692l2.25-6c.007-.024.022-.048.03-.072A3.541,3.541,0,0,1,1459.25,57h13.5a3.521,3.521,0,0,1,2.918,1.91v0l2.28,6.072a.734.734,0,0,1-.083.692A.747.747,0,0,1,1477.251,66ZM1461.5,48a4.5,4.5,0,1,1,4.5,4.5A4.4,4.4,0,0,1,1461.5,48Z" transform="translate(-1454 -42)" fill="#fff" fill-rule="evenodd"/>
</svg>
