<svg xmlns="http://www.w3.org/2000/svg" width="32" height="32" viewBox="0 0 32 32">
  <g id="wifi-icon" transform="translate(17374 3484)">
    <rect id="Rectangle_2149" data-name="Rectangle 2149" width="32" height="32" transform="translate(-17374 -3484)" fill="none"/>
    <path id="Path_2874" data-name="Path 2874" d="M2.222,13.023a1.792,1.792,0,0,0,2.592.153,16.4,16.4,0,0,1,22.356-.015,1.823,1.823,0,0,0,2.619-.138,2.323,2.323,0,0,0-.139-3.211,20.061,20.061,0,0,0-27.29,0A2.308,2.308,0,0,0,2.222,13.023ZM12.977,24.888l2.037,2.248a1.291,1.291,0,0,0,1.954,0l2.037-2.248a1.615,1.615,0,0,0-.319-2.431,5.443,5.443,0,0,0-5.419,0A1.642,1.642,0,0,0,12.977,24.888Zm-5.17-5.7a1.822,1.822,0,0,0,2.536.2,9.051,9.051,0,0,1,11.31,0,1.836,1.836,0,0,0,2.536-.2l.014-.015a2.275,2.275,0,0,0-.18-3.226,12.7,12.7,0,0,0-16.05,0A2.281,2.281,0,0,0,7.808,19.185Z" transform="translate(-17374.004 -3484.458)" fill="#643695"/>
  </g>
</svg>
